<mxfile host="app.diagrams.net" modified="2022-11-22T03:41:58.105Z" agent="5.0 (Windows NT 10.0; Win64; x64) AppleWebKit/537.36 (KHTML, like Gecko) Chrome/106.0.0.0 Safari/537.36 OPR/92.0.0.0" etag="0w6AO8-ahnX53lvRM3yL" version="16.5.3" type="github">
  <diagram id="SXf0tpEVpk-GD4i6pyXN" name="อัพเดท 24-11-63">
    <mxGraphModel dx="4930" dy="3288" grid="1" gridSize="10" guides="1" tooltips="1" connect="1" arrows="1" fold="1" page="1" pageScale="1" pageWidth="850" pageHeight="1100" math="0" shadow="0">
      <root>
        <mxCell id="f-TOPqAcIMhOfcNf-VaI-0" />
        <mxCell id="M4cywnT3TZyjQohuFBCj-0" value="ขอบเขตห้อง" style="locked=1;" parent="f-TOPqAcIMhOfcNf-VaI-0" />
        <mxCell id="DyVjsTRH0FuvdyQmGpgD-0" value="&amp;nbsp;&lt;br&gt;&amp;nbsp;&lt;br&gt;" style="rounded=0;whiteSpace=wrap;html=1;fontFamily=Tahoma;fontSize=50;" parent="M4cywnT3TZyjQohuFBCj-0" vertex="1">
          <mxGeometry x="-250" y="1110" width="1330" height="900" as="geometry" />
        </mxCell>
        <mxCell id="DyVjsTRH0FuvdyQmGpgD-1" value="" style="rounded=0;whiteSpace=wrap;html=1;fontFamily=Tahoma;fontSize=50;" parent="M4cywnT3TZyjQohuFBCj-0" vertex="1">
          <mxGeometry x="-250" y="160" width="1330" height="950" as="geometry" />
        </mxCell>
        <mxCell id="DyVjsTRH0FuvdyQmGpgD-2" value="" style="rounded=0;whiteSpace=wrap;html=1;fontSize=50;fontFamily=Tahoma;" parent="M4cywnT3TZyjQohuFBCj-0" vertex="1">
          <mxGeometry x="1870" y="1400" width="1560" height="610" as="geometry" />
        </mxCell>
        <mxCell id="DyVjsTRH0FuvdyQmGpgD-3" value="" style="rounded=0;whiteSpace=wrap;html=1;fontFamily=Tahoma;fontSize=50;" parent="M4cywnT3TZyjQohuFBCj-0" vertex="1">
          <mxGeometry x="1080" y="1400" width="790" height="610" as="geometry" />
        </mxCell>
        <mxCell id="DyVjsTRH0FuvdyQmGpgD-4" value="" style="rounded=0;whiteSpace=wrap;html=1;fontFamily=Tahoma;fontSize=50;" parent="M4cywnT3TZyjQohuFBCj-0" vertex="1">
          <mxGeometry x="3430" y="-250" width="330" height="1050" as="geometry" />
        </mxCell>
        <mxCell id="DyVjsTRH0FuvdyQmGpgD-5" value="" style="rounded=0;whiteSpace=wrap;html=1;fontSize=50;fontFamily=Tahoma;" parent="M4cywnT3TZyjQohuFBCj-0" vertex="1">
          <mxGeometry x="3430" y="1120" width="330" height="890" as="geometry" />
        </mxCell>
        <mxCell id="vWZ2bZ8smG01XVmzT3Pg-3" value="" style="rounded=0;whiteSpace=wrap;html=1;" parent="M4cywnT3TZyjQohuFBCj-0" vertex="1">
          <mxGeometry x="-250" y="-250" width="3680" height="410" as="geometry" />
        </mxCell>
        <mxCell id="vrnas719oJ4A_Dz5osSf-31" value="" style="rounded=0;whiteSpace=wrap;html=1;fontFamily=Tahoma;fontSize=50;" parent="M4cywnT3TZyjQohuFBCj-0" vertex="1">
          <mxGeometry x="1080" y="160" width="2350" height="1240" as="geometry" />
        </mxCell>
        <mxCell id="Fcl9H4rcNKDT1mkGbeQJ-31" value="" style="rounded=0;whiteSpace=wrap;html=1;" parent="M4cywnT3TZyjQohuFBCj-0" vertex="1">
          <mxGeometry x="3430" y="800" width="330" height="320" as="geometry" />
        </mxCell>
        <mxCell id="M4cywnT3TZyjQohuFBCj-1" value="โทรศัพท์" style="locked=1;" parent="f-TOPqAcIMhOfcNf-VaI-0" visible="0" />
        <mxCell id="s9-2YyOUEzaTdB9-JsQf-2" value="&lt;b style=&quot;font-size: 24px&quot;&gt;02-503-9491&lt;/b&gt;" style="shape=mxgraph.signs.tech.cell_phone;html=1;pointerEvents=1;fillColor=#000000;strokeColor=none;verticalLabelPosition=top;verticalAlign=bottom;align=center;labelPosition=center;" parent="M4cywnT3TZyjQohuFBCj-1" vertex="1">
          <mxGeometry x="250" y="590" width="47" height="98" as="geometry" />
        </mxCell>
        <mxCell id="s9-2YyOUEzaTdB9-JsQf-6" value="&lt;b style=&quot;font-size: 24px&quot;&gt;02-503-9996&lt;/b&gt;" style="shape=mxgraph.signs.tech.cell_phone;html=1;pointerEvents=1;fillColor=#000000;strokeColor=none;verticalLabelPosition=top;verticalAlign=bottom;align=center;labelPosition=center;" parent="M4cywnT3TZyjQohuFBCj-1" vertex="1">
          <mxGeometry x="3080" y="1790" width="47" height="98" as="geometry" />
        </mxCell>
        <mxCell id="s9-2YyOUEzaTdB9-JsQf-8" value="&lt;b style=&quot;font-size: 24px&quot;&gt;02-503-9491&lt;br&gt;&lt;/b&gt;" style="shape=mxgraph.signs.tech.cell_phone;html=1;pointerEvents=1;strokeColor=none;verticalLabelPosition=top;verticalAlign=bottom;align=center;fillColor=#000000;labelPosition=center;" parent="M4cywnT3TZyjQohuFBCj-1" vertex="1">
          <mxGeometry x="2803" y="792" width="47" height="98" as="geometry" />
        </mxCell>
        <mxCell id="s9-2YyOUEzaTdB9-JsQf-13" value="&lt;b style=&quot;font-size: 24px&quot;&gt;02-982-8798&lt;/b&gt;" style="shape=mxgraph.signs.tech.cell_phone;html=1;pointerEvents=1;fillColor=#000000;strokeColor=none;verticalLabelPosition=top;verticalAlign=bottom;align=center;labelPosition=center;" parent="M4cywnT3TZyjQohuFBCj-1" vertex="1">
          <mxGeometry x="1600" y="792" width="47" height="98" as="geometry" />
        </mxCell>
        <mxCell id="H8keu7d3DDu3pE4mZcWP-16" value="&lt;span style=&quot;font-size: 24px&quot;&gt;086-305-1781&lt;/span&gt;" style="shape=mxgraph.signs.tech.cell_phone;html=1;pointerEvents=1;strokeColor=none;verticalLabelPosition=top;verticalAlign=bottom;align=center;labelPosition=center;fillColor=#CC0066;fontColor=#CC0066;fontStyle=1" parent="M4cywnT3TZyjQohuFBCj-1" vertex="1">
          <mxGeometry x="2560" y="1490" width="47" height="98" as="geometry" />
        </mxCell>
        <mxCell id="H8keu7d3DDu3pE4mZcWP-17" value="&lt;span style=&quot;font-size: 24px&quot;&gt;086-305-1782&lt;/span&gt;" style="shape=mxgraph.signs.tech.cell_phone;html=1;pointerEvents=1;strokeColor=none;verticalLabelPosition=top;verticalAlign=bottom;align=center;labelPosition=center;fillColor=#CC0066;fontColor=#CC0066;fontStyle=1" parent="M4cywnT3TZyjQohuFBCj-1" vertex="1">
          <mxGeometry x="2803" y="1100" width="47" height="98" as="geometry" />
        </mxCell>
        <mxCell id="H8keu7d3DDu3pE4mZcWP-18" value="&lt;span style=&quot;font-size: 24px&quot;&gt;081-807-2687&lt;/span&gt;" style="shape=mxgraph.signs.tech.cell_phone;html=1;pointerEvents=1;strokeColor=none;verticalLabelPosition=top;verticalAlign=bottom;align=center;labelPosition=center;fillColor=#CC0066;fontColor=#CC0066;fontStyle=1" parent="M4cywnT3TZyjQohuFBCj-1" vertex="1">
          <mxGeometry x="220" y="1490" width="47" height="98" as="geometry" />
        </mxCell>
        <mxCell id="H8keu7d3DDu3pE4mZcWP-19" value="&lt;span style=&quot;font-size: 24px&quot;&gt;092-253-5009&lt;/span&gt;" style="shape=mxgraph.signs.tech.cell_phone;html=1;pointerEvents=1;strokeColor=none;verticalLabelPosition=top;verticalAlign=bottom;align=center;labelPosition=center;fillColor=#CC0066;fontColor=#CC0066;fontStyle=1" parent="M4cywnT3TZyjQohuFBCj-1" vertex="1">
          <mxGeometry x="1540" y="290" width="47" height="98" as="geometry" />
        </mxCell>
        <mxCell id="EndkMGnYIv0Gp6CMNFBP-4" style="edgeStyle=orthogonalEdgeStyle;rounded=0;orthogonalLoop=1;jettySize=auto;html=1;exitX=1;exitY=0.5;exitDx=0;exitDy=0;exitPerimeter=0;entryX=0.5;entryY=1;entryDx=0;entryDy=0;entryPerimeter=0;dashed=1;strokeWidth=2;" parent="M4cywnT3TZyjQohuFBCj-1" source="H8keu7d3DDu3pE4mZcWP-23" target="UMbm4JfTCg6qUx0sTSbx-6" edge="1">
          <mxGeometry relative="1" as="geometry" />
        </mxCell>
        <mxCell id="H8keu7d3DDu3pE4mZcWP-23" value="&lt;b style=&quot;font-size: 24px&quot;&gt;02-504-0123&lt;br&gt;48.02&lt;br&gt;&lt;/b&gt;" style="shape=mxgraph.signs.tech.cell_phone;html=1;pointerEvents=1;strokeColor=none;verticalLabelPosition=middle;verticalAlign=middle;align=left;fillColor=#000099;labelPosition=right;fontColor=#000099;" parent="M4cywnT3TZyjQohuFBCj-1" vertex="1">
          <mxGeometry x="2850" y="792" width="47" height="98" as="geometry" />
        </mxCell>
        <mxCell id="UMbm4JfTCg6qUx0sTSbx-31" style="edgeStyle=orthogonalEdgeStyle;rounded=0;orthogonalLoop=1;jettySize=auto;html=1;exitX=1;exitY=0.5;exitDx=0;exitDy=0;exitPerimeter=0;entryX=0;entryY=0.5;entryDx=0;entryDy=0;entryPerimeter=0;fontSize=33;fontColor=#FF0000;dashed=1;strokeWidth=2;" parent="M4cywnT3TZyjQohuFBCj-1" source="H8keu7d3DDu3pE4mZcWP-24" target="H8keu7d3DDu3pE4mZcWP-23" edge="1">
          <mxGeometry relative="1" as="geometry" />
        </mxCell>
        <mxCell id="H8keu7d3DDu3pE4mZcWP-24" value="&lt;b style=&quot;font-size: 24px&quot;&gt;1050&lt;br&gt;&lt;/b&gt;" style="shape=mxgraph.signs.tech.cell_phone;html=1;pointerEvents=1;strokeColor=none;verticalLabelPosition=top;verticalAlign=bottom;align=center;fillColor=#000099;labelPosition=center;fontColor=#000099;" parent="M4cywnT3TZyjQohuFBCj-1" vertex="1">
          <mxGeometry x="2560" y="590" width="47" height="98" as="geometry" />
        </mxCell>
        <mxCell id="UMbm4JfTCg6qUx0sTSbx-40" style="edgeStyle=orthogonalEdgeStyle;rounded=0;orthogonalLoop=1;jettySize=auto;html=1;exitX=0;exitY=0.5;exitDx=0;exitDy=0;exitPerimeter=0;entryX=1;entryY=0.5;entryDx=0;entryDy=0;entryPerimeter=0;fontSize=33;fontColor=#FF0000;dashed=1;strokeWidth=2;strokeColor=#99CCFF;" parent="M4cywnT3TZyjQohuFBCj-1" source="UMbm4JfTCg6qUx0sTSbx-5" target="H8keu7d3DDu3pE4mZcWP-23" edge="1">
          <mxGeometry relative="1" as="geometry">
            <Array as="points">
              <mxPoint x="2990" y="1839" />
              <mxPoint x="2990" y="841" />
            </Array>
          </mxGeometry>
        </mxCell>
        <mxCell id="UMbm4JfTCg6qUx0sTSbx-5" value="&lt;b style=&quot;font-size: 24px&quot;&gt;1052&lt;br&gt;&lt;br&gt;&lt;/b&gt;" style="shape=mxgraph.signs.tech.cell_phone;html=1;pointerEvents=1;strokeColor=none;verticalLabelPosition=top;verticalAlign=bottom;align=center;fillColor=#000099;labelPosition=center;fontColor=#000099;" parent="M4cywnT3TZyjQohuFBCj-1" vertex="1">
          <mxGeometry x="3033" y="1790" width="47" height="98" as="geometry" />
        </mxCell>
        <mxCell id="UMbm4JfTCg6qUx0sTSbx-6" value="&lt;b style=&quot;font-size: 24px&quot;&gt;1138&lt;br&gt;&lt;/b&gt;" style="shape=mxgraph.signs.tech.cell_phone;html=1;pointerEvents=1;strokeColor=none;verticalLabelPosition=top;verticalAlign=bottom;align=center;fillColor=#000099;labelPosition=center;fontColor=#000099;" parent="M4cywnT3TZyjQohuFBCj-1" vertex="1">
          <mxGeometry x="3470" y="300" width="47" height="98" as="geometry" />
        </mxCell>
        <mxCell id="UMbm4JfTCg6qUx0sTSbx-39" style="edgeStyle=orthogonalEdgeStyle;rounded=0;orthogonalLoop=1;jettySize=auto;html=1;exitX=1;exitY=0.5;exitDx=0;exitDy=0;exitPerimeter=0;entryX=1;entryY=0.5;entryDx=0;entryDy=0;entryPerimeter=0;fontSize=33;fontColor=#FF0000;dashed=1;strokeWidth=2;" parent="M4cywnT3TZyjQohuFBCj-1" source="UMbm4JfTCg6qUx0sTSbx-7" target="H8keu7d3DDu3pE4mZcWP-23" edge="1">
          <mxGeometry relative="1" as="geometry">
            <Array as="points">
              <mxPoint x="2990" y="1149" />
              <mxPoint x="2990" y="841" />
            </Array>
          </mxGeometry>
        </mxCell>
        <mxCell id="UMbm4JfTCg6qUx0sTSbx-7" value="&lt;b style=&quot;font-size: 24px&quot;&gt;1133&lt;br&gt;&lt;/b&gt;" style="shape=mxgraph.signs.tech.cell_phone;html=1;pointerEvents=1;strokeColor=none;verticalLabelPosition=middle;verticalAlign=middle;align=left;fillColor=#000099;labelPosition=right;fontColor=#000099;" parent="M4cywnT3TZyjQohuFBCj-1" vertex="1">
          <mxGeometry x="2850" y="1100" width="47" height="98" as="geometry" />
        </mxCell>
        <mxCell id="EndkMGnYIv0Gp6CMNFBP-21" style="edgeStyle=orthogonalEdgeStyle;rounded=0;orthogonalLoop=1;jettySize=auto;html=1;exitX=0.5;exitY=1;exitDx=0;exitDy=0;exitPerimeter=0;entryX=0.5;entryY=1;entryDx=0;entryDy=0;entryPerimeter=0;dashed=1;strokeColor=#000000;strokeWidth=2;" parent="M4cywnT3TZyjQohuFBCj-1" source="UMbm4JfTCg6qUx0sTSbx-8" target="UMbm4JfTCg6qUx0sTSbx-10" edge="1">
          <mxGeometry relative="1" as="geometry">
            <Array as="points">
              <mxPoint x="2173" y="520" />
              <mxPoint x="1783" y="520" />
            </Array>
          </mxGeometry>
        </mxCell>
        <mxCell id="UMbm4JfTCg6qUx0sTSbx-8" value="&lt;b style=&quot;font-size: 24px&quot;&gt;1138&lt;br&gt;&lt;/b&gt;" style="shape=mxgraph.signs.tech.cell_phone;html=1;pointerEvents=1;strokeColor=none;verticalLabelPosition=top;verticalAlign=bottom;align=center;fillColor=#000099;labelPosition=center;fontColor=#000099;" parent="M4cywnT3TZyjQohuFBCj-1" vertex="1">
          <mxGeometry x="2150" y="290" width="47" height="98" as="geometry" />
        </mxCell>
        <mxCell id="UMbm4JfTCg6qUx0sTSbx-38" style="edgeStyle=orthogonalEdgeStyle;rounded=0;orthogonalLoop=1;jettySize=auto;html=1;exitX=1;exitY=0.5;exitDx=0;exitDy=0;exitPerimeter=0;entryX=0;entryY=0.5;entryDx=0;entryDy=0;entryPerimeter=0;fontSize=33;fontColor=#FF0000;dashed=1;strokeWidth=2;" parent="M4cywnT3TZyjQohuFBCj-1" source="UMbm4JfTCg6qUx0sTSbx-9" target="H8keu7d3DDu3pE4mZcWP-23" edge="1">
          <mxGeometry relative="1" as="geometry" />
        </mxCell>
        <mxCell id="UMbm4JfTCg6qUx0sTSbx-9" value="&lt;b style=&quot;font-size: 24px&quot;&gt;1051&lt;br&gt;&lt;br&gt;&lt;/b&gt;" style="shape=mxgraph.signs.tech.cell_phone;html=1;pointerEvents=1;strokeColor=none;verticalLabelPosition=top;verticalAlign=bottom;align=center;fillColor=#000099;labelPosition=center;fontColor=#000099;" parent="M4cywnT3TZyjQohuFBCj-1" vertex="1">
          <mxGeometry x="1647" y="792" width="47" height="98" as="geometry" />
        </mxCell>
        <mxCell id="EndkMGnYIv0Gp6CMNFBP-22" style="edgeStyle=orthogonalEdgeStyle;rounded=0;orthogonalLoop=1;jettySize=auto;html=1;exitX=0.5;exitY=1;exitDx=0;exitDy=0;exitPerimeter=0;entryX=0.5;entryY=1;entryDx=0;entryDy=0;entryPerimeter=0;dashed=1;strokeColor=#000000;strokeWidth=2;" parent="M4cywnT3TZyjQohuFBCj-1" source="UMbm4JfTCg6qUx0sTSbx-10" target="UMbm4JfTCg6qUx0sTSbx-11" edge="1">
          <mxGeometry relative="1" as="geometry">
            <Array as="points">
              <mxPoint x="1783" y="520" />
              <mxPoint x="1383" y="520" />
            </Array>
          </mxGeometry>
        </mxCell>
        <mxCell id="UMbm4JfTCg6qUx0sTSbx-10" value="&lt;b style=&quot;font-size: 24px&quot;&gt;1134&lt;br&gt;&lt;/b&gt;" style="shape=mxgraph.signs.tech.cell_phone;html=1;pointerEvents=1;strokeColor=none;verticalLabelPosition=top;verticalAlign=bottom;align=center;fillColor=#000099;labelPosition=center;fontColor=#000099;" parent="M4cywnT3TZyjQohuFBCj-1" vertex="1">
          <mxGeometry x="1760" y="290" width="47" height="98" as="geometry" />
        </mxCell>
        <mxCell id="EndkMGnYIv0Gp6CMNFBP-25" style="edgeStyle=orthogonalEdgeStyle;rounded=0;orthogonalLoop=1;jettySize=auto;html=1;exitX=0.5;exitY=1;exitDx=0;exitDy=0;exitPerimeter=0;entryX=0.5;entryY=0.125;entryDx=0;entryDy=0;entryPerimeter=0;dashed=1;strokeColor=#000000;strokeWidth=2;" parent="M4cywnT3TZyjQohuFBCj-1" source="UMbm4JfTCg6qUx0sTSbx-11" target="UMbm4JfTCg6qUx0sTSbx-16" edge="1">
          <mxGeometry relative="1" as="geometry" />
        </mxCell>
        <mxCell id="UMbm4JfTCg6qUx0sTSbx-11" value="&lt;b style=&quot;font-size: 24px&quot;&gt;1131&lt;br&gt;&lt;/b&gt;" style="shape=mxgraph.signs.tech.cell_phone;html=1;pointerEvents=1;strokeColor=none;verticalLabelPosition=top;verticalAlign=bottom;align=center;fillColor=#000099;labelPosition=center;fontColor=#000099;" parent="M4cywnT3TZyjQohuFBCj-1" vertex="1">
          <mxGeometry x="1360" y="290" width="47" height="98" as="geometry" />
        </mxCell>
        <mxCell id="UMbm4JfTCg6qUx0sTSbx-43" style="edgeStyle=orthogonalEdgeStyle;rounded=0;orthogonalLoop=1;jettySize=auto;html=1;exitX=1;exitY=0.5;exitDx=0;exitDy=0;exitPerimeter=0;entryX=0;entryY=0.5;entryDx=0;entryDy=0;entryPerimeter=0;fontSize=33;fontColor=#FF0000;dashed=1;strokeWidth=2;" parent="M4cywnT3TZyjQohuFBCj-1" source="UMbm4JfTCg6qUx0sTSbx-14" target="UMbm4JfTCg6qUx0sTSbx-9" edge="1">
          <mxGeometry relative="1" as="geometry">
            <Array as="points">
              <mxPoint x="250" y="841" />
            </Array>
          </mxGeometry>
        </mxCell>
        <mxCell id="UMbm4JfTCg6qUx0sTSbx-14" value="&lt;b style=&quot;font-size: 24px&quot;&gt;1132&lt;br&gt;&lt;br&gt;&lt;/b&gt;" style="shape=mxgraph.signs.tech.cell_phone;html=1;pointerEvents=1;strokeColor=none;verticalLabelPosition=top;verticalAlign=bottom;align=center;fillColor=#000099;labelPosition=center;fontColor=#000099;" parent="M4cywnT3TZyjQohuFBCj-1" vertex="1">
          <mxGeometry x="203" y="590" width="47" height="98" as="geometry" />
        </mxCell>
        <mxCell id="UMbm4JfTCg6qUx0sTSbx-15" value="&lt;b style=&quot;font-size: 24px&quot;&gt;1053&lt;br&gt;&lt;br&gt;&lt;/b&gt;" style="shape=mxgraph.signs.tech.cell_phone;html=1;pointerEvents=1;strokeColor=none;verticalLabelPosition=top;verticalAlign=bottom;align=center;fillColor=#000099;labelPosition=center;fontColor=#000099;" parent="M4cywnT3TZyjQohuFBCj-1" vertex="1">
          <mxGeometry x="270" y="1490" width="47" height="98" as="geometry" />
        </mxCell>
        <mxCell id="UMbm4JfTCg6qUx0sTSbx-16" value="&lt;b style=&quot;font-size: 24px&quot;&gt;1135&lt;br&gt;&lt;/b&gt;" style="shape=mxgraph.signs.tech.cell_phone;html=1;pointerEvents=1;strokeColor=none;verticalLabelPosition=top;verticalAlign=bottom;align=center;fillColor=#000099;labelPosition=center;fontColor=#000099;" parent="M4cywnT3TZyjQohuFBCj-1" vertex="1">
          <mxGeometry x="1360" y="1490" width="47" height="98" as="geometry" />
        </mxCell>
        <mxCell id="UMbm4JfTCg6qUx0sTSbx-44" style="edgeStyle=orthogonalEdgeStyle;rounded=0;orthogonalLoop=1;jettySize=auto;html=1;exitX=1;exitY=0.5;exitDx=0;exitDy=0;exitPerimeter=0;entryX=0;entryY=0.5;entryDx=0;entryDy=0;entryPerimeter=0;fontSize=33;fontColor=#FF0000;dashed=1;strokeWidth=2;" parent="M4cywnT3TZyjQohuFBCj-1" source="UMbm4JfTCg6qUx0sTSbx-19" target="UMbm4JfTCg6qUx0sTSbx-9" edge="1">
          <mxGeometry relative="1" as="geometry">
            <Array as="points">
              <mxPoint x="250" y="939" />
              <mxPoint x="250" y="841" />
            </Array>
          </mxGeometry>
        </mxCell>
        <mxCell id="EndkMGnYIv0Gp6CMNFBP-23" style="edgeStyle=orthogonalEdgeStyle;rounded=0;orthogonalLoop=1;jettySize=auto;html=1;exitX=0.5;exitY=1;exitDx=0;exitDy=0;exitPerimeter=0;entryX=0.5;entryY=0.125;entryDx=0;entryDy=0;entryPerimeter=0;dashed=1;strokeColor=#000000;strokeWidth=2;" parent="M4cywnT3TZyjQohuFBCj-1" source="UMbm4JfTCg6qUx0sTSbx-19" target="UMbm4JfTCg6qUx0sTSbx-15" edge="1">
          <mxGeometry relative="1" as="geometry" />
        </mxCell>
        <mxCell id="UMbm4JfTCg6qUx0sTSbx-19" value="&lt;b style=&quot;font-size: 24px&quot;&gt;1051&lt;br&gt;&lt;/b&gt;" style="shape=mxgraph.signs.tech.cell_phone;html=1;pointerEvents=1;strokeColor=none;verticalLabelPosition=top;verticalAlign=bottom;align=center;fillColor=#000099;labelPosition=center;fontColor=#000099;" parent="M4cywnT3TZyjQohuFBCj-1" vertex="1">
          <mxGeometry x="156" y="890" width="47" height="98" as="geometry" />
        </mxCell>
        <mxCell id="UMbm4JfTCg6qUx0sTSbx-32" style="edgeStyle=orthogonalEdgeStyle;rounded=0;orthogonalLoop=1;jettySize=auto;html=1;exitX=1;exitY=0.5;exitDx=0;exitDy=0;exitPerimeter=0;entryX=0;entryY=0.5;entryDx=0;entryDy=0;entryPerimeter=0;fontSize=33;fontColor=#FF0000;dashed=1;strokeWidth=2;" parent="M4cywnT3TZyjQohuFBCj-1" source="UMbm4JfTCg6qUx0sTSbx-21" target="H8keu7d3DDu3pE4mZcWP-23" edge="1">
          <mxGeometry relative="1" as="geometry" />
        </mxCell>
        <mxCell id="EndkMGnYIv0Gp6CMNFBP-19" style="edgeStyle=orthogonalEdgeStyle;rounded=0;orthogonalLoop=1;jettySize=auto;html=1;exitX=0.5;exitY=1;exitDx=0;exitDy=0;exitPerimeter=0;entryX=0.5;entryY=1;entryDx=0;entryDy=0;entryPerimeter=0;strokeColor=#000000;strokeWidth=2;dashed=1;" parent="M4cywnT3TZyjQohuFBCj-1" source="UMbm4JfTCg6qUx0sTSbx-21" target="UMbm4JfTCg6qUx0sTSbx-8" edge="1">
          <mxGeometry relative="1" as="geometry">
            <Array as="points">
              <mxPoint x="2583" y="520" />
              <mxPoint x="2173" y="520" />
            </Array>
          </mxGeometry>
        </mxCell>
        <mxCell id="UMbm4JfTCg6qUx0sTSbx-21" value="&lt;b style=&quot;font-size: 24px&quot;&gt;1138&lt;br&gt;&lt;/b&gt;" style="shape=mxgraph.signs.tech.cell_phone;html=1;pointerEvents=1;strokeColor=none;verticalLabelPosition=top;verticalAlign=bottom;align=center;fillColor=#000099;labelPosition=center;fontColor=#000099;" parent="M4cywnT3TZyjQohuFBCj-1" vertex="1">
          <mxGeometry x="2560" y="290" width="47" height="98" as="geometry" />
        </mxCell>
        <mxCell id="EndkMGnYIv0Gp6CMNFBP-1" style="edgeStyle=orthogonalEdgeStyle;rounded=0;orthogonalLoop=1;jettySize=auto;html=1;exitX=0.5;exitY=1;exitDx=0;exitDy=0;exitPerimeter=0;entryX=0.5;entryY=0.125;entryDx=0;entryDy=0;entryPerimeter=0;dashed=1;strokeWidth=2;" parent="M4cywnT3TZyjQohuFBCj-1" source="UMbm4JfTCg6qUx0sTSbx-23" target="UMbm4JfTCg6qUx0sTSbx-6" edge="1">
          <mxGeometry relative="1" as="geometry">
            <Array as="points">
              <mxPoint x="3603" y="80" />
              <mxPoint x="3493" y="80" />
            </Array>
          </mxGeometry>
        </mxCell>
        <mxCell id="UMbm4JfTCg6qUx0sTSbx-23" value="&lt;b style=&quot;font-size: 24px&quot;&gt;1701&lt;br&gt;สหภาพ&lt;br&gt;&lt;/b&gt;" style="shape=mxgraph.signs.tech.cell_phone;html=1;pointerEvents=1;strokeColor=none;verticalLabelPosition=top;verticalAlign=bottom;align=center;fillColor=#000099;labelPosition=center;fontColor=#000099;" parent="M4cywnT3TZyjQohuFBCj-1" vertex="1">
          <mxGeometry x="3580" y="-80" width="47" height="98" as="geometry" />
        </mxCell>
        <mxCell id="EndkMGnYIv0Gp6CMNFBP-0" style="edgeStyle=orthogonalEdgeStyle;rounded=0;orthogonalLoop=1;jettySize=auto;html=1;exitX=0.5;exitY=1;exitDx=0;exitDy=0;exitPerimeter=0;entryX=0.5;entryY=0.125;entryDx=0;entryDy=0;entryPerimeter=0;dashed=1;strokeWidth=2;" parent="M4cywnT3TZyjQohuFBCj-1" source="UMbm4JfTCg6qUx0sTSbx-24" target="UMbm4JfTCg6qUx0sTSbx-6" edge="1">
          <mxGeometry relative="1" as="geometry" />
        </mxCell>
        <mxCell id="UMbm4JfTCg6qUx0sTSbx-24" value="&lt;b style=&quot;font-size: 24px&quot;&gt;1123&lt;br&gt;กรุงไทย&lt;br&gt;&lt;/b&gt;" style="shape=mxgraph.signs.tech.cell_phone;html=1;pointerEvents=1;strokeColor=none;verticalLabelPosition=top;verticalAlign=bottom;align=center;fillColor=#000099;labelPosition=center;fontColor=#000099;" parent="M4cywnT3TZyjQohuFBCj-1" vertex="1">
          <mxGeometry x="3470" y="-80" width="47" height="98" as="geometry" />
        </mxCell>
        <mxCell id="EndkMGnYIv0Gp6CMNFBP-3" style="edgeStyle=orthogonalEdgeStyle;rounded=0;orthogonalLoop=1;jettySize=auto;html=1;exitX=0.5;exitY=1;exitDx=0;exitDy=0;exitPerimeter=0;entryX=0.5;entryY=0.125;entryDx=0;entryDy=0;entryPerimeter=0;dashed=1;strokeWidth=2;" parent="M4cywnT3TZyjQohuFBCj-1" source="UMbm4JfTCg6qUx0sTSbx-25" target="UMbm4JfTCg6qUx0sTSbx-6" edge="1">
          <mxGeometry relative="1" as="geometry">
            <Array as="points">
              <mxPoint x="3714" y="80" />
              <mxPoint x="3494" y="80" />
            </Array>
          </mxGeometry>
        </mxCell>
        <mxCell id="UMbm4JfTCg6qUx0sTSbx-25" value="&lt;b style=&quot;font-size: 24px&quot;&gt;1870&lt;br&gt;ผู้สูงอายุ&lt;br&gt;&lt;/b&gt;" style="shape=mxgraph.signs.tech.cell_phone;html=1;pointerEvents=1;strokeColor=none;verticalLabelPosition=top;verticalAlign=bottom;align=center;fillColor=#000099;labelPosition=center;fontColor=#000099;" parent="M4cywnT3TZyjQohuFBCj-1" vertex="1">
          <mxGeometry x="3690" y="-80" width="47" height="98" as="geometry" />
        </mxCell>
        <mxCell id="M4cywnT3TZyjQohuFBCj-2" value="Network" style="locked=1;" parent="f-TOPqAcIMhOfcNf-VaI-0" visible="0" />
        <mxCell id="JTG5abJiaNvAfYww_Hae-1" style="edgeStyle=orthogonalEdgeStyle;rounded=0;orthogonalLoop=1;jettySize=auto;html=1;exitX=0.5;exitY=1;exitDx=0;exitDy=0;strokeWidth=10;strokeColor=#99CCFF;" parent="M4cywnT3TZyjQohuFBCj-2" source="JTG5abJiaNvAfYww_Hae-0" target="xurGcQcXW0GNTpY4zVYj-101" edge="1">
          <mxGeometry relative="1" as="geometry" />
        </mxCell>
        <mxCell id="9vD16WFtAsydq0wS-kQd-0" value="CAT Telecom&lt;br&gt;192.168.100.1" style="pointerEvents=1;shadow=0;dashed=0;html=1;strokeColor=none;fillColor=#505050;labelPosition=center;verticalLabelPosition=bottom;verticalAlign=top;outlineConnect=0;align=center;shape=mxgraph.office.devices.session_border_controller;fontSize=30;fontFamily=Tahoma;" parent="M4cywnT3TZyjQohuFBCj-2" vertex="1">
          <mxGeometry x="3560" y="1210" width="89" height="81" as="geometry" />
        </mxCell>
        <mxCell id="9vD16WFtAsydq0wS-kQd-1" value="TOT&lt;br&gt;192.168.0.1" style="pointerEvents=1;shadow=0;dashed=0;html=1;strokeColor=none;fillColor=#505050;labelPosition=center;verticalLabelPosition=bottom;verticalAlign=top;outlineConnect=0;align=center;shape=mxgraph.office.devices.session_border_controller;fontSize=30;fontFamily=Tahoma;" parent="M4cywnT3TZyjQohuFBCj-2" vertex="1">
          <mxGeometry x="3560" y="1039" width="89" height="81" as="geometry" />
        </mxCell>
        <mxCell id="9vD16WFtAsydq0wS-kQd-7" value="" style="html=1;strokeWidth=1;shadow=0;dashed=0;shape=mxgraph.ios7.misc.wifi;fillColor=#007AFF;strokeColor=none;buttonText=;strokeColor2=#222222;fontColor=#222222;fontSize=8;verticalLabelPosition=bottom;verticalAlign=top;align=center;aspect=fixed;" parent="M4cywnT3TZyjQohuFBCj-2" vertex="1">
          <mxGeometry x="410" y="1000" width="80" height="80" as="geometry" />
        </mxCell>
        <mxCell id="JTG5abJiaNvAfYww_Hae-2" style="edgeStyle=orthogonalEdgeStyle;rounded=0;orthogonalLoop=1;jettySize=auto;html=1;exitX=1;exitY=0.5;exitDx=0;exitDy=0;strokeWidth=10;strokeColor=#99CCFF;" parent="M4cywnT3TZyjQohuFBCj-2" source="JTG5abJiaNvAfYww_Hae-0" target="xurGcQcXW0GNTpY4zVYj-102" edge="1">
          <mxGeometry relative="1" as="geometry" />
        </mxCell>
        <mxCell id="JTG5abJiaNvAfYww_Hae-3" style="edgeStyle=orthogonalEdgeStyle;rounded=0;orthogonalLoop=1;jettySize=auto;html=1;exitX=0;exitY=0.5;exitDx=0;exitDy=0;strokeWidth=10;strokeColor=#99CCFF;" parent="M4cywnT3TZyjQohuFBCj-2" source="JTG5abJiaNvAfYww_Hae-0" target="xurGcQcXW0GNTpY4zVYj-100" edge="1">
          <mxGeometry relative="1" as="geometry" />
        </mxCell>
        <mxCell id="JTG5abJiaNvAfYww_Hae-0" value="" style="aspect=fixed;perimeter=ellipsePerimeter;html=1;align=center;shadow=0;dashed=0;spacingTop=3;image;image=img/lib/active_directory/wiring_hub.svg;" parent="M4cywnT3TZyjQohuFBCj-2" vertex="1">
          <mxGeometry x="390" y="66.2" width="120" height="81.6" as="geometry" />
        </mxCell>
        <mxCell id="JTG5abJiaNvAfYww_Hae-5" style="edgeStyle=orthogonalEdgeStyle;rounded=0;orthogonalLoop=1;jettySize=auto;html=1;exitX=0.5;exitY=1;exitDx=0;exitDy=0;strokeWidth=10;strokeColor=#99CCFF;" parent="M4cywnT3TZyjQohuFBCj-2" source="JTG5abJiaNvAfYww_Hae-4" target="xurGcQcXW0GNTpY4zVYj-126" edge="1">
          <mxGeometry relative="1" as="geometry" />
        </mxCell>
        <mxCell id="JTG5abJiaNvAfYww_Hae-6" style="edgeStyle=orthogonalEdgeStyle;rounded=0;orthogonalLoop=1;jettySize=auto;html=1;exitX=0.5;exitY=1;exitDx=0;exitDy=0;strokeWidth=10;strokeColor=#99CCFF;" parent="M4cywnT3TZyjQohuFBCj-2" source="JTG5abJiaNvAfYww_Hae-4" target="xurGcQcXW0GNTpY4zVYj-114" edge="1">
          <mxGeometry relative="1" as="geometry" />
        </mxCell>
        <mxCell id="JTG5abJiaNvAfYww_Hae-7" style="edgeStyle=orthogonalEdgeStyle;rounded=0;orthogonalLoop=1;jettySize=auto;html=1;exitX=0.5;exitY=1;exitDx=0;exitDy=0;strokeWidth=10;strokeColor=#99CCFF;" parent="M4cywnT3TZyjQohuFBCj-2" source="JTG5abJiaNvAfYww_Hae-4" target="xurGcQcXW0GNTpY4zVYj-128" edge="1">
          <mxGeometry relative="1" as="geometry" />
        </mxCell>
        <mxCell id="JTG5abJiaNvAfYww_Hae-8" style="edgeStyle=orthogonalEdgeStyle;rounded=0;orthogonalLoop=1;jettySize=auto;html=1;exitX=0.5;exitY=1;exitDx=0;exitDy=0;strokeWidth=10;strokeColor=#99CCFF;" parent="M4cywnT3TZyjQohuFBCj-2" source="JTG5abJiaNvAfYww_Hae-4" target="xurGcQcXW0GNTpY4zVYj-118" edge="1">
          <mxGeometry relative="1" as="geometry" />
        </mxCell>
        <mxCell id="JTG5abJiaNvAfYww_Hae-4" value="" style="aspect=fixed;perimeter=ellipsePerimeter;html=1;align=center;shadow=0;dashed=0;spacingTop=3;image;image=img/lib/active_directory/wiring_hub.svg;" parent="M4cywnT3TZyjQohuFBCj-2" vertex="1">
          <mxGeometry x="1820" y="66.2" width="120" height="81.6" as="geometry" />
        </mxCell>
        <mxCell id="EndkMGnYIv0Gp6CMNFBP-14" style="edgeStyle=orthogonalEdgeStyle;rounded=0;orthogonalLoop=1;jettySize=auto;html=1;exitX=0;exitY=0.5;exitDx=0;exitDy=0;strokeColor=#99CCFF;strokeWidth=10;entryX=0;entryY=0.5;entryDx=0;entryDy=0;entryPerimeter=0;" parent="M4cywnT3TZyjQohuFBCj-2" source="JTG5abJiaNvAfYww_Hae-9" target="p7U41ayXRWuReT35flp4-27" edge="1">
          <mxGeometry relative="1" as="geometry">
            <Array as="points">
              <mxPoint x="3026" y="941" />
              <mxPoint x="2880" y="940" />
            </Array>
          </mxGeometry>
        </mxCell>
        <mxCell id="EndkMGnYIv0Gp6CMNFBP-15" style="edgeStyle=orthogonalEdgeStyle;rounded=0;orthogonalLoop=1;jettySize=auto;html=1;exitX=0;exitY=0.5;exitDx=0;exitDy=0;strokeColor=#99CCFF;strokeWidth=10;" parent="M4cywnT3TZyjQohuFBCj-2" source="JTG5abJiaNvAfYww_Hae-9" target="xurGcQcXW0GNTpY4zVYj-141" edge="1">
          <mxGeometry relative="1" as="geometry">
            <Array as="points">
              <mxPoint x="3050" y="941" />
              <mxPoint x="3050" y="1245" />
            </Array>
          </mxGeometry>
        </mxCell>
        <mxCell id="EndkMGnYIv0Gp6CMNFBP-16" style="edgeStyle=orthogonalEdgeStyle;rounded=0;orthogonalLoop=1;jettySize=auto;html=1;exitX=0;exitY=0.5;exitDx=0;exitDy=0;strokeColor=#99CCFF;strokeWidth=10;" parent="M4cywnT3TZyjQohuFBCj-2" source="JTG5abJiaNvAfYww_Hae-9" target="TDAQE0q-f55wZVB_y347-11" edge="1">
          <mxGeometry relative="1" as="geometry">
            <Array as="points">
              <mxPoint x="3050" y="941" />
              <mxPoint x="3050" y="645" />
            </Array>
          </mxGeometry>
        </mxCell>
        <mxCell id="JTG5abJiaNvAfYww_Hae-9" value="" style="aspect=fixed;perimeter=ellipsePerimeter;html=1;align=center;shadow=0;dashed=0;spacingTop=3;image;image=img/lib/active_directory/wiring_hub.svg;" parent="M4cywnT3TZyjQohuFBCj-2" vertex="1">
          <mxGeometry x="3110" y="900" width="120" height="81.6" as="geometry" />
        </mxCell>
        <mxCell id="JTG5abJiaNvAfYww_Hae-15" style="edgeStyle=orthogonalEdgeStyle;rounded=0;orthogonalLoop=1;jettySize=auto;html=1;exitX=0.5;exitY=1;exitDx=0;exitDy=0;strokeWidth=10;strokeColor=#99CCFF;" parent="M4cywnT3TZyjQohuFBCj-2" source="JTG5abJiaNvAfYww_Hae-14" target="TDAQE0q-f55wZVB_y347-8" edge="1">
          <mxGeometry relative="1" as="geometry" />
        </mxCell>
        <mxCell id="JTG5abJiaNvAfYww_Hae-16" style="edgeStyle=orthogonalEdgeStyle;rounded=0;orthogonalLoop=1;jettySize=auto;html=1;exitX=0.5;exitY=1;exitDx=0;exitDy=0;strokeWidth=10;strokeColor=#99CCFF;" parent="M4cywnT3TZyjQohuFBCj-2" source="JTG5abJiaNvAfYww_Hae-14" target="xurGcQcXW0GNTpY4zVYj-130" edge="1">
          <mxGeometry relative="1" as="geometry" />
        </mxCell>
        <mxCell id="JTG5abJiaNvAfYww_Hae-14" value="" style="aspect=fixed;perimeter=ellipsePerimeter;html=1;align=center;shadow=0;dashed=0;spacingTop=3;image;image=img/lib/active_directory/wiring_hub.svg;" parent="M4cywnT3TZyjQohuFBCj-2" vertex="1">
          <mxGeometry x="500" y="998.4" width="120" height="81.6" as="geometry" />
        </mxCell>
        <mxCell id="EndkMGnYIv0Gp6CMNFBP-17" style="edgeStyle=orthogonalEdgeStyle;rounded=0;orthogonalLoop=1;jettySize=auto;html=1;exitX=1;exitY=0.5;exitDx=0;exitDy=0;strokeColor=#99CCFF;strokeWidth=10;" parent="M4cywnT3TZyjQohuFBCj-2" source="JTG5abJiaNvAfYww_Hae-17" target="xurGcQcXW0GNTpY4zVYj-147" edge="1">
          <mxGeometry relative="1" as="geometry">
            <Array as="points">
              <mxPoint x="690" y="1411" />
              <mxPoint x="690" y="1845" />
            </Array>
          </mxGeometry>
        </mxCell>
        <mxCell id="EndkMGnYIv0Gp6CMNFBP-18" style="edgeStyle=orthogonalEdgeStyle;rounded=0;orthogonalLoop=1;jettySize=auto;html=1;exitX=1;exitY=0.5;exitDx=0;exitDy=0;strokeColor=#99CCFF;strokeWidth=10;" parent="M4cywnT3TZyjQohuFBCj-2" source="JTG5abJiaNvAfYww_Hae-17" target="xurGcQcXW0GNTpY4zVYj-145" edge="1">
          <mxGeometry relative="1" as="geometry">
            <Array as="points">
              <mxPoint x="690" y="1411" />
              <mxPoint x="690" y="1545" />
            </Array>
          </mxGeometry>
        </mxCell>
        <mxCell id="JTG5abJiaNvAfYww_Hae-17" value="" style="aspect=fixed;perimeter=ellipsePerimeter;html=1;align=center;shadow=0;dashed=0;spacingTop=3;image;image=img/lib/active_directory/wiring_hub.svg;" parent="M4cywnT3TZyjQohuFBCj-2" vertex="1">
          <mxGeometry x="790" y="1370" width="120" height="81.6" as="geometry" />
        </mxCell>
        <mxCell id="JTG5abJiaNvAfYww_Hae-21" style="edgeStyle=orthogonalEdgeStyle;rounded=0;orthogonalLoop=1;jettySize=auto;html=1;exitX=0;exitY=0.5;exitDx=0;exitDy=0;strokeWidth=10;strokeColor=#99CCFF;" parent="M4cywnT3TZyjQohuFBCj-2" source="JTG5abJiaNvAfYww_Hae-20" target="xurGcQcXW0GNTpY4zVYj-161" edge="1">
          <mxGeometry relative="1" as="geometry">
            <Array as="points">
              <mxPoint x="2860" y="1711" />
            </Array>
          </mxGeometry>
        </mxCell>
        <mxCell id="EndkMGnYIv0Gp6CMNFBP-8" style="edgeStyle=orthogonalEdgeStyle;rounded=0;orthogonalLoop=1;jettySize=auto;html=1;exitX=0;exitY=0.5;exitDx=0;exitDy=0;strokeColor=#99CCFF;strokeWidth=10;" parent="M4cywnT3TZyjQohuFBCj-2" source="JTG5abJiaNvAfYww_Hae-20" target="xurGcQcXW0GNTpY4zVYj-154" edge="1">
          <mxGeometry relative="1" as="geometry" />
        </mxCell>
        <mxCell id="JTG5abJiaNvAfYww_Hae-20" value="" style="aspect=fixed;perimeter=ellipsePerimeter;html=1;align=center;shadow=0;dashed=0;spacingTop=3;image;image=img/lib/active_directory/wiring_hub.svg;" parent="M4cywnT3TZyjQohuFBCj-2" vertex="1">
          <mxGeometry x="3300" y="1670" width="120" height="81.6" as="geometry" />
        </mxCell>
        <mxCell id="EndkMGnYIv0Gp6CMNFBP-26" value="" style="html=1;strokeWidth=1;shadow=0;dashed=0;shape=mxgraph.ios7.misc.wifi;fillColor=#007AFF;strokeColor=none;buttonText=;strokeColor2=#222222;fontColor=#222222;fontSize=8;verticalLabelPosition=bottom;verticalAlign=top;align=center;aspect=fixed;" parent="M4cywnT3TZyjQohuFBCj-2" vertex="1">
          <mxGeometry x="2000" y="610" width="80" height="80" as="geometry" />
        </mxCell>
        <mxCell id="EndkMGnYIv0Gp6CMNFBP-27" value="" style="html=1;strokeWidth=1;shadow=0;dashed=0;shape=mxgraph.ios7.misc.wifi;fillColor=#007AFF;strokeColor=none;buttonText=;strokeColor2=#222222;fontColor=#222222;fontSize=8;verticalLabelPosition=bottom;verticalAlign=top;align=center;aspect=fixed;" parent="M4cywnT3TZyjQohuFBCj-2" vertex="1">
          <mxGeometry x="2680" y="1410" width="80" height="80" as="geometry" />
        </mxCell>
        <mxCell id="EndkMGnYIv0Gp6CMNFBP-28" value="" style="html=1;strokeWidth=1;shadow=0;dashed=0;shape=mxgraph.ios7.misc.wifi;fillColor=#007AFF;strokeColor=none;buttonText=;strokeColor2=#222222;fontColor=#222222;fontSize=8;verticalLabelPosition=bottom;verticalAlign=top;align=center;aspect=fixed;" parent="M4cywnT3TZyjQohuFBCj-2" vertex="1">
          <mxGeometry x="3430" y="1130" width="80" height="80" as="geometry" />
        </mxCell>
        <mxCell id="W_UPt4zRYAUl43Yc6QiR-3" value="PC" style="locked=1;" parent="f-TOPqAcIMhOfcNf-VaI-0" />
        <mxCell id="xurGcQcXW0GNTpY4zVYj-100" value="DELL-001&lt;br&gt;220.220.220.55" style="pointerEvents=1;shadow=0;dashed=0;html=1;strokeColor=none;fillColor=#505050;labelPosition=center;verticalLabelPosition=bottom;verticalAlign=top;outlineConnect=0;align=center;shape=mxgraph.office.devices.lcd_monitor;fontSize=30;fontFamily=Tahoma;" parent="W_UPt4zRYAUl43Yc6QiR-3" vertex="1">
          <mxGeometry y="300" width="100" height="90" as="geometry" />
        </mxCell>
        <mxCell id="xurGcQcXW0GNTpY4zVYj-101" value="DELL-002&lt;br&gt;220.220.220.53" style="pointerEvents=1;shadow=0;dashed=0;html=1;strokeColor=none;fillColor=#505050;labelPosition=center;verticalLabelPosition=bottom;verticalAlign=top;outlineConnect=0;align=center;shape=mxgraph.office.devices.lcd_monitor;fontSize=30;fontFamily=Tahoma;" parent="W_UPt4zRYAUl43Yc6QiR-3" vertex="1">
          <mxGeometry x="400" y="300" width="100" height="90" as="geometry" />
        </mxCell>
        <mxCell id="xurGcQcXW0GNTpY4zVYj-102" value="DELL-003&lt;br&gt;220.220.220.54" style="pointerEvents=1;shadow=0;dashed=0;html=1;strokeColor=none;fillColor=#505050;labelPosition=center;verticalLabelPosition=bottom;verticalAlign=top;outlineConnect=0;align=center;shape=mxgraph.office.devices.lcd_monitor;fontSize=30;fontFamily=Tahoma;" parent="W_UPt4zRYAUl43Yc6QiR-3" vertex="1">
          <mxGeometry x="800" y="300" width="100" height="90" as="geometry" />
        </mxCell>
        <mxCell id="xurGcQcXW0GNTpY4zVYj-108" value="DELL-004&lt;br&gt;220.220.220.6" style="pointerEvents=1;shadow=0;dashed=0;html=1;strokeColor=none;fillColor=#505050;labelPosition=center;verticalLabelPosition=bottom;verticalAlign=top;outlineConnect=0;align=center;shape=mxgraph.office.devices.lcd_monitor;fontSize=30;fontFamily=Tahoma;" parent="W_UPt4zRYAUl43Yc6QiR-3" vertex="1">
          <mxGeometry y="600" width="100" height="90" as="geometry" />
        </mxCell>
        <mxCell id="xurGcQcXW0GNTpY4zVYj-110" value="DELL-019" style="pointerEvents=1;shadow=0;dashed=0;html=1;strokeColor=none;fillColor=#505050;labelPosition=center;verticalLabelPosition=bottom;verticalAlign=top;outlineConnect=0;align=center;shape=mxgraph.office.devices.lcd_monitor;fontSize=30;fontFamily=Tahoma;" parent="W_UPt4zRYAUl43Yc6QiR-3" vertex="1">
          <mxGeometry y="1500" width="100" height="90" as="geometry" />
        </mxCell>
        <mxCell id="xurGcQcXW0GNTpY4zVYj-112" value="DELL-PU" style="pointerEvents=1;shadow=0;dashed=0;html=1;strokeColor=none;fillColor=#505050;labelPosition=center;verticalLabelPosition=bottom;verticalAlign=top;outlineConnect=0;align=center;shape=mxgraph.office.devices.lcd_monitor;fontSize=30;fontFamily=Tahoma;" parent="W_UPt4zRYAUl43Yc6QiR-3" vertex="1">
          <mxGeometry y="900" width="100" height="90" as="geometry" />
        </mxCell>
        <mxCell id="xurGcQcXW0GNTpY4zVYj-114" value="DELL-008&lt;br&gt;220.220.220.104" style="pointerEvents=1;shadow=0;dashed=0;html=1;strokeColor=none;fillColor=#505050;labelPosition=center;verticalLabelPosition=bottom;verticalAlign=top;outlineConnect=0;align=center;shape=mxgraph.office.devices.lcd_monitor;fontSize=30;fontFamily=Tahoma;" parent="W_UPt4zRYAUl43Yc6QiR-3" vertex="1">
          <mxGeometry x="1600" y="300" width="100" height="90" as="geometry" />
        </mxCell>
        <mxCell id="xurGcQcXW0GNTpY4zVYj-116" value="DELL-011&lt;br&gt;220.220.220.103" style="pointerEvents=1;shadow=0;dashed=0;html=1;strokeColor=none;fillColor=#505050;labelPosition=center;verticalLabelPosition=bottom;verticalAlign=top;outlineConnect=0;align=center;shape=mxgraph.office.devices.lcd_monitor;fontSize=30;fontFamily=Tahoma;" parent="W_UPt4zRYAUl43Yc6QiR-3" vertex="1">
          <mxGeometry x="1600" y="900" width="100" height="90" as="geometry" />
        </mxCell>
        <mxCell id="xurGcQcXW0GNTpY4zVYj-118" value="DELL-010&lt;br&gt;220.220.220.105" style="pointerEvents=1;shadow=0;dashed=0;html=1;strokeColor=none;fillColor=#505050;labelPosition=center;verticalLabelPosition=bottom;verticalAlign=top;outlineConnect=0;align=center;shape=mxgraph.office.devices.lcd_monitor;fontSize=30;fontFamily=Tahoma;" parent="W_UPt4zRYAUl43Yc6QiR-3" vertex="1">
          <mxGeometry x="2400" y="300" width="100" height="90" as="geometry" />
        </mxCell>
        <mxCell id="xurGcQcXW0GNTpY4zVYj-120" value="DELL-014&lt;br&gt;220.220.220.162" style="pointerEvents=1;shadow=0;dashed=0;html=1;strokeColor=none;fillColor=#505050;labelPosition=center;verticalLabelPosition=bottom;verticalAlign=top;outlineConnect=0;align=center;shape=mxgraph.office.devices.lcd_monitor;fontSize=30;fontFamily=Tahoma;" parent="W_UPt4zRYAUl43Yc6QiR-3" vertex="1">
          <mxGeometry x="2400" y="600" width="100" height="90" as="geometry" />
        </mxCell>
        <mxCell id="xurGcQcXW0GNTpY4zVYj-123" value="DELL-028" style="pointerEvents=1;shadow=0;dashed=0;html=1;strokeColor=none;fillColor=#505050;labelPosition=center;verticalLabelPosition=bottom;verticalAlign=top;outlineConnect=0;align=center;shape=mxgraph.office.devices.lcd_monitor;fontSize=30;fontFamily=Tahoma;direction=east;" parent="W_UPt4zRYAUl43Yc6QiR-3" vertex="1">
          <mxGeometry x="3600" y="300" width="100" height="90" as="geometry" />
        </mxCell>
        <mxCell id="xurGcQcXW0GNTpY4zVYj-125" value="Desktop&lt;br&gt;220.220.220.1" style="pointerEvents=1;shadow=0;dashed=0;html=1;strokeColor=none;fillColor=#505050;labelPosition=center;verticalLabelPosition=bottom;verticalAlign=top;outlineConnect=0;align=center;shape=mxgraph.office.devices.lcd_monitor;fontSize=30;fontFamily=Tahoma;" parent="W_UPt4zRYAUl43Yc6QiR-3" vertex="1">
          <mxGeometry x="2800" y="-150" width="100" height="90" as="geometry" />
        </mxCell>
        <mxCell id="xurGcQcXW0GNTpY4zVYj-126" value="DELL-009&lt;br&gt;220.220.220.110" style="pointerEvents=1;shadow=0;dashed=0;html=1;strokeColor=none;fillColor=#505050;labelPosition=center;verticalLabelPosition=bottom;verticalAlign=top;outlineConnect=0;align=center;shape=mxgraph.office.devices.lcd_monitor;fontSize=30;fontFamily=Tahoma;" parent="W_UPt4zRYAUl43Yc6QiR-3" vertex="1">
          <mxGeometry x="2000" y="300" width="100" height="90" as="geometry" />
        </mxCell>
        <mxCell id="xurGcQcXW0GNTpY4zVYj-128" value="DELL-007&lt;br&gt;220.220.220.151" style="pointerEvents=1;shadow=0;dashed=0;html=1;strokeColor=none;fillColor=#505050;labelPosition=center;verticalLabelPosition=bottom;verticalAlign=top;outlineConnect=0;align=center;shape=mxgraph.office.devices.lcd_monitor;fontSize=30;fontFamily=Tahoma;" parent="W_UPt4zRYAUl43Yc6QiR-3" vertex="1">
          <mxGeometry x="1200" y="300" width="100" height="90" as="geometry" />
        </mxCell>
        <mxCell id="xurGcQcXW0GNTpY4zVYj-132" value="DELL-015&lt;br&gt;220.220.220.152" style="pointerEvents=1;shadow=0;dashed=0;html=1;strokeColor=none;fillColor=#505050;labelPosition=center;verticalLabelPosition=bottom;verticalAlign=top;outlineConnect=0;align=center;shape=mxgraph.office.devices.lcd_monitor;fontSize=30;fontFamily=Tahoma;" parent="W_UPt4zRYAUl43Yc6QiR-3" vertex="1">
          <mxGeometry x="2800" y="900" width="100" height="90" as="geometry" />
        </mxCell>
        <mxCell id="xurGcQcXW0GNTpY4zVYj-135" value="DELL-023&lt;br&gt;220.220.220.29" style="pointerEvents=1;shadow=0;dashed=0;html=1;strokeColor=none;fillColor=#505050;labelPosition=center;verticalLabelPosition=bottom;verticalAlign=top;outlineConnect=0;align=center;shape=mxgraph.office.devices.lcd_monitor;fontSize=30;fontFamily=Tahoma;" parent="W_UPt4zRYAUl43Yc6QiR-3" vertex="1">
          <mxGeometry x="2800" y="1500" width="100" height="90" as="geometry" />
        </mxCell>
        <mxCell id="xurGcQcXW0GNTpY4zVYj-137" value="DELL-00X&lt;br&gt;220.220.220.52" style="pointerEvents=1;shadow=0;dashed=0;html=1;strokeColor=none;fillColor=#0000FF;labelPosition=center;verticalLabelPosition=bottom;verticalAlign=top;outlineConnect=0;align=center;shape=mxgraph.office.devices.lcd_monitor;fontSize=30;fontFamily=Tahoma;" parent="W_UPt4zRYAUl43Yc6QiR-3" vertex="1">
          <mxGeometry x="3200" y="1500" width="100" height="90" as="geometry" />
        </mxCell>
        <mxCell id="xurGcQcXW0GNTpY4zVYj-139" value="DELL-00M" style="pointerEvents=1;shadow=0;dashed=0;html=1;strokeColor=none;fillColor=#505050;labelPosition=center;verticalLabelPosition=bottom;verticalAlign=top;outlineConnect=0;align=center;shape=mxgraph.office.devices.lcd_monitor;fontSize=30;fontFamily=Tahoma;" parent="W_UPt4zRYAUl43Yc6QiR-3" vertex="1">
          <mxGeometry x="2400" y="1800" width="100" height="90" as="geometry" />
        </mxCell>
        <mxCell id="xurGcQcXW0GNTpY4zVYj-141" value="DELL-030&lt;br&gt;220.220.220.168" style="pointerEvents=1;shadow=0;dashed=0;html=1;strokeColor=none;fillColor=#505050;labelPosition=center;verticalLabelPosition=bottom;verticalAlign=top;outlineConnect=0;align=center;shape=mxgraph.office.devices.lcd_monitor;fontSize=30;fontFamily=Tahoma;" parent="W_UPt4zRYAUl43Yc6QiR-3" vertex="1">
          <mxGeometry x="2800" y="1200" width="100" height="90" as="geometry" />
        </mxCell>
        <mxCell id="xurGcQcXW0GNTpY4zVYj-143" value="DELL-005&lt;br&gt;" style="pointerEvents=1;shadow=0;dashed=0;html=1;strokeColor=none;fillColor=#505050;labelPosition=center;verticalLabelPosition=bottom;verticalAlign=top;outlineConnect=0;align=center;shape=mxgraph.office.devices.lcd_monitor;fontSize=30;fontFamily=Tahoma;" parent="W_UPt4zRYAUl43Yc6QiR-3" vertex="1">
          <mxGeometry x="400" y="600" width="100" height="90" as="geometry" />
        </mxCell>
        <mxCell id="xurGcQcXW0GNTpY4zVYj-145" value="DELL-017&lt;br&gt;220.220.220.125" style="pointerEvents=1;shadow=0;dashed=0;html=1;strokeColor=none;fillColor=#505050;labelPosition=center;verticalLabelPosition=bottom;verticalAlign=top;outlineConnect=0;align=center;shape=mxgraph.office.devices.lcd_monitor;fontSize=30;fontFamily=Tahoma;" parent="W_UPt4zRYAUl43Yc6QiR-3" vertex="1">
          <mxGeometry x="800" y="1500" width="100" height="90" as="geometry" />
        </mxCell>
        <mxCell id="xurGcQcXW0GNTpY4zVYj-147" value="DELL-016&lt;br&gt;220.220.220.100" style="pointerEvents=1;shadow=0;dashed=0;html=1;strokeColor=none;fillColor=#505050;labelPosition=center;verticalLabelPosition=bottom;verticalAlign=top;outlineConnect=0;align=center;shape=mxgraph.office.devices.lcd_monitor;fontSize=30;fontFamily=Tahoma;" parent="W_UPt4zRYAUl43Yc6QiR-3" vertex="1">
          <mxGeometry x="800" y="1800" width="100" height="90" as="geometry" />
        </mxCell>
        <mxCell id="xurGcQcXW0GNTpY4zVYj-149" value="DELL-021&lt;br&gt;" style="pointerEvents=1;shadow=0;dashed=0;html=1;strokeColor=none;fillColor=#505050;labelPosition=center;verticalLabelPosition=bottom;verticalAlign=top;outlineConnect=0;align=center;shape=mxgraph.office.devices.lcd_monitor;fontSize=30;fontFamily=Tahoma;" parent="W_UPt4zRYAUl43Yc6QiR-3" vertex="1">
          <mxGeometry x="1200" y="1500" width="100" height="90" as="geometry" />
        </mxCell>
        <mxCell id="xurGcQcXW0GNTpY4zVYj-151" value="DELL-029" style="pointerEvents=1;shadow=0;dashed=0;html=1;strokeColor=none;fillColor=#505050;labelPosition=center;verticalLabelPosition=bottom;verticalAlign=top;outlineConnect=0;align=center;shape=mxgraph.office.devices.lcd_monitor;fontSize=30;fontFamily=Tahoma;labelBackgroundColor=none;" parent="W_UPt4zRYAUl43Yc6QiR-3" vertex="1">
          <mxGeometry x="3600" y="-150" width="100" height="90" as="geometry" />
        </mxCell>
        <mxCell id="xurGcQcXW0GNTpY4zVYj-167" value="" style="group;fillColor=default;container=0;" parent="W_UPt4zRYAUl43Yc6QiR-3" vertex="1" connectable="0">
          <mxGeometry x="1600" y="600" width="100" height="90" as="geometry" />
        </mxCell>
        <mxCell id="xurGcQcXW0GNTpY4zVYj-171" style="edgeStyle=orthogonalEdgeStyle;rounded=0;orthogonalLoop=1;jettySize=auto;html=1;exitX=0.5;exitY=1;exitDx=0;exitDy=0;exitPerimeter=0;" parent="W_UPt4zRYAUl43Yc6QiR-3" edge="1">
          <mxGeometry relative="1" as="geometry">
            <mxPoint x="2035" y="1611" as="sourcePoint" />
            <mxPoint x="2035" y="1611" as="targetPoint" />
          </mxGeometry>
        </mxCell>
        <mxCell id="xurGcQcXW0GNTpY4zVYj-176" value="DELL-666&lt;br&gt;220.220.220.69" style="pointerEvents=1;shadow=0;dashed=0;html=1;strokeColor=none;labelPosition=center;verticalLabelPosition=bottom;verticalAlign=top;outlineConnect=0;align=center;shape=mxgraph.office.devices.lcd_monitor;fontSize=30;fontFamily=Tahoma;fillColor=#4D4D4D;" parent="W_UPt4zRYAUl43Yc6QiR-3" vertex="1">
          <mxGeometry x="2400" y="1500" width="100" height="90" as="geometry" />
        </mxCell>
        <mxCell id="xurGcQcXW0GNTpY4zVYj-161" value="MODEM&lt;br&gt;220.220.220.60" style="pointerEvents=1;shadow=0;dashed=0;html=1;strokeColor=none;fillColor=#505050;labelPosition=center;verticalLabelPosition=bottom;verticalAlign=top;outlineConnect=0;align=center;shape=mxgraph.office.devices.lcd_monitor;fontSize=30;fontFamily=Tahoma;" parent="W_UPt4zRYAUl43Yc6QiR-3" vertex="1">
          <mxGeometry x="2800" y="1800" width="100" height="90" as="geometry" />
        </mxCell>
        <mxCell id="p7U41ayXRWuReT35flp4-34" value="Funeral" style="pointerEvents=1;shadow=0;dashed=0;html=1;strokeColor=none;fillColor=#CC0000;labelPosition=center;verticalLabelPosition=bottom;verticalAlign=top;outlineConnect=0;align=center;shape=mxgraph.office.devices.lcd_monitor;fontSize=30;fontFamily=Tahoma;" parent="W_UPt4zRYAUl43Yc6QiR-3" vertex="1">
          <mxGeometry x="1600" y="1200" width="100" height="90" as="geometry" />
        </mxCell>
        <mxCell id="p7U41ayXRWuReT35flp4-35" value="Funeral" style="pointerEvents=1;shadow=0;dashed=0;html=1;strokeColor=none;fillColor=#CC0000;labelPosition=center;verticalLabelPosition=bottom;verticalAlign=top;outlineConnect=0;align=center;shape=mxgraph.office.devices.lcd_monitor;fontSize=30;fontFamily=Tahoma;" parent="W_UPt4zRYAUl43Yc6QiR-3" vertex="1">
          <mxGeometry x="2800" y="300" width="100" height="90" as="geometry" />
        </mxCell>
        <mxCell id="xurGcQcXW0GNTpY4zVYj-154" value="DELL-018&lt;br&gt;220.220.220.159" style="pointerEvents=1;shadow=0;dashed=0;html=1;strokeColor=none;fillColor=#505050;labelPosition=center;verticalLabelPosition=bottom;verticalAlign=top;outlineConnect=0;align=center;shape=mxgraph.office.devices.lcd_monitor;fontSize=30;fontFamily=Tahoma;" parent="W_UPt4zRYAUl43Yc6QiR-3" vertex="1">
          <mxGeometry x="3200" y="1800" width="100" height="90" as="geometry" />
        </mxCell>
        <mxCell id="xurGcQcXW0GNTpY4zVYj-168" value="SCOMWA-01" style="pointerEvents=1;shadow=0;dashed=0;html=1;strokeColor=none;labelPosition=center;verticalLabelPosition=bottom;verticalAlign=top;outlineConnect=0;align=center;shape=mxgraph.office.devices.lcd_monitor;fontSize=30;fontFamily=Tahoma;fillColor=#0000FF;" parent="W_UPt4zRYAUl43Yc6QiR-3" vertex="1">
          <mxGeometry x="1600" y="600" width="100" height="90" as="geometry" />
        </mxCell>
        <mxCell id="TDAQE0q-f55wZVB_y347-8" value="DELL-TOY&lt;br&gt;220.220.220.254" style="pointerEvents=1;shadow=0;dashed=0;html=1;strokeColor=none;fillColor=#505050;labelPosition=center;verticalLabelPosition=bottom;verticalAlign=top;outlineConnect=0;align=center;shape=mxgraph.office.devices.lcd_monitor;fontSize=30;fontFamily=Tahoma;" parent="W_UPt4zRYAUl43Yc6QiR-3" vertex="1">
          <mxGeometry x="400" y="1200" width="100" height="90" as="geometry" />
        </mxCell>
        <mxCell id="xurGcQcXW0GNTpY4zVYj-130" value="DELL-012&lt;br&gt;220.220.220.254" style="pointerEvents=1;shadow=0;dashed=0;html=1;strokeColor=none;fillColor=#505050;labelPosition=center;verticalLabelPosition=bottom;verticalAlign=top;outlineConnect=0;align=center;shape=mxgraph.office.devices.lcd_monitor;fontSize=30;fontFamily=Tahoma;" parent="W_UPt4zRYAUl43Yc6QiR-3" vertex="1">
          <mxGeometry y="1200" width="100" height="90" as="geometry" />
        </mxCell>
        <mxCell id="TDAQE0q-f55wZVB_y347-10" value="" style="group" parent="W_UPt4zRYAUl43Yc6QiR-3" vertex="1" connectable="0">
          <mxGeometry x="2800" y="600" width="100" height="90" as="geometry" />
        </mxCell>
        <mxCell id="TDAQE0q-f55wZVB_y347-11" value="DELL-013" style="pointerEvents=1;shadow=0;dashed=0;html=1;strokeColor=none;fillColor=#505050;labelPosition=center;verticalLabelPosition=bottom;verticalAlign=top;outlineConnect=0;align=center;shape=mxgraph.office.devices.lcd_monitor;fontSize=30;fontFamily=Tahoma;" parent="TDAQE0q-f55wZVB_y347-10" vertex="1">
          <mxGeometry width="100" height="90" as="geometry" />
        </mxCell>
        <mxCell id="xurGcQcXW0GNTpY4zVYj-158" value="DELL-026" style="pointerEvents=1;shadow=0;dashed=0;html=1;strokeColor=none;fillColor=#505050;labelPosition=center;verticalLabelPosition=bottom;verticalAlign=top;outlineConnect=0;align=center;shape=mxgraph.office.devices.lcd_monitor;fontSize=30;fontFamily=Tahoma;" parent="W_UPt4zRYAUl43Yc6QiR-3" vertex="1">
          <mxGeometry x="2000" y="1800" width="100" height="90" as="geometry" />
        </mxCell>
        <mxCell id="YS4ce7gFxmV2WK4-jLAW-4" value="Server&lt;br style=&quot;font-size: 30px;&quot;&gt;220.220.220.101" style="sketch=0;aspect=fixed;pointerEvents=1;shadow=0;dashed=0;html=1;strokeColor=none;labelPosition=center;verticalLabelPosition=bottom;verticalAlign=top;align=center;fillColor=#00188D;shape=mxgraph.azure.server_rack;fontSize=30;" parent="W_UPt4zRYAUl43Yc6QiR-3" vertex="1">
          <mxGeometry x="2000" y="1500" width="110" height="110" as="geometry" />
        </mxCell>
        <mxCell id="W_UPt4zRYAUl43Yc6QiR-2" value="Network (New)" style="locked=1;" parent="f-TOPqAcIMhOfcNf-VaI-0" />
        <mxCell id="8aye9MDtTIxuN-2nClFV-8" style="edgeStyle=orthogonalEdgeStyle;rounded=0;orthogonalLoop=1;jettySize=auto;html=1;strokeWidth=10;strokeColor=#97D077;" parent="W_UPt4zRYAUl43Yc6QiR-2" source="8aye9MDtTIxuN-2nClFV-1" target="8aye9MDtTIxuN-2nClFV-6" edge="1">
          <mxGeometry relative="1" as="geometry">
            <Array as="points">
              <mxPoint x="1020" y="1380" />
              <mxPoint x="1020" y="1430" />
              <mxPoint x="849" y="1430" />
            </Array>
          </mxGeometry>
        </mxCell>
        <mxCell id="8aye9MDtTIxuN-2nClFV-9" style="edgeStyle=orthogonalEdgeStyle;rounded=0;orthogonalLoop=1;jettySize=auto;html=1;strokeWidth=10;strokeColor=#97D077;" parent="W_UPt4zRYAUl43Yc6QiR-2" source="8aye9MDtTIxuN-2nClFV-1" target="8aye9MDtTIxuN-2nClFV-5" edge="1">
          <mxGeometry relative="1" as="geometry">
            <Array as="points">
              <mxPoint x="1020" y="1380" />
              <mxPoint x="1020" y="1730" />
              <mxPoint x="849" y="1730" />
            </Array>
          </mxGeometry>
        </mxCell>
        <mxCell id="YS4ce7gFxmV2WK4-jLAW-37" style="edgeStyle=orthogonalEdgeStyle;rounded=0;orthogonalLoop=1;jettySize=auto;html=1;strokeColor=#97D077;strokeWidth=10;fontSize=20;endArrow=classic;endFill=1;" parent="W_UPt4zRYAUl43Yc6QiR-2" source="8aye9MDtTIxuN-2nClFV-1" target="xurGcQcXW0GNTpY4zVYj-149" edge="1">
          <mxGeometry relative="1" as="geometry" />
        </mxCell>
        <mxCell id="8aye9MDtTIxuN-2nClFV-1" value="" style="sketch=0;pointerEvents=1;shadow=0;dashed=0;html=1;strokeColor=none;fillColor=#97D077;labelPosition=center;verticalLabelPosition=bottom;verticalAlign=top;outlineConnect=0;align=center;shape=mxgraph.office.devices.switch;aspect=fixed;" parent="W_UPt4zRYAUl43Yc6QiR-2" vertex="1">
          <mxGeometry x="1080" y="1360.72" width="120" height="39.28" as="geometry" />
        </mxCell>
        <mxCell id="8aye9MDtTIxuN-2nClFV-5" value="" style="sketch=0;pointerEvents=1;shadow=0;dashed=0;html=1;strokeColor=none;labelPosition=center;verticalLabelPosition=bottom;verticalAlign=top;outlineConnect=0;align=center;shape=mxgraph.office.security.lock_protected;fillColor=#7FBA42;" parent="W_UPt4zRYAUl43Yc6QiR-2" vertex="1">
          <mxGeometry x="830" y="1810" width="38" height="52" as="geometry" />
        </mxCell>
        <mxCell id="8aye9MDtTIxuN-2nClFV-6" value="" style="sketch=0;pointerEvents=1;shadow=0;dashed=0;html=1;strokeColor=none;labelPosition=center;verticalLabelPosition=bottom;verticalAlign=top;outlineConnect=0;align=center;shape=mxgraph.office.security.lock_protected;fillColor=#7FBA42;" parent="W_UPt4zRYAUl43Yc6QiR-2" vertex="1">
          <mxGeometry x="830" y="1510" width="38" height="52" as="geometry" />
        </mxCell>
        <mxCell id="8aye9MDtTIxuN-2nClFV-13" value="" style="sketch=0;pointerEvents=1;shadow=0;dashed=0;html=1;strokeColor=none;labelPosition=center;verticalLabelPosition=bottom;verticalAlign=top;outlineConnect=0;align=center;shape=mxgraph.office.security.lock_protected;fillColor=#7FBA42;" parent="W_UPt4zRYAUl43Yc6QiR-2" vertex="1">
          <mxGeometry x="430" y="1210" width="38" height="52" as="geometry" />
        </mxCell>
        <mxCell id="8aye9MDtTIxuN-2nClFV-18" value="" style="sketch=0;pointerEvents=1;shadow=0;dashed=0;html=1;strokeColor=none;labelPosition=center;verticalLabelPosition=bottom;verticalAlign=top;outlineConnect=0;align=center;shape=mxgraph.office.security.lock_protected;fillColor=#7FBA42;" parent="W_UPt4zRYAUl43Yc6QiR-2" vertex="1">
          <mxGeometry x="30" y="310" width="38" height="52" as="geometry" />
        </mxCell>
        <mxCell id="8aye9MDtTIxuN-2nClFV-25" value="" style="sketch=0;pointerEvents=1;shadow=0;dashed=0;html=1;strokeColor=none;labelPosition=center;verticalLabelPosition=bottom;verticalAlign=top;outlineConnect=0;align=center;shape=mxgraph.office.security.lock_protected;fillColor=#7FBA42;" parent="W_UPt4zRYAUl43Yc6QiR-2" vertex="1">
          <mxGeometry x="430" y="310" width="38" height="52" as="geometry" />
        </mxCell>
        <mxCell id="8aye9MDtTIxuN-2nClFV-27" value="" style="sketch=0;pointerEvents=1;shadow=0;dashed=0;html=1;strokeColor=none;labelPosition=center;verticalLabelPosition=bottom;verticalAlign=top;outlineConnect=0;align=center;shape=mxgraph.office.security.lock_protected;fillColor=#7FBA42;" parent="W_UPt4zRYAUl43Yc6QiR-2" vertex="1">
          <mxGeometry x="30" y="610" width="38" height="52" as="geometry" />
        </mxCell>
        <mxCell id="8aye9MDtTIxuN-2nClFV-28" value="" style="sketch=0;pointerEvents=1;shadow=0;dashed=0;html=1;strokeColor=none;labelPosition=center;verticalLabelPosition=bottom;verticalAlign=top;outlineConnect=0;align=center;shape=mxgraph.office.security.lock_protected;fillColor=#7FBA42;" parent="W_UPt4zRYAUl43Yc6QiR-2" vertex="1">
          <mxGeometry x="830" y="310" width="38" height="52" as="geometry" />
        </mxCell>
        <mxCell id="8aye9MDtTIxuN-2nClFV-32" value="" style="sketch=0;pointerEvents=1;shadow=0;dashed=0;html=1;strokeColor=none;fillColor=#97D077;labelPosition=center;verticalLabelPosition=bottom;verticalAlign=top;outlineConnect=0;align=center;shape=mxgraph.office.devices.switch;aspect=fixed;" parent="W_UPt4zRYAUl43Yc6QiR-2" vertex="1">
          <mxGeometry x="1994" y="1110" width="120" height="39.28" as="geometry" />
        </mxCell>
        <mxCell id="8aye9MDtTIxuN-2nClFV-43" value="" style="sketch=0;pointerEvents=1;shadow=0;dashed=0;html=1;strokeColor=none;labelPosition=center;verticalLabelPosition=bottom;verticalAlign=top;outlineConnect=0;align=center;shape=mxgraph.office.security.lock_protected;fillColor=#7FBA42;" parent="W_UPt4zRYAUl43Yc6QiR-2" vertex="1">
          <mxGeometry x="2830" y="1811" width="38" height="52" as="geometry" />
        </mxCell>
        <mxCell id="8aye9MDtTIxuN-2nClFV-50" value="" style="sketch=0;pointerEvents=1;shadow=0;dashed=0;html=1;strokeColor=none;labelPosition=center;verticalLabelPosition=bottom;verticalAlign=top;outlineConnect=0;align=center;shape=mxgraph.office.security.lock_protected;fillColor=#7FBA42;" parent="W_UPt4zRYAUl43Yc6QiR-2" vertex="1">
          <mxGeometry x="3230" y="1810" width="38" height="52" as="geometry" />
        </mxCell>
        <mxCell id="8aye9MDtTIxuN-2nClFV-51" value="" style="sketch=0;pointerEvents=1;shadow=0;dashed=0;html=1;strokeColor=none;labelPosition=center;verticalLabelPosition=bottom;verticalAlign=top;outlineConnect=0;align=center;shape=mxgraph.office.security.lock_protected;fillColor=#7FBA42;" parent="W_UPt4zRYAUl43Yc6QiR-2" vertex="1">
          <mxGeometry x="3230" y="1510" width="38" height="52" as="geometry" />
        </mxCell>
        <mxCell id="8aye9MDtTIxuN-2nClFV-52" value="" style="sketch=0;pointerEvents=1;shadow=0;dashed=0;html=1;strokeColor=none;labelPosition=center;verticalLabelPosition=bottom;verticalAlign=top;outlineConnect=0;align=center;shape=mxgraph.office.security.lock_protected;fillColor=#7FBA42;" parent="W_UPt4zRYAUl43Yc6QiR-2" vertex="1">
          <mxGeometry x="2430" y="1810" width="38" height="52" as="geometry" />
        </mxCell>
        <mxCell id="8aye9MDtTIxuN-2nClFV-63" value="" style="sketch=0;pointerEvents=1;shadow=0;dashed=0;html=1;strokeColor=none;labelPosition=center;verticalLabelPosition=bottom;verticalAlign=top;outlineConnect=0;align=center;shape=mxgraph.office.security.lock_protected;fillColor=#7FBA42;" parent="W_UPt4zRYAUl43Yc6QiR-2" vertex="1">
          <mxGeometry x="1230" y="1510" width="38" height="52" as="geometry" />
        </mxCell>
        <mxCell id="Fcl9H4rcNKDT1mkGbeQJ-6" value="" style="html=1;verticalLabelPosition=bottom;align=center;labelBackgroundColor=#ffffff;verticalAlign=top;strokeWidth=2;strokeColor=#0080F0;shadow=0;dashed=0;shape=mxgraph.ios7.icons.globe;fillColor=none;" parent="W_UPt4zRYAUl43Yc6QiR-2" vertex="1">
          <mxGeometry x="2420" y="1510" width="60" height="50" as="geometry" />
        </mxCell>
        <mxCell id="Fcl9H4rcNKDT1mkGbeQJ-7" value="" style="html=1;verticalLabelPosition=bottom;align=center;labelBackgroundColor=#ffffff;verticalAlign=top;strokeWidth=2;strokeColor=#0080F0;shadow=0;dashed=0;shape=mxgraph.ios7.icons.globe;" parent="W_UPt4zRYAUl43Yc6QiR-2" vertex="1">
          <mxGeometry x="2820" y="1510" width="60" height="50" as="geometry" />
        </mxCell>
        <mxCell id="Fcl9H4rcNKDT1mkGbeQJ-8" value="" style="html=1;verticalLabelPosition=bottom;align=center;labelBackgroundColor=#ffffff;verticalAlign=top;strokeWidth=2;strokeColor=#0080F0;shadow=0;dashed=0;shape=mxgraph.ios7.icons.globe;fillColor=none;" parent="W_UPt4zRYAUl43Yc6QiR-2" vertex="1">
          <mxGeometry x="3220" y="1510" width="60" height="50" as="geometry" />
        </mxCell>
        <mxCell id="Fcl9H4rcNKDT1mkGbeQJ-9" value="" style="html=1;verticalLabelPosition=bottom;align=center;labelBackgroundColor=#ffffff;verticalAlign=top;strokeWidth=2;strokeColor=#0080F0;shadow=0;dashed=0;shape=mxgraph.ios7.icons.globe;fillColor=none;" parent="W_UPt4zRYAUl43Yc6QiR-2" vertex="1">
          <mxGeometry x="2819" y="1811" width="60" height="50" as="geometry" />
        </mxCell>
        <mxCell id="Fcl9H4rcNKDT1mkGbeQJ-10" value="" style="html=1;verticalLabelPosition=bottom;align=center;labelBackgroundColor=#ffffff;verticalAlign=top;strokeWidth=2;strokeColor=#0080F0;shadow=0;dashed=0;shape=mxgraph.ios7.icons.globe;fillColor=none;" parent="W_UPt4zRYAUl43Yc6QiR-2" vertex="1">
          <mxGeometry x="2420" y="1810" width="60" height="50" as="geometry" />
        </mxCell>
        <mxCell id="Fcl9H4rcNKDT1mkGbeQJ-11" value="" style="html=1;verticalLabelPosition=bottom;align=center;labelBackgroundColor=#ffffff;verticalAlign=top;strokeWidth=2;strokeColor=#0080F0;shadow=0;dashed=0;shape=mxgraph.ios7.icons.globe;" parent="W_UPt4zRYAUl43Yc6QiR-2" vertex="1">
          <mxGeometry x="2020" y="1810" width="60" height="50" as="geometry" />
        </mxCell>
        <mxCell id="Fcl9H4rcNKDT1mkGbeQJ-12" value="" style="html=1;verticalLabelPosition=bottom;align=center;labelBackgroundColor=#ffffff;verticalAlign=top;strokeWidth=2;strokeColor=#0080F0;shadow=0;dashed=0;shape=mxgraph.ios7.icons.globe;" parent="W_UPt4zRYAUl43Yc6QiR-2" vertex="1">
          <mxGeometry x="1620" y="610" width="60" height="50" as="geometry" />
        </mxCell>
        <mxCell id="Fcl9H4rcNKDT1mkGbeQJ-13" value="" style="html=1;verticalLabelPosition=bottom;align=center;labelBackgroundColor=#ffffff;verticalAlign=top;strokeWidth=2;strokeColor=#0080F0;shadow=0;dashed=0;shape=mxgraph.ios7.icons.globe;" parent="W_UPt4zRYAUl43Yc6QiR-2" vertex="1">
          <mxGeometry x="420" y="610" width="60" height="50" as="geometry" />
        </mxCell>
        <mxCell id="Fcl9H4rcNKDT1mkGbeQJ-14" value="" style="html=1;verticalLabelPosition=bottom;align=center;labelBackgroundColor=#ffffff;verticalAlign=top;strokeWidth=2;strokeColor=#0080F0;shadow=0;dashed=0;shape=mxgraph.ios7.icons.globe;" parent="W_UPt4zRYAUl43Yc6QiR-2" vertex="1">
          <mxGeometry x="20" y="910" width="60" height="50" as="geometry" />
        </mxCell>
        <mxCell id="Fcl9H4rcNKDT1mkGbeQJ-15" value="" style="html=1;verticalLabelPosition=bottom;align=center;labelBackgroundColor=#ffffff;verticalAlign=top;strokeWidth=2;strokeColor=#0080F0;shadow=0;dashed=0;shape=mxgraph.ios7.icons.globe;" parent="W_UPt4zRYAUl43Yc6QiR-2" vertex="1">
          <mxGeometry x="20" y="1510" width="60" height="50" as="geometry" />
        </mxCell>
        <mxCell id="Fcl9H4rcNKDT1mkGbeQJ-16" style="edgeStyle=orthogonalEdgeStyle;rounded=0;orthogonalLoop=1;jettySize=auto;html=1;strokeColor=#97D077;strokeWidth=10;" parent="W_UPt4zRYAUl43Yc6QiR-2" source="8aye9MDtTIxuN-2nClFV-1" edge="1">
          <mxGeometry relative="1" as="geometry">
            <Array as="points">
              <mxPoint x="1020" y="1380" />
              <mxPoint x="1020" y="2000" />
              <mxPoint x="290" y="2000" />
              <mxPoint x="290" y="1615" />
            </Array>
            <mxPoint x="1020" y="1149.2799999999997" as="sourcePoint" />
            <mxPoint x="390" y="1615" as="targetPoint" />
          </mxGeometry>
        </mxCell>
        <mxCell id="Fcl9H4rcNKDT1mkGbeQJ-17" style="edgeStyle=orthogonalEdgeStyle;rounded=0;orthogonalLoop=1;jettySize=auto;html=1;strokeColor=#97D077;strokeWidth=10;" parent="W_UPt4zRYAUl43Yc6QiR-2" source="8aye9MDtTIxuN-2nClFV-1" edge="1">
          <mxGeometry relative="1" as="geometry">
            <Array as="points">
              <mxPoint x="1020" y="1380" />
              <mxPoint x="1020" y="2000" />
              <mxPoint x="290" y="2000" />
              <mxPoint x="290" y="1835" />
            </Array>
            <mxPoint x="1020" y="1149.2799999999997" as="sourcePoint" />
            <mxPoint x="390" y="1835" as="targetPoint" />
          </mxGeometry>
        </mxCell>
        <mxCell id="Fcl9H4rcNKDT1mkGbeQJ-18" style="edgeStyle=orthogonalEdgeStyle;rounded=0;orthogonalLoop=1;jettySize=auto;html=1;strokeWidth=10;strokeColor=#97D077;" parent="W_UPt4zRYAUl43Yc6QiR-2" source="8aye9MDtTIxuN-2nClFV-1" edge="1">
          <mxGeometry relative="1" as="geometry">
            <mxPoint x="960" y="1129.666666666667" as="sourcePoint" />
            <mxPoint x="49.000000000000455" y="1210" as="targetPoint" />
            <Array as="points">
              <mxPoint x="1140" y="1120" />
              <mxPoint x="49" y="1120" />
            </Array>
          </mxGeometry>
        </mxCell>
        <mxCell id="Fcl9H4rcNKDT1mkGbeQJ-19" style="edgeStyle=orthogonalEdgeStyle;rounded=0;orthogonalLoop=1;jettySize=auto;html=1;strokeWidth=10;strokeColor=#97D077;" parent="W_UPt4zRYAUl43Yc6QiR-2" source="8aye9MDtTIxuN-2nClFV-1" edge="1">
          <mxGeometry relative="1" as="geometry">
            <mxPoint x="960" y="1129.666666666667" as="sourcePoint" />
            <mxPoint x="449.00000000000045" y="1210" as="targetPoint" />
            <Array as="points">
              <mxPoint x="1140" y="1120" />
              <mxPoint x="449" y="1120" />
            </Array>
          </mxGeometry>
        </mxCell>
        <mxCell id="Fcl9H4rcNKDT1mkGbeQJ-20" style="edgeStyle=orthogonalEdgeStyle;rounded=0;orthogonalLoop=1;jettySize=auto;html=1;strokeWidth=10;strokeColor=#97D077;" parent="W_UPt4zRYAUl43Yc6QiR-2" edge="1">
          <mxGeometry relative="1" as="geometry">
            <Array as="points">
              <mxPoint x="-50" y="175" />
              <mxPoint x="-50" y="336" />
            </Array>
            <mxPoint x="30" y="336" as="targetPoint" />
            <mxPoint x="-224.99999999999977" y="175" as="sourcePoint" />
          </mxGeometry>
        </mxCell>
        <mxCell id="Fcl9H4rcNKDT1mkGbeQJ-21" style="edgeStyle=orthogonalEdgeStyle;rounded=0;orthogonalLoop=1;jettySize=auto;html=1;strokeWidth=10;strokeColor=#97D077;" parent="W_UPt4zRYAUl43Yc6QiR-2" edge="1">
          <mxGeometry relative="1" as="geometry">
            <Array as="points">
              <mxPoint x="350" y="175" />
              <mxPoint x="350" y="336" />
            </Array>
            <mxPoint x="430" y="336" as="targetPoint" />
            <mxPoint x="-224.99999999999977" y="175" as="sourcePoint" />
          </mxGeometry>
        </mxCell>
        <mxCell id="Fcl9H4rcNKDT1mkGbeQJ-22" style="edgeStyle=orthogonalEdgeStyle;rounded=0;orthogonalLoop=1;jettySize=auto;html=1;strokeWidth=10;strokeColor=#97D077;" parent="W_UPt4zRYAUl43Yc6QiR-2" edge="1">
          <mxGeometry relative="1" as="geometry">
            <Array as="points">
              <mxPoint x="750" y="175" />
              <mxPoint x="750" y="336" />
            </Array>
            <mxPoint x="830" y="336" as="targetPoint" />
            <mxPoint x="-224.99999999999977" y="175" as="sourcePoint" />
          </mxGeometry>
        </mxCell>
        <mxCell id="Fcl9H4rcNKDT1mkGbeQJ-23" style="edgeStyle=orthogonalEdgeStyle;rounded=0;orthogonalLoop=1;jettySize=auto;html=1;strokeWidth=10;strokeColor=#97D077;" parent="W_UPt4zRYAUl43Yc6QiR-2" source="YS4ce7gFxmV2WK4-jLAW-11" edge="1">
          <mxGeometry relative="1" as="geometry">
            <Array as="points">
              <mxPoint x="-220" y="175" />
              <mxPoint x="-50" y="175" />
              <mxPoint x="-50" y="636" />
            </Array>
            <mxPoint x="30" y="636" as="targetPoint" />
            <mxPoint x="-224.99999999999977" y="175" as="sourcePoint" />
          </mxGeometry>
        </mxCell>
        <mxCell id="Fcl9H4rcNKDT1mkGbeQJ-25" value="" style="sketch=0;pointerEvents=1;shadow=0;dashed=0;html=1;strokeColor=none;labelPosition=center;verticalLabelPosition=bottom;verticalAlign=top;outlineConnect=0;align=center;shape=mxgraph.office.security.lock_protected;fillColor=#7FBA42;" parent="W_UPt4zRYAUl43Yc6QiR-2" vertex="1">
          <mxGeometry x="30" y="1210" width="38" height="52" as="geometry" />
        </mxCell>
        <mxCell id="Fcl9H4rcNKDT1mkGbeQJ-32" value="" style="sketch=0;pointerEvents=1;shadow=0;dashed=0;html=1;strokeColor=none;fillColor=#505050;labelPosition=center;verticalLabelPosition=bottom;verticalAlign=top;outlineConnect=0;align=center;shape=mxgraph.office.devices.shadowed_router;" parent="W_UPt4zRYAUl43Yc6QiR-2" vertex="1">
          <mxGeometry x="3530" y="820" width="140" height="140" as="geometry" />
        </mxCell>
        <mxCell id="Fcl9H4rcNKDT1mkGbeQJ-42" style="edgeStyle=orthogonalEdgeStyle;rounded=0;orthogonalLoop=1;jettySize=auto;html=1;strokeWidth=10;strokeColor=#00BEF2;" parent="W_UPt4zRYAUl43Yc6QiR-2" source="Fcl9H4rcNKDT1mkGbeQJ-34" target="Fcl9H4rcNKDT1mkGbeQJ-35" edge="1">
          <mxGeometry relative="1" as="geometry">
            <Array as="points">
              <mxPoint x="3420" y="1043" />
              <mxPoint x="3420" y="1390" />
              <mxPoint x="2680" y="1390" />
            </Array>
          </mxGeometry>
        </mxCell>
        <mxCell id="Fcl9H4rcNKDT1mkGbeQJ-34" value="" style="verticalLabelPosition=bottom;html=1;verticalAlign=top;align=center;strokeColor=none;fillColor=#00BEF2;shape=mxgraph.azure.azure_load_balancer;" parent="W_UPt4zRYAUl43Yc6QiR-2" vertex="1">
          <mxGeometry x="3539.28" y="1000" width="121.43" height="85" as="geometry" />
        </mxCell>
        <mxCell id="YS4ce7gFxmV2WK4-jLAW-42" style="edgeStyle=orthogonalEdgeStyle;rounded=0;orthogonalLoop=1;jettySize=auto;html=1;entryX=0.507;entryY=-0.117;entryDx=0;entryDy=0;entryPerimeter=0;strokeColor=#00BEF2;strokeWidth=10;fontSize=20;endArrow=classic;endFill=1;" parent="W_UPt4zRYAUl43Yc6QiR-2" source="Fcl9H4rcNKDT1mkGbeQJ-35" target="Fcl9H4rcNKDT1mkGbeQJ-7" edge="1">
          <mxGeometry relative="1" as="geometry" />
        </mxCell>
        <mxCell id="YS4ce7gFxmV2WK4-jLAW-43" style="edgeStyle=orthogonalEdgeStyle;rounded=0;orthogonalLoop=1;jettySize=auto;html=1;strokeColor=#00BEF2;strokeWidth=10;fontSize=20;endArrow=classic;endFill=1;" parent="W_UPt4zRYAUl43Yc6QiR-2" source="Fcl9H4rcNKDT1mkGbeQJ-35" edge="1">
          <mxGeometry relative="1" as="geometry">
            <mxPoint x="2450" y="1510" as="targetPoint" />
          </mxGeometry>
        </mxCell>
        <mxCell id="YS4ce7gFxmV2WK4-jLAW-47" style="edgeStyle=orthogonalEdgeStyle;rounded=0;orthogonalLoop=1;jettySize=auto;html=1;entryX=0.483;entryY=-0.003;entryDx=0;entryDy=0;entryPerimeter=0;strokeColor=#00BEF2;strokeWidth=10;fontSize=20;endArrow=classic;endFill=1;" parent="W_UPt4zRYAUl43Yc6QiR-2" source="Fcl9H4rcNKDT1mkGbeQJ-35" target="Fcl9H4rcNKDT1mkGbeQJ-8" edge="1">
          <mxGeometry relative="1" as="geometry" />
        </mxCell>
        <mxCell id="YS4ce7gFxmV2WK4-jLAW-50" style="edgeStyle=orthogonalEdgeStyle;rounded=0;orthogonalLoop=1;jettySize=auto;html=1;strokeColor=#00BEF2;strokeWidth=10;fontSize=20;endArrow=none;endFill=0;" parent="W_UPt4zRYAUl43Yc6QiR-2" source="Fcl9H4rcNKDT1mkGbeQJ-35" target="YS4ce7gFxmV2WK4-jLAW-49" edge="1">
          <mxGeometry relative="1" as="geometry" />
        </mxCell>
        <mxCell id="Fcl9H4rcNKDT1mkGbeQJ-35" value="" style="sketch=0;pointerEvents=1;shadow=0;dashed=0;html=1;strokeColor=none;fillColor=#00BEF2;labelPosition=center;verticalLabelPosition=bottom;verticalAlign=top;outlineConnect=0;align=center;shape=mxgraph.office.devices.switch;aspect=fixed;" parent="W_UPt4zRYAUl43Yc6QiR-2" vertex="1">
          <mxGeometry x="2620" y="1430" width="120" height="39.28" as="geometry" />
        </mxCell>
        <mxCell id="Fcl9H4rcNKDT1mkGbeQJ-40" value="" style="html=1;verticalLabelPosition=bottom;align=center;labelBackgroundColor=#ffffff;verticalAlign=top;strokeWidth=2;strokeColor=#0080F0;shadow=0;dashed=0;shape=mxgraph.ios7.icons.globe;" parent="W_UPt4zRYAUl43Yc6QiR-2" vertex="1">
          <mxGeometry x="2419" y="610" width="60" height="50" as="geometry" />
        </mxCell>
        <mxCell id="Fcl9H4rcNKDT1mkGbeQJ-58" value="" style="sketch=0;pointerEvents=1;shadow=0;dashed=0;html=1;strokeColor=none;labelPosition=center;verticalLabelPosition=bottom;verticalAlign=top;outlineConnect=0;align=center;shape=mxgraph.office.security.lock_protected;fillColor=#7FBA42;" parent="W_UPt4zRYAUl43Yc6QiR-2" vertex="1">
          <mxGeometry x="2830" y="910" width="38" height="52" as="geometry" />
        </mxCell>
        <mxCell id="Fcl9H4rcNKDT1mkGbeQJ-59" value="" style="sketch=0;pointerEvents=1;shadow=0;dashed=0;html=1;strokeColor=none;labelPosition=center;verticalLabelPosition=bottom;verticalAlign=top;outlineConnect=0;align=center;shape=mxgraph.office.security.lock_protected;fillColor=#7FBA42;" parent="W_UPt4zRYAUl43Yc6QiR-2" vertex="1">
          <mxGeometry x="2430" y="310" width="38" height="52" as="geometry" />
        </mxCell>
        <mxCell id="Fcl9H4rcNKDT1mkGbeQJ-60" value="" style="sketch=0;pointerEvents=1;shadow=0;dashed=0;html=1;strokeColor=none;labelPosition=center;verticalLabelPosition=bottom;verticalAlign=top;outlineConnect=0;align=center;shape=mxgraph.office.security.lock_protected;fillColor=#7FBA42;" parent="W_UPt4zRYAUl43Yc6QiR-2" vertex="1">
          <mxGeometry x="2830" y="610" width="38" height="52" as="geometry" />
        </mxCell>
        <mxCell id="Fcl9H4rcNKDT1mkGbeQJ-61" value="" style="sketch=0;pointerEvents=1;shadow=0;dashed=0;html=1;strokeColor=none;labelPosition=center;verticalLabelPosition=bottom;verticalAlign=top;outlineConnect=0;align=center;shape=mxgraph.office.security.lock_protected;fillColor=#7FBA42;" parent="W_UPt4zRYAUl43Yc6QiR-2" vertex="1">
          <mxGeometry x="2830" y="1210" width="38" height="52" as="geometry" />
        </mxCell>
        <mxCell id="Fcl9H4rcNKDT1mkGbeQJ-62" value="" style="sketch=0;pointerEvents=1;shadow=0;dashed=0;html=1;strokeColor=none;labelPosition=center;verticalLabelPosition=bottom;verticalAlign=top;outlineConnect=0;align=center;shape=mxgraph.office.security.lock_protected;fillColor=#7FBA42;" parent="W_UPt4zRYAUl43Yc6QiR-2" vertex="1">
          <mxGeometry x="1630" y="910" width="38" height="52" as="geometry" />
        </mxCell>
        <mxCell id="Fcl9H4rcNKDT1mkGbeQJ-63" value="" style="sketch=0;pointerEvents=1;shadow=0;dashed=0;html=1;strokeColor=none;labelPosition=center;verticalLabelPosition=bottom;verticalAlign=top;outlineConnect=0;align=center;shape=mxgraph.office.security.lock_protected;fillColor=#7FBA42;" parent="W_UPt4zRYAUl43Yc6QiR-2" vertex="1">
          <mxGeometry x="1230" y="310" width="38" height="52" as="geometry" />
        </mxCell>
        <mxCell id="Fcl9H4rcNKDT1mkGbeQJ-64" value="" style="sketch=0;pointerEvents=1;shadow=0;dashed=0;html=1;strokeColor=none;labelPosition=center;verticalLabelPosition=bottom;verticalAlign=top;outlineConnect=0;align=center;shape=mxgraph.office.security.lock_protected;fillColor=#7FBA42;" parent="W_UPt4zRYAUl43Yc6QiR-2" vertex="1">
          <mxGeometry x="1630" y="310" width="38" height="52" as="geometry" />
        </mxCell>
        <mxCell id="Fcl9H4rcNKDT1mkGbeQJ-65" value="" style="sketch=0;pointerEvents=1;shadow=0;dashed=0;html=1;strokeColor=none;labelPosition=center;verticalLabelPosition=bottom;verticalAlign=top;outlineConnect=0;align=center;shape=mxgraph.office.security.lock_protected;fillColor=#7FBA42;" parent="W_UPt4zRYAUl43Yc6QiR-2" vertex="1">
          <mxGeometry x="2030" y="310" width="38" height="52" as="geometry" />
        </mxCell>
        <mxCell id="YS4ce7gFxmV2WK4-jLAW-9" value="" style="edgeStyle=orthogonalEdgeStyle;rounded=0;orthogonalLoop=1;jettySize=auto;html=1;strokeColor=#97D077;strokeWidth=10;endArrow=none;endFill=0;" parent="W_UPt4zRYAUl43Yc6QiR-2" target="YS4ce7gFxmV2WK4-jLAW-11" edge="1">
          <mxGeometry relative="1" as="geometry">
            <mxPoint x="1140" y="1363.7200000000003" as="sourcePoint" />
            <mxPoint x="-240" y="190" as="targetPoint" />
            <Array as="points">
              <mxPoint x="1140" y="1123" />
              <mxPoint x="-240" y="1123" />
            </Array>
          </mxGeometry>
        </mxCell>
        <mxCell id="YS4ce7gFxmV2WK4-jLAW-11" value="" style="ellipse;whiteSpace=wrap;html=1;aspect=fixed;fontSize=20;fillColor=#97D077;strokeColor=none;" parent="W_UPt4zRYAUl43Yc6QiR-2" vertex="1">
          <mxGeometry x="-254" y="160" width="30" height="30" as="geometry" />
        </mxCell>
        <mxCell id="YS4ce7gFxmV2WK4-jLAW-13" value="" style="ellipse;whiteSpace=wrap;html=1;aspect=fixed;fontSize=20;fillColor=#97D077;strokeColor=none;" parent="W_UPt4zRYAUl43Yc6QiR-2" vertex="1">
          <mxGeometry x="2970" y="160" width="30" height="30" as="geometry" />
        </mxCell>
        <mxCell id="YS4ce7gFxmV2WK4-jLAW-53" style="edgeStyle=orthogonalEdgeStyle;rounded=0;orthogonalLoop=1;jettySize=auto;html=1;entryX=0.531;entryY=0.083;entryDx=0;entryDy=0;entryPerimeter=0;strokeColor=#00BEF2;strokeWidth=10;fontSize=20;endArrow=classic;endFill=1;" parent="W_UPt4zRYAUl43Yc6QiR-2" source="YS4ce7gFxmV2WK4-jLAW-49" target="Fcl9H4rcNKDT1mkGbeQJ-9" edge="1">
          <mxGeometry relative="1" as="geometry" />
        </mxCell>
        <mxCell id="YS4ce7gFxmV2WK4-jLAW-55" style="edgeStyle=orthogonalEdgeStyle;rounded=0;orthogonalLoop=1;jettySize=auto;html=1;entryX=0.46;entryY=0.083;entryDx=0;entryDy=0;entryPerimeter=0;strokeColor=#00BEF2;strokeWidth=10;fontSize=20;endArrow=classic;endFill=1;" parent="W_UPt4zRYAUl43Yc6QiR-2" source="YS4ce7gFxmV2WK4-jLAW-49" target="Fcl9H4rcNKDT1mkGbeQJ-10" edge="1">
          <mxGeometry relative="1" as="geometry" />
        </mxCell>
        <mxCell id="YS4ce7gFxmV2WK4-jLAW-56" style="edgeStyle=orthogonalEdgeStyle;rounded=0;orthogonalLoop=1;jettySize=auto;html=1;entryX=0.507;entryY=-0.06;entryDx=0;entryDy=0;entryPerimeter=0;strokeColor=#00BEF2;strokeWidth=10;fontSize=20;endArrow=classic;endFill=1;" parent="W_UPt4zRYAUl43Yc6QiR-2" source="YS4ce7gFxmV2WK4-jLAW-49" target="Fcl9H4rcNKDT1mkGbeQJ-11" edge="1">
          <mxGeometry relative="1" as="geometry" />
        </mxCell>
        <mxCell id="YS4ce7gFxmV2WK4-jLAW-49" value="" style="ellipse;whiteSpace=wrap;html=1;aspect=fixed;strokeColor=none;fontSize=20;fillColor=#00BEF2;" parent="W_UPt4zRYAUl43Yc6QiR-2" vertex="1">
          <mxGeometry x="2665" y="1730" width="30" height="30" as="geometry" />
        </mxCell>
        <mxCell id="YS4ce7gFxmV2WK4-jLAW-57" style="edgeStyle=orthogonalEdgeStyle;rounded=0;orthogonalLoop=1;jettySize=auto;html=1;entryX=0.5;entryY=1;entryDx=0;entryDy=0;strokeColor=#97D077;strokeWidth=10;fontSize=20;endArrow=none;endFill=0;" parent="W_UPt4zRYAUl43Yc6QiR-2" edge="1">
          <mxGeometry relative="1" as="geometry">
            <mxPoint x="2114" y="1129.7142857142862" as="sourcePoint" />
            <mxPoint x="2985" y="190" as="targetPoint" />
          </mxGeometry>
        </mxCell>
        <mxCell id="YS4ce7gFxmV2WK4-jLAW-58" style="edgeStyle=orthogonalEdgeStyle;rounded=0;orthogonalLoop=1;jettySize=auto;html=1;strokeColor=#97D077;strokeWidth=10;fontSize=20;endArrow=classic;endFill=1;" parent="W_UPt4zRYAUl43Yc6QiR-2" target="Fcl9H4rcNKDT1mkGbeQJ-62" edge="1">
          <mxGeometry relative="1" as="geometry">
            <mxPoint x="2054" y="1110" as="sourcePoint" />
            <mxPoint x="1650" y="900" as="targetPoint" />
            <Array as="points">
              <mxPoint x="2054" y="840" />
              <mxPoint x="1650" y="840" />
            </Array>
          </mxGeometry>
        </mxCell>
        <mxCell id="YS4ce7gFxmV2WK4-jLAW-59" style="edgeStyle=orthogonalEdgeStyle;rounded=0;orthogonalLoop=1;jettySize=auto;html=1;strokeColor=#97D077;strokeWidth=10;fontSize=20;endArrow=classic;endFill=1;" parent="W_UPt4zRYAUl43Yc6QiR-2" target="Fcl9H4rcNKDT1mkGbeQJ-59" edge="1">
          <mxGeometry relative="1" as="geometry">
            <mxPoint x="2970" y="175" as="sourcePoint" />
            <mxPoint x="2450" y="300" as="targetPoint" />
          </mxGeometry>
        </mxCell>
        <mxCell id="YS4ce7gFxmV2WK4-jLAW-60" style="edgeStyle=orthogonalEdgeStyle;rounded=0;orthogonalLoop=1;jettySize=auto;html=1;strokeColor=#97D077;strokeWidth=10;fontSize=20;endArrow=classic;endFill=1;" parent="W_UPt4zRYAUl43Yc6QiR-2" target="Fcl9H4rcNKDT1mkGbeQJ-65" edge="1">
          <mxGeometry relative="1" as="geometry">
            <mxPoint x="2970" y="175" as="sourcePoint" />
            <mxPoint x="2050" y="300" as="targetPoint" />
          </mxGeometry>
        </mxCell>
        <mxCell id="YS4ce7gFxmV2WK4-jLAW-61" style="edgeStyle=orthogonalEdgeStyle;rounded=0;orthogonalLoop=1;jettySize=auto;html=1;strokeColor=#97D077;strokeWidth=10;fontSize=20;endArrow=classic;endFill=1;" parent="W_UPt4zRYAUl43Yc6QiR-2" target="Fcl9H4rcNKDT1mkGbeQJ-64" edge="1">
          <mxGeometry relative="1" as="geometry">
            <mxPoint x="2970" y="175" as="sourcePoint" />
            <mxPoint x="1650" y="300" as="targetPoint" />
          </mxGeometry>
        </mxCell>
        <mxCell id="YS4ce7gFxmV2WK4-jLAW-62" style="edgeStyle=orthogonalEdgeStyle;rounded=0;orthogonalLoop=1;jettySize=auto;html=1;strokeColor=#97D077;strokeWidth=10;fontSize=20;endArrow=classic;endFill=1;" parent="W_UPt4zRYAUl43Yc6QiR-2" target="Fcl9H4rcNKDT1mkGbeQJ-63" edge="1">
          <mxGeometry relative="1" as="geometry">
            <mxPoint x="2970" y="175" as="sourcePoint" />
            <mxPoint x="1250" y="300" as="targetPoint" />
          </mxGeometry>
        </mxCell>
        <mxCell id="YS4ce7gFxmV2WK4-jLAW-63" style="edgeStyle=orthogonalEdgeStyle;rounded=0;orthogonalLoop=1;jettySize=auto;html=1;strokeColor=#97D077;strokeWidth=10;fontSize=20;endArrow=classic;endFill=1;" parent="W_UPt4zRYAUl43Yc6QiR-2" target="Fcl9H4rcNKDT1mkGbeQJ-60" edge="1">
          <mxGeometry relative="1" as="geometry">
            <mxPoint x="2985" y="190" as="sourcePoint" />
            <mxPoint x="2850" y="600" as="targetPoint" />
            <Array as="points">
              <mxPoint x="2985" y="510" />
              <mxPoint x="2850" y="510" />
            </Array>
          </mxGeometry>
        </mxCell>
        <mxCell id="YS4ce7gFxmV2WK4-jLAW-64" style="edgeStyle=orthogonalEdgeStyle;rounded=0;orthogonalLoop=1;jettySize=auto;html=1;strokeColor=#97D077;strokeWidth=10;fontSize=20;endArrow=classic;endFill=1;" parent="W_UPt4zRYAUl43Yc6QiR-2" target="Fcl9H4rcNKDT1mkGbeQJ-58" edge="1">
          <mxGeometry relative="1" as="geometry">
            <mxPoint x="2985" y="190" as="sourcePoint" />
            <mxPoint x="2850" y="900" as="targetPoint" />
            <Array as="points">
              <mxPoint x="2985" y="810" />
              <mxPoint x="2850" y="810" />
            </Array>
          </mxGeometry>
        </mxCell>
        <mxCell id="YS4ce7gFxmV2WK4-jLAW-65" style="edgeStyle=orthogonalEdgeStyle;rounded=0;orthogonalLoop=1;jettySize=auto;html=1;strokeColor=#97D077;strokeWidth=10;fontSize=20;endArrow=classic;endFill=1;" parent="W_UPt4zRYAUl43Yc6QiR-2" target="Fcl9H4rcNKDT1mkGbeQJ-61" edge="1">
          <mxGeometry relative="1" as="geometry">
            <mxPoint x="2985" y="190" as="sourcePoint" />
            <mxPoint x="2850" y="1200" as="targetPoint" />
            <Array as="points">
              <mxPoint x="2985" y="1130" />
              <mxPoint x="2850" y="1130" />
            </Array>
          </mxGeometry>
        </mxCell>
        <mxCell id="YS4ce7gFxmV2WK4-jLAW-71" style="edgeStyle=orthogonalEdgeStyle;rounded=0;orthogonalLoop=1;jettySize=auto;html=1;strokeColor=#97D077;strokeWidth=10;fontSize=20;" parent="W_UPt4zRYAUl43Yc6QiR-2" edge="1">
          <mxGeometry relative="1" as="geometry">
            <mxPoint x="2010" y="1556" as="sourcePoint" />
            <Array as="points">
              <mxPoint x="1890" y="1556" />
              <mxPoint x="1890" y="1991" />
            </Array>
            <mxPoint x="2630" y="1991" as="targetPoint" />
          </mxGeometry>
        </mxCell>
        <mxCell id="YS4ce7gFxmV2WK4-jLAW-72" style="edgeStyle=orthogonalEdgeStyle;rounded=0;orthogonalLoop=1;jettySize=auto;html=1;strokeColor=#97D077;strokeWidth=10;fontSize=20;endArrow=classic;endFill=1;" parent="W_UPt4zRYAUl43Yc6QiR-2" source="YS4ce7gFxmV2WK4-jLAW-75" target="Fcl9H4rcNKDT1mkGbeQJ-10" edge="1">
          <mxGeometry relative="1" as="geometry">
            <mxPoint x="2410" y="1855" as="targetPoint" />
            <Array as="points">
              <mxPoint x="2330" y="1990" />
              <mxPoint x="2330" y="1840" />
            </Array>
          </mxGeometry>
        </mxCell>
        <mxCell id="YS4ce7gFxmV2WK4-jLAW-73" style="edgeStyle=orthogonalEdgeStyle;rounded=0;orthogonalLoop=1;jettySize=auto;html=1;strokeColor=#97D077;strokeWidth=10;fontSize=20;endArrow=classic;endFill=1;" parent="W_UPt4zRYAUl43Yc6QiR-2" source="YS4ce7gFxmV2WK4-jLAW-75" target="Fcl9H4rcNKDT1mkGbeQJ-8" edge="1">
          <mxGeometry relative="1" as="geometry">
            <mxPoint x="3210" y="1550" as="targetPoint" />
            <Array as="points">
              <mxPoint x="3090" y="1990" />
              <mxPoint x="3090" y="1540" />
            </Array>
          </mxGeometry>
        </mxCell>
        <mxCell id="YS4ce7gFxmV2WK4-jLAW-74" style="edgeStyle=orthogonalEdgeStyle;rounded=0;orthogonalLoop=1;jettySize=auto;html=1;strokeColor=#97D077;strokeWidth=10;fontSize=20;endArrow=classic;endFill=1;" parent="W_UPt4zRYAUl43Yc6QiR-2" source="YS4ce7gFxmV2WK4-jLAW-75" target="8aye9MDtTIxuN-2nClFV-50" edge="1">
          <mxGeometry relative="1" as="geometry">
            <mxPoint x="3210" y="1855" as="targetPoint" />
            <Array as="points">
              <mxPoint x="3090" y="1990" />
              <mxPoint x="3090" y="1836" />
            </Array>
          </mxGeometry>
        </mxCell>
        <mxCell id="YS4ce7gFxmV2WK4-jLAW-80" style="edgeStyle=orthogonalEdgeStyle;rounded=0;orthogonalLoop=1;jettySize=auto;html=1;strokeColor=#97D077;strokeWidth=10;fontSize=20;endArrow=classic;endFill=1;" parent="W_UPt4zRYAUl43Yc6QiR-2" source="YS4ce7gFxmV2WK4-jLAW-75" target="8aye9MDtTIxuN-2nClFV-43" edge="1">
          <mxGeometry relative="1" as="geometry">
            <Array as="points">
              <mxPoint x="2760" y="1990" />
              <mxPoint x="2760" y="1840" />
            </Array>
          </mxGeometry>
        </mxCell>
        <mxCell id="YS4ce7gFxmV2WK4-jLAW-75" value="" style="sketch=0;pointerEvents=1;shadow=0;dashed=0;html=1;strokeColor=none;fillColor=#97D077;labelPosition=center;verticalLabelPosition=bottom;verticalAlign=top;outlineConnect=0;align=center;shape=mxgraph.office.devices.switch;aspect=fixed;" parent="W_UPt4zRYAUl43Yc6QiR-2" vertex="1">
          <mxGeometry x="2630" y="1970" width="120" height="39.28" as="geometry" />
        </mxCell>
        <mxCell id="YS4ce7gFxmV2WK4-jLAW-82" value="" style="html=1;strokeWidth=1;shadow=0;dashed=0;shape=mxgraph.ios7.misc.wifi;fillColor=#007AFF;strokeColor=none;buttonText=;strokeColor2=#222222;fontColor=#222222;fontSize=8;verticalLabelPosition=bottom;verticalAlign=top;align=center;sketch=0;" parent="W_UPt4zRYAUl43Yc6QiR-2" vertex="1">
          <mxGeometry x="30" y="850" width="40" height="40" as="geometry" />
        </mxCell>
        <mxCell id="YS4ce7gFxmV2WK4-jLAW-83" value="" style="html=1;strokeWidth=1;shadow=0;dashed=0;shape=mxgraph.ios7.misc.wifi;fillColor=#007AFF;strokeColor=none;buttonText=;strokeColor2=#222222;fontColor=#222222;fontSize=8;verticalLabelPosition=bottom;verticalAlign=top;align=center;sketch=0;" parent="W_UPt4zRYAUl43Yc6QiR-2" vertex="1">
          <mxGeometry x="429" y="550" width="40" height="40" as="geometry" />
        </mxCell>
        <mxCell id="YS4ce7gFxmV2WK4-jLAW-84" value="" style="html=1;strokeWidth=1;shadow=0;dashed=0;shape=mxgraph.ios7.misc.wifi;fillColor=#007AFF;strokeColor=none;buttonText=;strokeColor2=#222222;fontColor=#222222;fontSize=8;verticalLabelPosition=bottom;verticalAlign=top;align=center;sketch=0;" parent="W_UPt4zRYAUl43Yc6QiR-2" vertex="1">
          <mxGeometry x="30" y="1450" width="40" height="40" as="geometry" />
        </mxCell>
        <mxCell id="YS4ce7gFxmV2WK4-jLAW-85" value="" style="html=1;strokeWidth=1;shadow=0;dashed=0;shape=mxgraph.ios7.misc.wifi;fillColor=#007AFF;strokeColor=none;buttonText=;strokeColor2=#222222;fontColor=#222222;fontSize=8;verticalLabelPosition=bottom;verticalAlign=top;align=center;sketch=0;" parent="W_UPt4zRYAUl43Yc6QiR-2" vertex="1">
          <mxGeometry x="2430" y="550" width="40" height="40" as="geometry" />
        </mxCell>
        <mxCell id="YS4ce7gFxmV2WK4-jLAW-86" style="edgeStyle=orthogonalEdgeStyle;rounded=0;orthogonalLoop=1;jettySize=auto;html=1;strokeColor=#97D077;strokeWidth=10;fontSize=20;" parent="W_UPt4zRYAUl43Yc6QiR-2" edge="1">
          <mxGeometry relative="1" as="geometry">
            <mxPoint x="2055" y="1500" as="sourcePoint" />
            <mxPoint x="1200" y="1380.090909090909" as="targetPoint" />
            <Array as="points">
              <mxPoint x="2055" y="1380" />
            </Array>
          </mxGeometry>
        </mxCell>
        <mxCell id="YS4ce7gFxmV2WK4-jLAW-87" style="edgeStyle=orthogonalEdgeStyle;rounded=0;orthogonalLoop=1;jettySize=auto;html=1;strokeColor=#97D077;strokeWidth=10;fontSize=20;" parent="W_UPt4zRYAUl43Yc6QiR-2" edge="1">
          <mxGeometry relative="1" as="geometry">
            <mxPoint x="2055" y="1500" as="sourcePoint" />
            <mxPoint x="2054.090909090909" y="1149.2799999999993" as="targetPoint" />
            <Array as="points">
              <mxPoint x="2054" y="1325" />
            </Array>
          </mxGeometry>
        </mxCell>
        <mxCell id="YS4ce7gFxmV2WK4-jLAW-94" style="edgeStyle=orthogonalEdgeStyle;rounded=0;orthogonalLoop=1;jettySize=auto;html=1;strokeColor=#00BEF2;strokeWidth=10;fontSize=20;fontColor=none;endArrow=classic;endFill=1;noLabel=1;" parent="W_UPt4zRYAUl43Yc6QiR-2" target="xurGcQcXW0GNTpY4zVYj-52" edge="1">
          <mxGeometry relative="1" as="geometry">
            <mxPoint x="3549.2800000000007" y="1052.6" as="sourcePoint" />
            <mxPoint x="3440" y="790" as="targetPoint" />
            <Array as="points">
              <mxPoint x="3549" y="1040" />
              <mxPoint x="3420" y="1040" />
              <mxPoint x="3420" y="361" />
            </Array>
          </mxGeometry>
        </mxCell>
        <mxCell id="YS4ce7gFxmV2WK4-jLAW-95" value="" style="html=1;strokeWidth=1;shadow=0;dashed=0;shape=mxgraph.ios7.misc.wifi;fillColor=#007AFF;strokeColor=none;buttonText=;strokeColor2=#222222;fontColor=#222222;fontSize=8;verticalLabelPosition=bottom;verticalAlign=top;align=center;sketch=0;" parent="W_UPt4zRYAUl43Yc6QiR-2" vertex="1">
          <mxGeometry x="1628" y="550" width="40" height="40" as="geometry" />
        </mxCell>
        <mxCell id="MNlX_nt-DRllQFXPWfFi-0" value="UPS" style="locked=1;" parent="f-TOPqAcIMhOfcNf-VaI-0" />
        <mxCell id="xurGcQcXW0GNTpY4zVYj-62" value="" style="fontColor=#0066CC;verticalAlign=top;verticalLabelPosition=bottom;labelPosition=center;align=center;html=1;outlineConnect=0;fillColor=#000000;strokeColor=#6881B3;gradientColor=none;gradientDirection=north;strokeWidth=2;shape=mxgraph.networks.ups_small;" parent="MNlX_nt-DRllQFXPWfFi-0" vertex="1">
          <mxGeometry x="3040" y="1510" width="40" height="60" as="geometry" />
        </mxCell>
        <mxCell id="8-vhjSfCxEMlXP20aHc5-2" value="65.05" style="fontColor=#000000;verticalAlign=top;verticalLabelPosition=bottom;labelPosition=center;align=center;html=1;outlineConnect=0;fillColor=#009999;strokeColor=#000000;gradientColor=none;gradientDirection=north;strokeWidth=2;shape=mxgraph.networks.ups_small;fontSize=20;fontStyle=1;fontFamily=Tahoma;" parent="MNlX_nt-DRllQFXPWfFi-0" vertex="1">
          <mxGeometry x="100" y="310" width="42" height="60" as="geometry" />
        </mxCell>
        <mxCell id="8-vhjSfCxEMlXP20aHc5-10" value="63.12" style="fontColor=#000000;verticalAlign=top;verticalLabelPosition=bottom;labelPosition=center;align=center;html=1;outlineConnect=0;fillColor=#3333FF;strokeColor=#000000;gradientColor=none;gradientDirection=north;strokeWidth=2;shape=mxgraph.networks.ups_small;fontSize=20;fontStyle=1;fontFamily=Tahoma;" parent="MNlX_nt-DRllQFXPWfFi-0" vertex="1">
          <mxGeometry x="500" y="310" width="42" height="60" as="geometry" />
        </mxCell>
        <mxCell id="8-vhjSfCxEMlXP20aHc5-11" value="63.11" style="fontColor=#000000;verticalAlign=top;verticalLabelPosition=bottom;labelPosition=center;align=center;html=1;outlineConnect=0;fillColor=#3333FF;strokeColor=#000000;gradientColor=none;gradientDirection=north;strokeWidth=2;shape=mxgraph.networks.ups_small;fontSize=20;fontStyle=1;fontFamily=Tahoma;" parent="MNlX_nt-DRllQFXPWfFi-0" vertex="1">
          <mxGeometry x="100" y="610" width="42" height="60" as="geometry" />
        </mxCell>
        <mxCell id="8-vhjSfCxEMlXP20aHc5-17" value="63.06" style="fontColor=#000000;verticalAlign=top;verticalLabelPosition=bottom;labelPosition=center;align=center;html=1;outlineConnect=0;fillColor=#3333FF;strokeColor=#000000;gradientColor=none;gradientDirection=north;strokeWidth=2;shape=mxgraph.networks.ups_small;fontSize=20;fontStyle=1;fontFamily=Tahoma;" parent="MNlX_nt-DRllQFXPWfFi-0" vertex="1">
          <mxGeometry x="900" y="1810" width="42" height="60" as="geometry" />
        </mxCell>
        <mxCell id="8-vhjSfCxEMlXP20aHc5-18" value="63.10" style="fontColor=#000000;verticalAlign=top;verticalLabelPosition=bottom;labelPosition=center;align=center;html=1;outlineConnect=0;fillColor=#3333FF;strokeColor=#000000;gradientColor=none;gradientDirection=north;strokeWidth=2;shape=mxgraph.networks.ups_small;fontSize=20;fontStyle=1;fontFamily=Tahoma;" parent="MNlX_nt-DRllQFXPWfFi-0" vertex="1">
          <mxGeometry x="3080" y="1510" width="42" height="60" as="geometry" />
        </mxCell>
        <mxCell id="8-vhjSfCxEMlXP20aHc5-20" value="63.5" style="fontColor=#000000;verticalAlign=top;verticalLabelPosition=bottom;labelPosition=center;align=center;html=1;outlineConnect=0;fillColor=#3333FF;strokeColor=#000000;gradientColor=none;gradientDirection=north;strokeWidth=2;shape=mxgraph.networks.ups_small;fontSize=20;fontStyle=1;fontFamily=Tahoma;" parent="MNlX_nt-DRllQFXPWfFi-0" vertex="1">
          <mxGeometry x="3300" y="1810" width="42" height="60" as="geometry" />
        </mxCell>
        <mxCell id="8-vhjSfCxEMlXP20aHc5-23" value="63.9" style="fontColor=#000000;verticalAlign=top;verticalLabelPosition=bottom;labelPosition=center;align=center;html=1;outlineConnect=0;fillColor=#3333FF;strokeColor=#000000;gradientColor=none;gradientDirection=north;strokeWidth=2;shape=mxgraph.networks.ups_small;fontSize=20;fontStyle=1;fontFamily=Tahoma;" parent="MNlX_nt-DRllQFXPWfFi-0" vertex="1">
          <mxGeometry x="1300" y="310" width="42" height="60" as="geometry" />
        </mxCell>
        <mxCell id="8-vhjSfCxEMlXP20aHc5-24" value="63.14" style="fontColor=#000000;verticalAlign=top;verticalLabelPosition=bottom;labelPosition=center;align=center;html=1;outlineConnect=0;fillColor=#3333FF;strokeColor=#000000;gradientColor=none;gradientDirection=north;strokeWidth=2;shape=mxgraph.networks.ups_small;fontSize=20;fontStyle=1;fontFamily=Tahoma;" parent="MNlX_nt-DRllQFXPWfFi-0" vertex="1">
          <mxGeometry x="2100" y="310" width="42" height="60" as="geometry" />
        </mxCell>
        <mxCell id="8-vhjSfCxEMlXP20aHc5-25" value="63.3" style="fontColor=#000000;verticalAlign=top;verticalLabelPosition=bottom;labelPosition=center;align=center;html=1;outlineConnect=0;fillColor=#3333FF;strokeColor=#000000;gradientColor=none;gradientDirection=north;strokeWidth=2;shape=mxgraph.networks.ups_small;fontSize=20;fontStyle=1;fontFamily=Tahoma;" parent="MNlX_nt-DRllQFXPWfFi-0" vertex="1">
          <mxGeometry x="2500" y="310" width="42" height="60" as="geometry" />
        </mxCell>
        <mxCell id="8-vhjSfCxEMlXP20aHc5-26" value="63.7" style="fontColor=#000000;verticalAlign=top;verticalLabelPosition=bottom;labelPosition=center;align=center;html=1;outlineConnect=0;fillColor=#3333FF;strokeColor=#000000;gradientColor=none;gradientDirection=north;strokeWidth=2;shape=mxgraph.networks.ups_small;fontSize=20;fontStyle=1;fontFamily=Tahoma;" parent="MNlX_nt-DRllQFXPWfFi-0" vertex="1">
          <mxGeometry x="2900" y="-140" width="42" height="60" as="geometry" />
        </mxCell>
        <mxCell id="8-vhjSfCxEMlXP20aHc5-27" value="63.6" style="fontColor=#000000;verticalAlign=top;verticalLabelPosition=bottom;labelPosition=center;align=center;html=1;outlineConnect=0;fillColor=#3333FF;strokeColor=#000000;gradientColor=none;gradientDirection=north;strokeWidth=2;shape=mxgraph.networks.ups_small;fontSize=20;fontStyle=1;fontFamily=Tahoma;" parent="MNlX_nt-DRllQFXPWfFi-0" vertex="1">
          <mxGeometry x="2900" y="610" width="42" height="60" as="geometry" />
        </mxCell>
        <mxCell id="p7U41ayXRWuReT35flp4-0" value="65.06" style="fontColor=#000000;verticalAlign=top;verticalLabelPosition=bottom;labelPosition=center;align=center;html=1;outlineConnect=0;fillColor=#009999;strokeColor=#000000;gradientColor=none;gradientDirection=north;strokeWidth=2;shape=mxgraph.networks.ups_small;fontSize=20;fontStyle=1;fontFamily=Tahoma;" parent="MNlX_nt-DRllQFXPWfFi-0" vertex="1">
          <mxGeometry x="900" y="310" width="42" height="60" as="geometry" />
        </mxCell>
        <mxCell id="p7U41ayXRWuReT35flp4-1" value="65.07" style="fontColor=#000000;verticalAlign=top;verticalLabelPosition=bottom;labelPosition=center;align=center;html=1;outlineConnect=0;fillColor=#009999;strokeColor=#000000;gradientColor=none;gradientDirection=north;strokeWidth=2;shape=mxgraph.networks.ups_small;fontSize=20;fontStyle=1;fontFamily=Tahoma;" parent="MNlX_nt-DRllQFXPWfFi-0" vertex="1">
          <mxGeometry x="500" y="610" width="42" height="60" as="geometry" />
        </mxCell>
        <mxCell id="p7U41ayXRWuReT35flp4-2" value="65.08" style="fontColor=#000000;verticalAlign=top;verticalLabelPosition=bottom;labelPosition=center;align=center;html=1;outlineConnect=0;fillColor=#009999;strokeColor=#000000;gradientColor=none;gradientDirection=north;strokeWidth=2;shape=mxgraph.networks.ups_small;fontSize=20;fontStyle=1;fontFamily=Tahoma;" parent="MNlX_nt-DRllQFXPWfFi-0" vertex="1">
          <mxGeometry x="900" y="610" width="42" height="60" as="geometry" />
        </mxCell>
        <mxCell id="p7U41ayXRWuReT35flp4-3" value="65.09" style="fontColor=#000000;verticalAlign=top;verticalLabelPosition=bottom;labelPosition=center;align=center;html=1;outlineConnect=0;fillColor=#009999;strokeColor=#000000;gradientColor=none;gradientDirection=north;strokeWidth=2;shape=mxgraph.networks.ups_small;fontSize=20;fontStyle=1;fontFamily=Tahoma;" parent="MNlX_nt-DRllQFXPWfFi-0" vertex="1">
          <mxGeometry x="100" y="910" width="42" height="60" as="geometry" />
        </mxCell>
        <mxCell id="p7U41ayXRWuReT35flp4-4" value="65.12" style="fontColor=#000000;verticalAlign=top;verticalLabelPosition=bottom;labelPosition=center;align=center;html=1;outlineConnect=0;fillColor=#009999;strokeColor=#000000;gradientColor=none;gradientDirection=north;strokeWidth=2;shape=mxgraph.networks.ups_small;fontSize=20;fontStyle=1;fontFamily=Tahoma;" parent="MNlX_nt-DRllQFXPWfFi-0" vertex="1">
          <mxGeometry x="900" y="1510" width="42" height="60" as="geometry" />
        </mxCell>
        <mxCell id="p7U41ayXRWuReT35flp4-5" value="65.10" style="fontColor=#000000;verticalAlign=top;verticalLabelPosition=bottom;labelPosition=center;align=center;html=1;outlineConnect=0;fillColor=#009999;strokeColor=#000000;gradientColor=none;gradientDirection=north;strokeWidth=2;shape=mxgraph.networks.ups_small;fontSize=20;fontStyle=1;fontFamily=Tahoma;" parent="MNlX_nt-DRllQFXPWfFi-0" vertex="1">
          <mxGeometry x="100" y="1210" width="42" height="60" as="geometry" />
        </mxCell>
        <mxCell id="p7U41ayXRWuReT35flp4-6" value="65.11" style="fontColor=#000000;verticalAlign=top;verticalLabelPosition=bottom;labelPosition=center;align=center;html=1;outlineConnect=0;fillColor=#009999;strokeColor=#000000;gradientColor=none;gradientDirection=north;strokeWidth=2;shape=mxgraph.networks.ups_small;fontSize=20;fontStyle=1;fontFamily=Tahoma;" parent="MNlX_nt-DRllQFXPWfFi-0" vertex="1">
          <mxGeometry x="100" y="1510" width="42" height="60" as="geometry" />
        </mxCell>
        <mxCell id="p7U41ayXRWuReT35flp4-9" value="65.14" style="fontColor=#000000;verticalAlign=top;verticalLabelPosition=bottom;labelPosition=center;align=center;html=1;outlineConnect=0;fillColor=#009999;strokeColor=#000000;gradientColor=none;gradientDirection=north;strokeWidth=2;shape=mxgraph.networks.ups_small;fontSize=20;fontStyle=1;fontFamily=Tahoma;" parent="MNlX_nt-DRllQFXPWfFi-0" vertex="1">
          <mxGeometry x="2500" y="1810" width="42" height="60" as="geometry" />
        </mxCell>
        <mxCell id="p7U41ayXRWuReT35flp4-11" value="65.16" style="fontColor=#000000;verticalAlign=top;verticalLabelPosition=bottom;labelPosition=center;align=center;html=1;outlineConnect=0;fillColor=#009999;strokeColor=#000000;gradientColor=none;gradientDirection=north;strokeWidth=2;shape=mxgraph.networks.ups_small;fontSize=20;fontStyle=1;fontFamily=Tahoma;" parent="MNlX_nt-DRllQFXPWfFi-0" vertex="1">
          <mxGeometry x="2104" y="1810" width="42" height="60" as="geometry" />
        </mxCell>
        <mxCell id="p7U41ayXRWuReT35flp4-12" value="65.17" style="fontColor=#000000;verticalAlign=top;verticalLabelPosition=bottom;labelPosition=center;align=center;html=1;outlineConnect=0;fillColor=#009999;strokeColor=#000000;gradientColor=none;gradientDirection=north;strokeWidth=2;shape=mxgraph.networks.ups_small;fontSize=20;fontStyle=1;fontFamily=Tahoma;" parent="MNlX_nt-DRllQFXPWfFi-0" vertex="1">
          <mxGeometry x="1700" y="610" width="42" height="60" as="geometry" />
        </mxCell>
        <mxCell id="p7U41ayXRWuReT35flp4-14" value="65.18" style="fontColor=#000000;verticalAlign=top;verticalLabelPosition=bottom;labelPosition=center;align=center;html=1;outlineConnect=0;fillColor=#009999;strokeColor=#000000;gradientColor=none;gradientDirection=north;strokeWidth=2;shape=mxgraph.networks.ups_small;fontSize=20;fontStyle=1;fontFamily=Tahoma;" parent="MNlX_nt-DRllQFXPWfFi-0" vertex="1">
          <mxGeometry x="2900" y="1510" width="42" height="60" as="geometry" />
        </mxCell>
        <mxCell id="p7U41ayXRWuReT35flp4-15" value="65.19" style="fontColor=#000000;verticalAlign=top;verticalLabelPosition=bottom;labelPosition=center;align=center;html=1;outlineConnect=0;fillColor=#009999;strokeColor=#000000;gradientColor=none;gradientDirection=north;strokeWidth=2;shape=mxgraph.networks.ups_small;fontSize=20;fontStyle=1;fontFamily=Tahoma;" parent="MNlX_nt-DRllQFXPWfFi-0" vertex="1">
          <mxGeometry x="3300" y="1510" width="42" height="60" as="geometry" />
        </mxCell>
        <mxCell id="p7U41ayXRWuReT35flp4-16" value="65.20" style="fontColor=#000000;verticalAlign=top;verticalLabelPosition=bottom;labelPosition=center;align=center;html=1;outlineConnect=0;fillColor=#009999;strokeColor=#000000;gradientColor=none;gradientDirection=north;strokeWidth=2;shape=mxgraph.networks.ups_small;fontSize=20;fontStyle=1;fontFamily=Tahoma;" parent="MNlX_nt-DRllQFXPWfFi-0" vertex="1">
          <mxGeometry x="1700" y="910" width="42" height="60" as="geometry" />
        </mxCell>
        <mxCell id="p7U41ayXRWuReT35flp4-19" value="65.21" style="fontColor=#000000;verticalAlign=top;verticalLabelPosition=bottom;labelPosition=center;align=center;html=1;outlineConnect=0;fillColor=#009999;strokeColor=#000000;gradientColor=none;gradientDirection=north;strokeWidth=2;shape=mxgraph.networks.ups_small;fontSize=20;fontStyle=1;fontFamily=Tahoma;" parent="MNlX_nt-DRllQFXPWfFi-0" vertex="1">
          <mxGeometry x="1700" y="310" width="42" height="60" as="geometry" />
        </mxCell>
        <mxCell id="p7U41ayXRWuReT35flp4-20" value="65.22" style="fontColor=#000000;verticalAlign=top;verticalLabelPosition=bottom;labelPosition=center;align=center;html=1;outlineConnect=0;fillColor=#009999;strokeColor=#000000;gradientColor=none;gradientDirection=north;strokeWidth=2;shape=mxgraph.networks.ups_small;fontSize=20;fontStyle=1;fontFamily=Tahoma;" parent="MNlX_nt-DRllQFXPWfFi-0" vertex="1">
          <mxGeometry x="2140" y="610" width="42" height="60" as="geometry" />
        </mxCell>
        <mxCell id="p7U41ayXRWuReT35flp4-25" value="65.23" style="fontColor=#000000;verticalAlign=top;verticalLabelPosition=bottom;labelPosition=center;align=center;html=1;outlineConnect=0;fillColor=#009999;strokeColor=#000000;gradientColor=none;gradientDirection=north;strokeWidth=2;shape=mxgraph.networks.ups_small;fontSize=20;fontStyle=1;fontFamily=Tahoma;" parent="MNlX_nt-DRllQFXPWfFi-0" vertex="1">
          <mxGeometry x="2500" y="610" width="42" height="60" as="geometry" />
        </mxCell>
        <mxCell id="p7U41ayXRWuReT35flp4-27" value="65.24" style="fontColor=#000000;verticalAlign=top;verticalLabelPosition=bottom;labelPosition=center;align=center;html=1;outlineConnect=0;fillColor=#009999;strokeColor=#000000;gradientColor=none;gradientDirection=north;strokeWidth=2;shape=mxgraph.networks.ups_small;fontSize=20;fontStyle=1;fontFamily=Tahoma;" parent="MNlX_nt-DRllQFXPWfFi-0" vertex="1">
          <mxGeometry x="2900" y="910" width="42" height="60" as="geometry" />
        </mxCell>
        <mxCell id="p7U41ayXRWuReT35flp4-28" value="65.25" style="fontColor=#000000;verticalAlign=top;verticalLabelPosition=bottom;labelPosition=center;align=center;html=1;outlineConnect=0;fillColor=#009999;strokeColor=#000000;gradientColor=none;gradientDirection=north;strokeWidth=2;shape=mxgraph.networks.ups_small;fontSize=20;fontStyle=1;fontFamily=Tahoma;" parent="MNlX_nt-DRllQFXPWfFi-0" vertex="1">
          <mxGeometry x="1300" y="1510" width="42" height="60" as="geometry" />
        </mxCell>
        <mxCell id="p7U41ayXRWuReT35flp4-29" value="65.26" style="fontColor=#000000;verticalAlign=top;verticalLabelPosition=bottom;labelPosition=center;align=center;html=1;outlineConnect=0;fillColor=#009999;strokeColor=#000000;gradientColor=none;gradientDirection=north;strokeWidth=2;shape=mxgraph.networks.ups_small;fontSize=20;fontStyle=1;fontFamily=Tahoma;" parent="MNlX_nt-DRllQFXPWfFi-0" vertex="1">
          <mxGeometry x="3700" y="-140" width="42" height="60" as="geometry" />
        </mxCell>
        <mxCell id="p7U41ayXRWuReT35flp4-30" value="65.27" style="fontColor=#000000;verticalAlign=top;verticalLabelPosition=bottom;labelPosition=center;align=center;html=1;outlineConnect=0;fillColor=#009999;strokeColor=#000000;gradientColor=none;gradientDirection=north;strokeWidth=2;shape=mxgraph.networks.ups_small;fontSize=20;fontStyle=1;fontFamily=Tahoma;" parent="MNlX_nt-DRllQFXPWfFi-0" vertex="1">
          <mxGeometry x="3700" y="310" width="42" height="60" as="geometry" />
        </mxCell>
        <mxCell id="vrnas719oJ4A_Dz5osSf-15" value="65.19" style="fontColor=#000000;verticalAlign=top;verticalLabelPosition=bottom;labelPosition=center;align=center;html=1;outlineConnect=0;fillColor=#009999;strokeColor=#000000;gradientColor=none;gradientDirection=north;strokeWidth=2;shape=mxgraph.networks.ups_small;fontSize=20;fontStyle=1;fontFamily=Tahoma;" parent="MNlX_nt-DRllQFXPWfFi-0" vertex="1">
          <mxGeometry x="2500" y="1510" width="42" height="60" as="geometry" />
        </mxCell>
        <mxCell id="vrnas719oJ4A_Dz5osSf-16" value="65.15" style="fontColor=#000000;verticalAlign=top;verticalLabelPosition=bottom;labelPosition=center;align=center;html=1;outlineConnect=0;fillColor=#009999;strokeColor=#000000;gradientColor=none;gradientDirection=north;strokeWidth=2;shape=mxgraph.networks.ups_small;fontSize=20;fontStyle=1;fontFamily=Tahoma;" parent="MNlX_nt-DRllQFXPWfFi-0" vertex="1">
          <mxGeometry x="2900" y="1810" width="42" height="60" as="geometry" />
        </mxCell>
        <mxCell id="YS4ce7gFxmV2WK4-jLAW-3" value="58.11" style="fontColor=#0066CC;verticalAlign=top;verticalLabelPosition=bottom;labelPosition=center;align=center;html=1;outlineConnect=0;fillColor=#CCCCCC;strokeColor=#6881B3;gradientColor=none;gradientDirection=north;strokeWidth=2;shape=mxgraph.networks.ups_small;fontSize=20;fontStyle=1" parent="MNlX_nt-DRllQFXPWfFi-0" vertex="1">
          <mxGeometry x="2110" y="1510" width="70" height="100" as="geometry" />
        </mxCell>
        <mxCell id="W_UPt4zRYAUl43Yc6QiR-1" value="CCTV" style="" parent="f-TOPqAcIMhOfcNf-VaI-0" visible="0" />
        <mxCell id="gr64Rv-Qc9_aL7X8IwT_-0" value="" style="shape=image;html=1;verticalAlign=top;verticalLabelPosition=bottom;labelBackgroundColor=#ffffff;imageAspect=0;aspect=fixed;image=https://cdn4.iconfinder.com/data/icons/business-finance-vol-12-2/512/6-128.png;gradientColor=#ffffff;fontSize=20;" parent="W_UPt4zRYAUl43Yc6QiR-1" vertex="1">
          <mxGeometry x="1059" y="1280" width="58" height="58" as="geometry" />
        </mxCell>
        <mxCell id="gr64Rv-Qc9_aL7X8IwT_-1" value="" style="shape=image;html=1;verticalAlign=top;verticalLabelPosition=bottom;labelBackgroundColor=#ffffff;imageAspect=0;aspect=fixed;image=https://cdn4.iconfinder.com/data/icons/business-finance-vol-12-2/512/6-128.png;gradientColor=#ffffff;fontSize=20;" parent="W_UPt4zRYAUl43Yc6QiR-1" vertex="1">
          <mxGeometry x="2549" y="1476" width="58" height="58" as="geometry" />
        </mxCell>
        <mxCell id="gr64Rv-Qc9_aL7X8IwT_-2" value="" style="shape=image;html=1;verticalAlign=top;verticalLabelPosition=bottom;labelBackgroundColor=#ffffff;imageAspect=0;aspect=fixed;image=https://cdn4.iconfinder.com/data/icons/business-finance-vol-12-2/512/6-128.png;gradientColor=#ffffff;fontSize=20;" parent="W_UPt4zRYAUl43Yc6QiR-1" vertex="1">
          <mxGeometry x="2669" y="1130" width="58" height="58" as="geometry" />
        </mxCell>
        <mxCell id="gr64Rv-Qc9_aL7X8IwT_-3" value="1&lt;br style=&quot;font-size: 20px;&quot;&gt;" style="shape=image;html=1;verticalAlign=top;verticalLabelPosition=bottom;labelBackgroundColor=#ffffff;imageAspect=0;aspect=fixed;image=https://cdn4.iconfinder.com/data/icons/business-finance-vol-12-2/512/6-128.png;gradientColor=#ffffff;fontSize=20;" parent="W_UPt4zRYAUl43Yc6QiR-1" vertex="1">
          <mxGeometry x="204" y="1130" width="58" height="58" as="geometry" />
        </mxCell>
        <mxCell id="gr64Rv-Qc9_aL7X8IwT_-4" value="" style="shape=image;html=1;verticalAlign=top;verticalLabelPosition=bottom;labelBackgroundColor=#ffffff;imageAspect=0;aspect=fixed;image=https://cdn4.iconfinder.com/data/icons/business-finance-vol-12-2/512/6-128.png;gradientColor=#ffffff;fontSize=20;" parent="W_UPt4zRYAUl43Yc6QiR-1" vertex="1">
          <mxGeometry x="1094" y="655" width="58" height="58" as="geometry" />
        </mxCell>
        <mxCell id="gr64Rv-Qc9_aL7X8IwT_-5" value="" style="shape=image;html=1;verticalAlign=top;verticalLabelPosition=bottom;labelBackgroundColor=#ffffff;imageAspect=0;aspect=fixed;image=https://cdn4.iconfinder.com/data/icons/business-finance-vol-12-2/512/6-128.png;gradientColor=#ffffff;fontSize=20;" parent="W_UPt4zRYAUl43Yc6QiR-1" vertex="1">
          <mxGeometry x="1189" y="315" width="58" height="58" as="geometry" />
        </mxCell>
        <mxCell id="gr64Rv-Qc9_aL7X8IwT_-6" value="" style="shape=image;html=1;verticalAlign=top;verticalLabelPosition=bottom;labelBackgroundColor=#ffffff;imageAspect=0;aspect=fixed;image=https://cdn4.iconfinder.com/data/icons/business-finance-vol-12-2/512/6-128.png;gradientColor=#ffffff;fontSize=20;" parent="W_UPt4zRYAUl43Yc6QiR-1" vertex="1">
          <mxGeometry x="1530" y="210" width="58" height="58" as="geometry" />
        </mxCell>
        <mxCell id="gr64Rv-Qc9_aL7X8IwT_-7" value="" style="shape=image;html=1;verticalAlign=top;verticalLabelPosition=bottom;labelBackgroundColor=#ffffff;imageAspect=0;aspect=fixed;image=https://cdn4.iconfinder.com/data/icons/business-finance-vol-12-2/512/6-128.png;gradientColor=#ffffff;fontSize=20;" parent="W_UPt4zRYAUl43Yc6QiR-1" vertex="1">
          <mxGeometry x="2359" y="235" width="58" height="58" as="geometry" />
        </mxCell>
        <mxCell id="gr64Rv-Qc9_aL7X8IwT_-8" value="" style="shape=image;html=1;verticalAlign=top;verticalLabelPosition=bottom;labelBackgroundColor=#ffffff;imageAspect=0;aspect=fixed;image=https://cdn4.iconfinder.com/data/icons/business-finance-vol-12-2/512/6-128.png;gradientColor=#ffffff;fontSize=20;" parent="W_UPt4zRYAUl43Yc6QiR-1" vertex="1">
          <mxGeometry x="2364" y="315" width="58" height="58" as="geometry" />
        </mxCell>
        <mxCell id="gr64Rv-Qc9_aL7X8IwT_-9" value="" style="shape=image;html=1;verticalAlign=top;verticalLabelPosition=bottom;labelBackgroundColor=#ffffff;imageAspect=0;aspect=fixed;image=https://cdn4.iconfinder.com/data/icons/business-finance-vol-12-2/512/6-128.png;gradientColor=#ffffff;fontSize=20;" parent="W_UPt4zRYAUl43Yc6QiR-1" vertex="1">
          <mxGeometry x="1174" y="1115" width="58" height="58" as="geometry" />
        </mxCell>
        <mxCell id="gr64Rv-Qc9_aL7X8IwT_-10" value="" style="shape=image;html=1;verticalAlign=top;verticalLabelPosition=bottom;labelBackgroundColor=#ffffff;imageAspect=0;aspect=fixed;image=https://cdn4.iconfinder.com/data/icons/business-finance-vol-12-2/512/6-128.png;gradientColor=#ffffff;fontSize=20;" parent="W_UPt4zRYAUl43Yc6QiR-1" vertex="1">
          <mxGeometry x="2364" y="1350" width="58" height="58" as="geometry" />
        </mxCell>
        <mxCell id="gr64Rv-Qc9_aL7X8IwT_-11" value="" style="shape=image;html=1;verticalAlign=top;verticalLabelPosition=bottom;labelBackgroundColor=#ffffff;imageAspect=0;aspect=fixed;image=https://cdn4.iconfinder.com/data/icons/business-finance-vol-12-2/512/6-128.png;gradientColor=#ffffff;fontSize=20;" parent="W_UPt4zRYAUl43Yc6QiR-1" vertex="1">
          <mxGeometry x="2659" y="710" width="58" height="58" as="geometry" />
        </mxCell>
        <mxCell id="gr64Rv-Qc9_aL7X8IwT_-12" value="" style="shape=image;html=1;verticalAlign=top;verticalLabelPosition=bottom;labelBackgroundColor=#ffffff;imageAspect=0;aspect=fixed;image=https://cdn4.iconfinder.com/data/icons/business-finance-vol-12-2/512/6-128.png;gradientColor=#ffffff;fontSize=20;" parent="W_UPt4zRYAUl43Yc6QiR-1" vertex="1">
          <mxGeometry x="1481" y="1490" width="58" height="58" as="geometry" />
        </mxCell>
        <mxCell id="gr64Rv-Qc9_aL7X8IwT_-13" value="" style="shape=image;html=1;verticalAlign=top;verticalLabelPosition=bottom;labelBackgroundColor=#ffffff;imageAspect=0;aspect=fixed;image=https://cdn4.iconfinder.com/data/icons/business-finance-vol-12-2/512/6-128.png;gradientColor=#ffffff;fontSize=20;" parent="W_UPt4zRYAUl43Yc6QiR-1" vertex="1">
          <mxGeometry x="3120" y="330" width="58" height="58" as="geometry" />
        </mxCell>
        <mxCell id="gr64Rv-Qc9_aL7X8IwT_-14" value="" style="shape=image;html=1;verticalAlign=top;verticalLabelPosition=bottom;labelBackgroundColor=#ffffff;imageAspect=0;aspect=fixed;image=https://cdn4.iconfinder.com/data/icons/business-finance-vol-12-2/512/6-128.png;gradientColor=#ffffff;fontSize=20;" parent="W_UPt4zRYAUl43Yc6QiR-1" vertex="1">
          <mxGeometry x="170" y="2210" width="58" height="58" as="geometry" />
        </mxCell>
        <mxCell id="gr64Rv-Qc9_aL7X8IwT_-15" value="" style="shape=image;html=1;verticalAlign=top;verticalLabelPosition=bottom;labelBackgroundColor=#ffffff;imageAspect=0;aspect=fixed;image=https://cdn4.iconfinder.com/data/icons/business-finance-vol-12-2/512/6-128.png;gradientColor=#ffffff;fontSize=20;" parent="W_UPt4zRYAUl43Yc6QiR-1" vertex="1">
          <mxGeometry x="1180" y="1260" width="58" height="58" as="geometry" />
        </mxCell>
        <mxCell id="rpUUbd4xTOG-b0lQRVZq-1" value="" style="verticalLabelPosition=bottom;verticalAlign=top;html=1;shape=mxgraph.basic.cone;rotation=-45;dashed=1;dashPattern=1 1;gradientDirection=south;gradientColor=#F4F2FF;strokeColor=#5912FF;fillColor=#7A66FF;opacity=90;" parent="W_UPt4zRYAUl43Yc6QiR-1" vertex="1">
          <mxGeometry x="2650" y="1120" width="280" height="230" as="geometry" />
        </mxCell>
        <mxCell id="rpUUbd4xTOG-b0lQRVZq-2" value="" style="verticalLabelPosition=bottom;verticalAlign=top;html=1;shape=mxgraph.basic.cone;rotation=45;dashed=1;dashPattern=1 1;gradientDirection=south;gradientColor=#F4F2FF;strokeColor=#5912FF;fillColor=#7A66FF;opacity=90;" parent="W_UPt4zRYAUl43Yc6QiR-1" vertex="1">
          <mxGeometry x="1280" y="1500" width="280" height="230" as="geometry" />
        </mxCell>
        <mxCell id="rpUUbd4xTOG-b0lQRVZq-3" value="" style="verticalLabelPosition=bottom;verticalAlign=top;html=1;shape=mxgraph.basic.cone;rotation=-195;dashed=1;dashPattern=1 1;gradientDirection=south;gradientColor=#F4F2FF;strokeColor=#5912FF;fillColor=#7A66FF;opacity=90;" parent="W_UPt4zRYAUl43Yc6QiR-1" vertex="1">
          <mxGeometry x="2220" y="30" width="280" height="230" as="geometry" />
        </mxCell>
        <mxCell id="rpUUbd4xTOG-b0lQRVZq-4" value="" style="verticalLabelPosition=bottom;verticalAlign=top;html=1;shape=mxgraph.basic.cone;rotation=-150;dashed=1;dashPattern=1 1;gradientDirection=south;gradientColor=#F4F2FF;strokeColor=#5912FF;fillColor=#7A66FF;opacity=90;" parent="W_UPt4zRYAUl43Yc6QiR-1" vertex="1">
          <mxGeometry x="2607" y="530" width="280" height="230" as="geometry" />
        </mxCell>
        <mxCell id="rpUUbd4xTOG-b0lQRVZq-5" value="" style="verticalLabelPosition=bottom;verticalAlign=top;html=1;shape=mxgraph.basic.cone;rotation=-133;dashed=1;dashPattern=1 1;gradientDirection=south;gradientColor=#F4F2FF;strokeColor=#5912FF;fillColor=#7A66FF;opacity=90;" parent="W_UPt4zRYAUl43Yc6QiR-1" vertex="1">
          <mxGeometry x="180" y="970" width="280" height="230" as="geometry" />
        </mxCell>
        <mxCell id="rpUUbd4xTOG-b0lQRVZq-6" value="" style="verticalLabelPosition=bottom;verticalAlign=top;html=1;shape=mxgraph.basic.cone;rotation=45;dashed=1;dashPattern=1 1;gradientDirection=south;gradientColor=#F4F2FF;strokeColor=#5912FF;fillColor=#7A66FF;opacity=90;" parent="W_UPt4zRYAUl43Yc6QiR-1" vertex="1">
          <mxGeometry x="860" y="1280" width="280" height="230" as="geometry" />
        </mxCell>
        <mxCell id="rpUUbd4xTOG-b0lQRVZq-7" value="" style="verticalLabelPosition=bottom;verticalAlign=top;html=1;shape=mxgraph.basic.cone;rotation=45;dashed=1;dashPattern=1 1;gradientDirection=south;gradientColor=#F4F2FF;strokeColor=#5912FF;fillColor=#7A66FF;opacity=90;" parent="W_UPt4zRYAUl43Yc6QiR-1" vertex="1">
          <mxGeometry x="2350" y="1476" width="280" height="230" as="geometry" />
        </mxCell>
        <mxCell id="rpUUbd4xTOG-b0lQRVZq-8" value="" style="verticalLabelPosition=bottom;verticalAlign=top;html=1;shape=mxgraph.basic.cone;rotation=-133;dashed=1;dashPattern=1 1;gradientDirection=south;gradientColor=#F4F2FF;strokeColor=#5912FF;fillColor=#7A66FF;opacity=90;" parent="W_UPt4zRYAUl43Yc6QiR-1" vertex="1">
          <mxGeometry x="1160" y="940" width="280" height="230" as="geometry" />
        </mxCell>
        <mxCell id="rpUUbd4xTOG-b0lQRVZq-9" value="" style="verticalLabelPosition=bottom;verticalAlign=top;html=1;shape=mxgraph.basic.cone;rotation=-90;dashed=1;dashPattern=1 1;gradientDirection=south;gradientColor=#F4F2FF;opacity=90;fillColor=#FFA41C;strokeColor=#FF0D0D;" parent="W_UPt4zRYAUl43Yc6QiR-1" vertex="1">
          <mxGeometry x="310" y="2060.25" width="150" height="357.5" as="geometry" />
        </mxCell>
        <mxCell id="rpUUbd4xTOG-b0lQRVZq-10" value="" style="verticalLabelPosition=bottom;verticalAlign=top;html=1;shape=mxgraph.basic.cone;rotation=-210;dashed=1;dashPattern=1 1;gradientDirection=south;gradientColor=#F4F2FF;strokeColor=#5912FF;fillColor=#7A66FF;opacity=90;" parent="W_UPt4zRYAUl43Yc6QiR-1" vertex="1">
          <mxGeometry x="930" y="460" width="280" height="230" as="geometry" />
        </mxCell>
        <mxCell id="rpUUbd4xTOG-b0lQRVZq-11" value="" style="verticalLabelPosition=bottom;verticalAlign=top;html=1;shape=mxgraph.basic.cone;rotation=-45;dashed=1;dashPattern=1 1;gradientDirection=south;gradientColor=#F4F2FF;strokeColor=#5912FF;fillColor=#7A66FF;opacity=90;" parent="W_UPt4zRYAUl43Yc6QiR-1" vertex="1">
          <mxGeometry x="1170" y="310" width="280" height="230" as="geometry" />
        </mxCell>
        <mxCell id="rpUUbd4xTOG-b0lQRVZq-12" value="" style="verticalLabelPosition=bottom;verticalAlign=top;html=1;shape=mxgraph.basic.cone;rotation=90;dashed=1;dashPattern=1 1;gradientDirection=south;gradientColor=#F4F2FF;strokeColor=#5912FF;fillColor=#7A66FF;opacity=90;" parent="W_UPt4zRYAUl43Yc6QiR-1" vertex="1">
          <mxGeometry x="1290" y="124" width="280" height="230" as="geometry" />
        </mxCell>
        <mxCell id="rpUUbd4xTOG-b0lQRVZq-13" value="" style="verticalLabelPosition=bottom;verticalAlign=top;html=1;shape=mxgraph.basic.cone;rotation=90;dashed=1;dashPattern=1 1;gradientDirection=south;gradientColor=#F4F2FF;strokeColor=#5912FF;fillColor=#7A66FF;opacity=90;" parent="W_UPt4zRYAUl43Yc6QiR-1" vertex="1">
          <mxGeometry x="2120" y="230" width="280" height="230" as="geometry" />
        </mxCell>
        <mxCell id="rpUUbd4xTOG-b0lQRVZq-15" value="" style="verticalLabelPosition=bottom;verticalAlign=top;html=1;shape=mxgraph.basic.cone;rotation=-90;dashed=1;dashPattern=1 1;gradientDirection=south;gradientColor=#F4F2FF;strokeColor=#5912FF;fillColor=#7A66FF;opacity=90;" parent="W_UPt4zRYAUl43Yc6QiR-1" vertex="1">
          <mxGeometry x="1189" y="1174" width="280" height="230" as="geometry" />
        </mxCell>
        <mxCell id="rpUUbd4xTOG-b0lQRVZq-16" value="" style="verticalLabelPosition=bottom;verticalAlign=top;html=1;shape=mxgraph.basic.cone;rotation=-180;dashed=1;dashPattern=1 1;gradientDirection=south;gradientColor=#F4F2FF;strokeColor=#5912FF;fillColor=#7A66FF;opacity=90;" parent="W_UPt4zRYAUl43Yc6QiR-1" vertex="1">
          <mxGeometry x="2253" y="1140" width="280" height="230" as="geometry" />
        </mxCell>
        <mxCell id="rpUUbd4xTOG-b0lQRVZq-17" value="" style="verticalLabelPosition=bottom;verticalAlign=top;html=1;shape=mxgraph.basic.cone;rotation=0;dashed=1;dashPattern=1 1;gradientDirection=south;gradientColor=#F4F2FF;opacity=90;fillColor=#FF8903;strokeColor=#FF2B1C;" parent="W_UPt4zRYAUl43Yc6QiR-1" vertex="1">
          <mxGeometry x="3054.5" y="355" width="189" height="390" as="geometry" />
        </mxCell>
        <mxCell id="UMbm4JfTCg6qUx0sTSbx-0" value="camera&lt;br&gt;&amp;nbsp;switch 8" style="aspect=fixed;perimeter=ellipsePerimeter;html=1;align=center;shadow=0;dashed=0;spacingTop=3;image;image=img/lib/active_directory/wiring_hub.svg;fontSize=33;fontColor=#FF0000;imageBackground=default;labelBackgroundColor=none;" parent="W_UPt4zRYAUl43Yc6QiR-1" vertex="1">
          <mxGeometry x="1490" y="1820" width="147.06" height="100" as="geometry" />
        </mxCell>
        <mxCell id="cs5eDjazcrXGXVDgT8lF-0" value="CCTV (New)" style="" parent="f-TOPqAcIMhOfcNf-VaI-0" visible="0" />
        <mxCell id="7N00hzlJdUgd6uboJZE--15" value="" style="verticalLabelPosition=bottom;verticalAlign=top;html=1;shape=mxgraph.basic.cone2;dx=0.5;dy=0.9;fillColor=#FF99CC;gradientColor=#ffffff;strokeColor=none;rotation=-80;" parent="cs5eDjazcrXGXVDgT8lF-0" vertex="1">
          <mxGeometry x="190" y="1640" width="320" height="1060" as="geometry" />
        </mxCell>
        <mxCell id="7N00hzlJdUgd6uboJZE--14" value="" style="verticalLabelPosition=bottom;verticalAlign=top;html=1;shape=mxgraph.basic.cone2;dx=0.5;dy=0.9;fillColor=#FF99CC;gradientColor=#ffffff;strokeColor=none;rotation=80;" parent="cs5eDjazcrXGXVDgT8lF-0" vertex="1">
          <mxGeometry x="3340" y="1640" width="320" height="1060" as="geometry" />
        </mxCell>
        <mxCell id="7N00hzlJdUgd6uboJZE--27" value="" style="verticalLabelPosition=bottom;verticalAlign=top;html=1;shape=mxgraph.basic.pie;startAngle=0.9536132104611288;endAngle=0.3149142032318947;fontSize=40;fontColor=#007FFF;fillColor=#CC99FF;strokeColor=none;gradientColor=#ffffff;gradientDirection=north;fontStyle=1;rotation=90;" parent="cs5eDjazcrXGXVDgT8lF-0" vertex="1">
          <mxGeometry x="3350" y="1330" width="320" height="320" as="geometry" />
        </mxCell>
        <mxCell id="7N00hzlJdUgd6uboJZE--26" value="" style="verticalLabelPosition=bottom;verticalAlign=top;html=1;shape=mxgraph.basic.pie;startAngle=0.9536132104611288;endAngle=0.3149142032318947;fontSize=40;fontColor=#007FFF;fillColor=#CC99FF;strokeColor=none;gradientColor=#ffffff;gradientDirection=north;fontStyle=1;rotation=90;" parent="cs5eDjazcrXGXVDgT8lF-0" vertex="1">
          <mxGeometry x="3340" y="80" width="320" height="320" as="geometry" />
        </mxCell>
        <mxCell id="7N00hzlJdUgd6uboJZE--25" value="" style="verticalLabelPosition=bottom;verticalAlign=top;html=1;shape=mxgraph.basic.pie;startAngle=0.9536132104611288;endAngle=0.3149142032318947;fontSize=40;fontColor=#007FFF;fillColor=#CC99FF;strokeColor=none;gradientColor=#ffffff;gradientDirection=north;fontStyle=1;rotation=90;" parent="cs5eDjazcrXGXVDgT8lF-0" vertex="1">
          <mxGeometry x="-316" y="-320" width="320" height="320" as="geometry" />
        </mxCell>
        <mxCell id="7N00hzlJdUgd6uboJZE--24" value="" style="verticalLabelPosition=bottom;verticalAlign=top;html=1;shape=mxgraph.basic.pie;startAngle=0.9536132104611288;endAngle=0.3149142032318947;fontSize=40;fontColor=#007FFF;fillColor=#CC99FF;strokeColor=none;gradientColor=#ffffff;gradientDirection=north;fontStyle=1;rotation=-180;" parent="cs5eDjazcrXGXVDgT8lF-0" vertex="1">
          <mxGeometry x="1600" y="1330" width="320" height="320" as="geometry" />
        </mxCell>
        <mxCell id="7N00hzlJdUgd6uboJZE--23" value="" style="verticalLabelPosition=bottom;verticalAlign=top;html=1;shape=mxgraph.basic.pie;startAngle=0.9536132104611288;endAngle=0.3149142032318947;fontSize=40;fontColor=#007FFF;fillColor=#CC99FF;strokeColor=none;gradientColor=#ffffff;gradientDirection=north;fontStyle=1;rotation=-180;" parent="cs5eDjazcrXGXVDgT8lF-0" vertex="1">
          <mxGeometry x="816" y="1040" width="320" height="320" as="geometry" />
        </mxCell>
        <mxCell id="7N00hzlJdUgd6uboJZE--22" value="" style="verticalLabelPosition=bottom;verticalAlign=top;html=1;shape=mxgraph.basic.pie;startAngle=0.9536132104611288;endAngle=0.3149142032318947;fontSize=40;fontColor=#007FFF;fillColor=#CC99FF;strokeColor=none;gradientColor=#ffffff;gradientDirection=north;fontStyle=1;rotation=90;" parent="cs5eDjazcrXGXVDgT8lF-0" vertex="1">
          <mxGeometry x="-320" y="460" width="320" height="320" as="geometry" />
        </mxCell>
        <mxCell id="7N00hzlJdUgd6uboJZE--21" value="" style="verticalLabelPosition=bottom;verticalAlign=top;html=1;shape=mxgraph.basic.pie;startAngle=0.9536132104611288;endAngle=0.3149142032318947;fontSize=40;fontColor=#007FFF;fillColor=#CC99FF;strokeColor=none;gradientColor=#ffffff;gradientDirection=north;fontStyle=1;rotation=90;" parent="cs5eDjazcrXGXVDgT8lF-0" vertex="1">
          <mxGeometry x="294" y="654" width="320" height="320" as="geometry" />
        </mxCell>
        <mxCell id="7N00hzlJdUgd6uboJZE--19" value="" style="verticalLabelPosition=bottom;verticalAlign=top;html=1;shape=mxgraph.basic.pie;startAngle=0.815970818035741;endAngle=0.18486649283900608;fontSize=40;fontColor=#007FFF;fillColor=#CC99FF;strokeColor=none;gradientColor=#ffffff;gradientDirection=north;fontStyle=1" parent="cs5eDjazcrXGXVDgT8lF-0" vertex="1">
          <mxGeometry x="1314" y="308" width="320" height="320" as="geometry" />
        </mxCell>
        <mxCell id="7N00hzlJdUgd6uboJZE--20" value="" style="verticalLabelPosition=bottom;verticalAlign=top;html=1;shape=mxgraph.basic.pie;startAngle=0.815970818035741;endAngle=0.18486649283900608;fontSize=40;fontColor=#007FFF;fillColor=#CC99FF;strokeColor=none;gradientColor=#ffffff;gradientDirection=north;fontStyle=1" parent="cs5eDjazcrXGXVDgT8lF-0" vertex="1">
          <mxGeometry x="2090" y="310" width="320" height="320" as="geometry" />
        </mxCell>
        <mxCell id="7N00hzlJdUgd6uboJZE--17" value="" style="verticalLabelPosition=bottom;verticalAlign=top;html=1;shape=mxgraph.basic.pie;startAngle=0.31981376386920374;endAngle=0.6787749838213741;fontSize=40;fontColor=#007FFF;fillColor=#CC99FF;strokeColor=none;gradientColor=#ffffff;gradientDirection=south;fontStyle=1" parent="cs5eDjazcrXGXVDgT8lF-0" vertex="1">
          <mxGeometry x="1300" y="-110" width="320" height="320" as="geometry" />
        </mxCell>
        <mxCell id="7N00hzlJdUgd6uboJZE--18" value="" style="verticalLabelPosition=bottom;verticalAlign=top;html=1;shape=mxgraph.basic.pie;startAngle=0.31981376386920374;endAngle=0.6787749838213741;fontSize=40;fontColor=#007FFF;fillColor=#CC99FF;strokeColor=none;gradientColor=#ffffff;gradientDirection=south;fontStyle=1" parent="cs5eDjazcrXGXVDgT8lF-0" vertex="1">
          <mxGeometry x="2090" y="-110" width="320" height="320" as="geometry" />
        </mxCell>
        <mxCell id="7N00hzlJdUgd6uboJZE--16" value="" style="verticalLabelPosition=bottom;verticalAlign=top;html=1;shape=mxgraph.basic.pie;startAngle=0.9536132104611288;endAngle=0.3149142032318947;fontSize=40;fontColor=#007FFF;fillColor=#CC99FF;strokeColor=none;gradientColor=#ffffff;gradientDirection=north;fontStyle=1" parent="cs5eDjazcrXGXVDgT8lF-0" vertex="1">
          <mxGeometry x="2510" y="326" width="320" height="320" as="geometry" />
        </mxCell>
        <mxCell id="cs5eDjazcrXGXVDgT8lF-41" value="" style="verticalLabelPosition=bottom;verticalAlign=top;html=1;shape=mxgraph.basic.pie;startAngle=0.815970818035741;endAngle=0.18486649283900608;fontSize=40;fontColor=#007FFF;fillColor=#CC99FF;strokeColor=none;gradientColor=#ffffff;gradientDirection=north;fontStyle=1" parent="cs5eDjazcrXGXVDgT8lF-0" vertex="1">
          <mxGeometry x="290" y="318" width="320" height="320" as="geometry" />
        </mxCell>
        <mxCell id="cs5eDjazcrXGXVDgT8lF-40" value="" style="verticalLabelPosition=bottom;verticalAlign=top;html=1;shape=mxgraph.basic.pie;startAngle=0.815970818035741;endAngle=0.18486649283900608;fontSize=40;fontColor=#007FFF;fillColor=#CC99FF;strokeColor=none;gradientColor=#ffffff;gradientDirection=north;fontStyle=1" parent="cs5eDjazcrXGXVDgT8lF-0" vertex="1">
          <mxGeometry x="694" y="318" width="320" height="320" as="geometry" />
        </mxCell>
        <mxCell id="cs5eDjazcrXGXVDgT8lF-35" value="" style="verticalLabelPosition=bottom;verticalAlign=top;html=1;shape=mxgraph.basic.pie;startAngle=0.31981376386920374;endAngle=0.6787749838213741;fontSize=40;fontColor=#007FFF;fillColor=#CC99FF;strokeColor=none;gradientColor=#ffffff;gradientDirection=south;fontStyle=1" parent="cs5eDjazcrXGXVDgT8lF-0" vertex="1">
          <mxGeometry x="-106" y="-110" width="320" height="320" as="geometry" />
        </mxCell>
        <mxCell id="cs5eDjazcrXGXVDgT8lF-34" value="" style="verticalLabelPosition=bottom;verticalAlign=top;html=1;shape=mxgraph.basic.pie;startAngle=0.31981376386920374;endAngle=0.6787749838213741;fontSize=40;fontColor=#007FFF;fillColor=#CC99FF;strokeColor=none;gradientColor=#ffffff;gradientDirection=south;fontStyle=1" parent="cs5eDjazcrXGXVDgT8lF-0" vertex="1">
          <mxGeometry x="290" y="-116" width="320" height="320" as="geometry" />
        </mxCell>
        <mxCell id="cs5eDjazcrXGXVDgT8lF-29" value="" style="verticalLabelPosition=bottom;verticalAlign=top;html=1;shape=mxgraph.basic.pie;startAngle=0.6704115876315313;endAngle=0.061175154157809025;fontSize=40;fontColor=#007FFF;fillColor=#CC99FF;strokeColor=none;gradientColor=#ffffff;gradientDirection=north;fontStyle=1" parent="cs5eDjazcrXGXVDgT8lF-0" vertex="1">
          <mxGeometry x="3180" y="1750" width="320" height="320" as="geometry" />
        </mxCell>
        <mxCell id="cs5eDjazcrXGXVDgT8lF-28" value="" style="verticalLabelPosition=bottom;verticalAlign=top;html=1;shape=mxgraph.basic.pie;startAngle=0.6704115876315313;endAngle=0.061175154157809025;fontSize=40;fontColor=#007FFF;fillColor=#CC99FF;strokeColor=none;gradientColor=#ffffff;gradientDirection=north;fontStyle=1" parent="cs5eDjazcrXGXVDgT8lF-0" vertex="1">
          <mxGeometry x="3170" y="1150" width="320" height="320" as="geometry" />
        </mxCell>
        <mxCell id="cs5eDjazcrXGXVDgT8lF-25" value="" style="verticalLabelPosition=bottom;verticalAlign=top;html=1;shape=mxgraph.basic.pie;startAngle=0.9536132104611288;endAngle=0.3149142032318947;fontSize=40;fontColor=#007FFF;fillColor=#CC99FF;strokeColor=none;gradientColor=#ffffff;gradientDirection=north;fontStyle=1" parent="cs5eDjazcrXGXVDgT8lF-0" vertex="1">
          <mxGeometry x="990" y="1160" width="320" height="320" as="geometry" />
        </mxCell>
        <mxCell id="cs5eDjazcrXGXVDgT8lF-4" value="18" style="shape=image;html=1;verticalAlign=top;verticalLabelPosition=bottom;labelBackgroundColor=none;imageAspect=0;aspect=fixed;image=https://cdn0.iconfinder.com/data/icons/security-double-colour-blue-black-vol-1/52/camera__record__security__cctv-128.png;fontSize=40;fontColor=#007FFF;labelPosition=center;align=center;fontStyle=1" parent="cs5eDjazcrXGXVDgT8lF-0" vertex="1">
          <mxGeometry x="912" y="1150" width="128" height="128" as="geometry" />
        </mxCell>
        <mxCell id="cs5eDjazcrXGXVDgT8lF-5" value="19" style="shape=image;html=1;verticalAlign=top;verticalLabelPosition=bottom;labelBackgroundColor=none;imageAspect=0;aspect=fixed;image=https://cdn0.iconfinder.com/data/icons/security-double-colour-blue-black-vol-1/52/camera__record__security__cctv-128.png;fontSize=40;fontColor=#007FFF;labelPosition=center;align=center;fontStyle=1" parent="cs5eDjazcrXGXVDgT8lF-0" vertex="1">
          <mxGeometry x="1700" y="1440" width="128" height="128" as="geometry" />
        </mxCell>
        <mxCell id="cs5eDjazcrXGXVDgT8lF-7" value="24" style="shape=image;html=1;verticalAlign=top;verticalLabelPosition=bottom;labelBackgroundColor=none;imageAspect=0;aspect=fixed;image=https://cdn0.iconfinder.com/data/icons/security-double-colour-blue-black-vol-1/52/camera__record__security__cctv-128.png;fontSize=40;fontColor=#007FFF;labelPosition=center;align=center;fontStyle=1" parent="cs5eDjazcrXGXVDgT8lF-0" vertex="1">
          <mxGeometry x="3920" y="2026" width="128" height="128" as="geometry" />
        </mxCell>
        <mxCell id="cs5eDjazcrXGXVDgT8lF-8" value="21" style="shape=image;html=1;verticalAlign=top;verticalLabelPosition=bottom;labelBackgroundColor=none;imageAspect=0;aspect=fixed;image=https://cdn0.iconfinder.com/data/icons/security-double-colour-blue-black-vol-1/52/camera__record__security__cctv-128.png;fontSize=40;fontColor=#007FFF;labelPosition=center;align=center;fontStyle=1" parent="cs5eDjazcrXGXVDgT8lF-0" vertex="1">
          <mxGeometry x="3460" y="1430" width="128" height="128" as="geometry" />
        </mxCell>
        <mxCell id="cs5eDjazcrXGXVDgT8lF-11" value="12" style="shape=image;html=1;verticalAlign=top;verticalLabelPosition=bottom;labelBackgroundColor=#ffffff;imageAspect=0;aspect=fixed;image=https://cdn0.iconfinder.com/data/icons/security-double-colour-blue-black-vol-1/52/camera__record__security__cctv-128.png;fontSize=40;fontColor=#007FFF;fontStyle=1" parent="cs5eDjazcrXGXVDgT8lF-0" vertex="1">
          <mxGeometry x="1100" y="1260" width="128" height="128" as="geometry" />
        </mxCell>
        <mxCell id="cs5eDjazcrXGXVDgT8lF-12" value="14" style="shape=image;html=1;verticalAlign=top;verticalLabelPosition=bottom;labelBackgroundColor=none;imageAspect=0;aspect=fixed;image=https://cdn0.iconfinder.com/data/icons/security-double-colour-blue-black-vol-1/52/camera__record__security__cctv-128.png;fontSize=40;fontColor=#007FFF;fontStyle=1" parent="cs5eDjazcrXGXVDgT8lF-0" vertex="1">
          <mxGeometry x="3450" y="180" width="128" height="128" as="geometry" />
        </mxCell>
        <mxCell id="cs5eDjazcrXGXVDgT8lF-13" value="3" style="shape=image;html=1;verticalAlign=top;verticalLabelPosition=bottom;labelBackgroundColor=none;imageAspect=0;aspect=fixed;image=https://cdn0.iconfinder.com/data/icons/security-double-colour-blue-black-vol-1/52/camera__record__security__cctv-128.png;fontSize=40;fontColor=#007FFF;fontStyle=1" parent="cs5eDjazcrXGXVDgT8lF-0" vertex="1">
          <mxGeometry x="400" y="-20" width="128" height="128" as="geometry" />
        </mxCell>
        <mxCell id="cs5eDjazcrXGXVDgT8lF-14" value="13" style="shape=image;html=1;verticalAlign=top;verticalLabelPosition=bottom;labelBackgroundColor=#ffffff;imageAspect=0;aspect=fixed;image=https://cdn0.iconfinder.com/data/icons/security-double-colour-blue-black-vol-1/52/camera__record__security__cctv-128.png;fontSize=40;fontColor=#007FFF;fontStyle=1" parent="cs5eDjazcrXGXVDgT8lF-0" vertex="1">
          <mxGeometry x="2628" y="422" width="128" height="128" as="geometry" />
        </mxCell>
        <mxCell id="cs5eDjazcrXGXVDgT8lF-16" value="2" style="shape=image;html=1;verticalAlign=top;verticalLabelPosition=bottom;labelBackgroundColor=none;imageAspect=0;aspect=fixed;image=https://cdn0.iconfinder.com/data/icons/security-double-colour-blue-black-vol-1/52/camera__record__security__cctv-128.png;fontSize=40;fontColor=#007FFF;fontStyle=1" parent="cs5eDjazcrXGXVDgT8lF-0" vertex="1">
          <mxGeometry x="-10" y="-20" width="128" height="128" as="geometry" />
        </mxCell>
        <mxCell id="cs5eDjazcrXGXVDgT8lF-17" value="1&lt;br style=&quot;font-size: 40px;&quot;&gt;" style="shape=image;html=1;verticalAlign=top;verticalLabelPosition=bottom;labelBackgroundColor=none;imageAspect=0;aspect=fixed;image=https://cdn0.iconfinder.com/data/icons/security-double-colour-blue-black-vol-1/52/camera__record__security__cctv-128.png;fontSize=40;fontColor=#007FFF;fontStyle=1" parent="cs5eDjazcrXGXVDgT8lF-0" vertex="1">
          <mxGeometry x="-220" y="-210" width="128" height="128" as="geometry" />
        </mxCell>
        <mxCell id="cs5eDjazcrXGXVDgT8lF-18" value="9" style="shape=image;html=1;verticalAlign=top;verticalLabelPosition=bottom;labelBackgroundColor=none;imageAspect=0;aspect=fixed;image=https://cdn0.iconfinder.com/data/icons/security-double-colour-blue-black-vol-1/52/camera__record__security__cctv-128.png;fontSize=40;fontColor=#007FFF;fontStyle=1" parent="cs5eDjazcrXGXVDgT8lF-0" vertex="1">
          <mxGeometry x="1410" y="414" width="128" height="128" as="geometry" />
        </mxCell>
        <mxCell id="cs5eDjazcrXGXVDgT8lF-19" value="8" style="shape=image;html=1;verticalAlign=top;verticalLabelPosition=bottom;labelBackgroundColor=none;imageAspect=0;aspect=fixed;image=https://cdn0.iconfinder.com/data/icons/security-double-colour-blue-black-vol-1/52/camera__record__security__cctv-128.png;fontSize=40;fontColor=#007FFF;fontStyle=1" parent="cs5eDjazcrXGXVDgT8lF-0" vertex="1">
          <mxGeometry x="1410" y="-14" width="128" height="128" as="geometry" />
        </mxCell>
        <mxCell id="cs5eDjazcrXGXVDgT8lF-20" value="16" style="shape=image;html=1;verticalAlign=top;verticalLabelPosition=bottom;labelBackgroundColor=none;imageAspect=0;aspect=fixed;image=https://cdn0.iconfinder.com/data/icons/security-double-colour-blue-black-vol-1/52/camera__record__security__cctv-128.png;fontSize=40;fontColor=#007FFF;fontStyle=1" parent="cs5eDjazcrXGXVDgT8lF-0" vertex="1">
          <mxGeometry x="-220" y="570" width="128" height="128" as="geometry" />
        </mxCell>
        <mxCell id="cs5eDjazcrXGXVDgT8lF-21" value="6" style="shape=image;html=1;verticalAlign=top;verticalLabelPosition=bottom;labelBackgroundColor=#ffffff;imageAspect=0;aspect=fixed;image=https://cdn0.iconfinder.com/data/icons/security-double-colour-blue-black-vol-1/52/camera__record__security__cctv-128.png;fontSize=40;fontColor=#007FFF;fontStyle=1" parent="cs5eDjazcrXGXVDgT8lF-0" vertex="1">
          <mxGeometry x="400" y="414" width="128" height="128" as="geometry" />
        </mxCell>
        <mxCell id="cs5eDjazcrXGXVDgT8lF-22" value="7" style="shape=image;html=1;verticalAlign=top;verticalLabelPosition=bottom;labelBackgroundColor=#ffffff;imageAspect=0;aspect=fixed;image=https://cdn0.iconfinder.com/data/icons/security-double-colour-blue-black-vol-1/52/camera__record__security__cctv-128.png;fontSize=40;fontColor=#007FFF;fontStyle=1" parent="cs5eDjazcrXGXVDgT8lF-0" vertex="1">
          <mxGeometry x="786" y="414" width="128" height="128" as="geometry" />
        </mxCell>
        <mxCell id="8f25_QuAP1WeI3tzyar_-9" value="" style="verticalLabelPosition=bottom;verticalAlign=top;html=1;shape=mxgraph.basic.cone2;dx=0.5;dy=0.9;fillColor=#FF99CC;gradientColor=#ffffff;strokeColor=none;rotation=-80;" parent="cs5eDjazcrXGXVDgT8lF-0" vertex="1">
          <mxGeometry x="530" y="1780" width="320" height="1060" as="geometry" />
        </mxCell>
        <mxCell id="8f25_QuAP1WeI3tzyar_-10" value="20" style="shape=image;html=1;verticalAlign=top;verticalLabelPosition=bottom;labelBackgroundColor=none;imageAspect=0;aspect=fixed;image=https://cdn0.iconfinder.com/data/icons/security-double-colour-blue-black-vol-1/52/camera__record__security__cctv-128.png;fontSize=40;fontColor=#007FFF;labelPosition=center;align=center;fontStyle=1" parent="cs5eDjazcrXGXVDgT8lF-0" vertex="1">
          <mxGeometry x="-224" y="2026" width="128" height="128" as="geometry" />
        </mxCell>
        <mxCell id="8f25_QuAP1WeI3tzyar_-11" value="" style="verticalLabelPosition=bottom;verticalAlign=top;html=1;shape=mxgraph.basic.cone2;dx=0.5;dy=0.9;fillColor=#FF99CC;gradientColor=#ffffff;strokeColor=none;rotation=350;" parent="cs5eDjazcrXGXVDgT8lF-0" vertex="1">
          <mxGeometry x="4060" y="204" width="350" height="950" as="geometry" />
        </mxCell>
        <mxCell id="8f25_QuAP1WeI3tzyar_-12" value="&lt;b&gt;&lt;font style=&quot;font-size: 40px&quot;&gt;15&lt;/font&gt;&lt;/b&gt;" style="shape=image;html=1;verticalAlign=top;verticalLabelPosition=bottom;labelBackgroundColor=none;imageAspect=0;aspect=fixed;image=https://cdn0.iconfinder.com/data/icons/security-double-colour-blue-black-vol-1/52/camera__record__security__cctv-128.png;fontSize=31;fontColor=#007FFF;" parent="cs5eDjazcrXGXVDgT8lF-0" vertex="1">
          <mxGeometry x="4100" y="160" width="128" height="128" as="geometry" />
        </mxCell>
        <mxCell id="vrnas719oJ4A_Dz5osSf-55" value="192.168.0.101" style="sketch=0;pointerEvents=1;shadow=0;dashed=0;html=1;strokeColor=none;labelPosition=center;verticalLabelPosition=bottom;verticalAlign=top;align=center;fillColor=#FF0000;shape=mxgraph.mscae.oms.dependency_monitor;labelBackgroundColor=none;labelBorderColor=none;fontSize=33;fontColor=#FF0000;fontStyle=1" parent="cs5eDjazcrXGXVDgT8lF-0" vertex="1">
          <mxGeometry x="1660" y="1790" width="185.45" height="170" as="geometry" />
        </mxCell>
        <mxCell id="7N00hzlJdUgd6uboJZE--5" value="" style="verticalLabelPosition=bottom;verticalAlign=top;html=1;shape=mxgraph.basic.pie;startAngle=0.31981376386920374;endAngle=0.6787749838213741;fontSize=40;fontColor=#007FFF;fillColor=#CC99FF;strokeColor=none;gradientColor=#ffffff;gradientDirection=south;fontStyle=1" parent="cs5eDjazcrXGXVDgT8lF-0" vertex="1">
          <mxGeometry x="690" y="-120" width="320" height="320" as="geometry" />
        </mxCell>
        <mxCell id="7N00hzlJdUgd6uboJZE--4" value="4" style="shape=image;html=1;verticalAlign=top;verticalLabelPosition=bottom;labelBackgroundColor=none;imageAspect=0;aspect=fixed;image=https://cdn0.iconfinder.com/data/icons/security-double-colour-blue-black-vol-1/52/camera__record__security__cctv-128.png;fontSize=40;fontColor=#007FFF;fontStyle=1" parent="cs5eDjazcrXGXVDgT8lF-0" vertex="1">
          <mxGeometry x="790" y="-20" width="128" height="128" as="geometry" />
        </mxCell>
        <mxCell id="7N00hzlJdUgd6uboJZE--7" value="" style="verticalLabelPosition=bottom;verticalAlign=top;html=1;shape=mxgraph.basic.pie;startAngle=0.815970818035741;endAngle=0.18486649283900608;fontSize=40;fontColor=#007FFF;fillColor=#CC99FF;strokeColor=none;gradientColor=#ffffff;gradientDirection=north;fontStyle=1" parent="cs5eDjazcrXGXVDgT8lF-0" vertex="1">
          <mxGeometry x="-106" y="310" width="320" height="320" as="geometry" />
        </mxCell>
        <mxCell id="7N00hzlJdUgd6uboJZE--6" value="5" style="shape=image;html=1;verticalAlign=top;verticalLabelPosition=bottom;labelBackgroundColor=none;imageAspect=0;aspect=fixed;image=https://cdn0.iconfinder.com/data/icons/security-double-colour-blue-black-vol-1/52/camera__record__security__cctv-128.png;fontSize=40;fontColor=#007FFF;fontStyle=1" parent="cs5eDjazcrXGXVDgT8lF-0" vertex="1">
          <mxGeometry x="-10" y="414" width="128" height="128" as="geometry" />
        </mxCell>
        <mxCell id="7N00hzlJdUgd6uboJZE--8" value="10" style="shape=image;html=1;verticalAlign=top;verticalLabelPosition=bottom;labelBackgroundColor=none;imageAspect=0;aspect=fixed;image=https://cdn0.iconfinder.com/data/icons/security-double-colour-blue-black-vol-1/52/camera__record__security__cctv-128.png;fontSize=40;fontColor=#007FFF;fontStyle=1" parent="cs5eDjazcrXGXVDgT8lF-0" vertex="1">
          <mxGeometry x="2192" y="-14" width="128" height="128" as="geometry" />
        </mxCell>
        <mxCell id="7N00hzlJdUgd6uboJZE--9" value="11" style="shape=image;html=1;verticalAlign=top;verticalLabelPosition=bottom;labelBackgroundColor=none;imageAspect=0;aspect=fixed;image=https://cdn0.iconfinder.com/data/icons/security-double-colour-blue-black-vol-1/52/camera__record__security__cctv-128.png;fontSize=40;fontColor=#007FFF;fontStyle=1" parent="cs5eDjazcrXGXVDgT8lF-0" vertex="1">
          <mxGeometry x="2192" y="422" width="128" height="128" as="geometry" />
        </mxCell>
        <mxCell id="7N00hzlJdUgd6uboJZE--10" value="17" style="shape=image;html=1;verticalAlign=top;verticalLabelPosition=bottom;labelBackgroundColor=none;imageAspect=0;aspect=fixed;image=https://cdn0.iconfinder.com/data/icons/security-double-colour-blue-black-vol-1/52/camera__record__security__cctv-128.png;fontSize=40;fontColor=#007FFF;fontStyle=1" parent="cs5eDjazcrXGXVDgT8lF-0" vertex="1">
          <mxGeometry x="390" y="750" width="128" height="128" as="geometry" />
        </mxCell>
        <mxCell id="7N00hzlJdUgd6uboJZE--11" value="22" style="shape=image;html=1;verticalAlign=bottom;verticalLabelPosition=top;labelBackgroundColor=none;imageAspect=0;aspect=fixed;image=https://cdn0.iconfinder.com/data/icons/security-double-colour-blue-black-vol-1/52/camera__record__security__cctv-128.png;fontSize=40;fontColor=#007FFF;labelPosition=center;align=center;fontStyle=1" parent="cs5eDjazcrXGXVDgT8lF-0" vertex="1">
          <mxGeometry x="3272" y="1260" width="128" height="128" as="geometry" />
        </mxCell>
        <mxCell id="7N00hzlJdUgd6uboJZE--12" value="23" style="shape=image;html=1;verticalAlign=bottom;verticalLabelPosition=top;labelBackgroundColor=none;imageAspect=0;aspect=fixed;image=https://cdn0.iconfinder.com/data/icons/security-double-colour-blue-black-vol-1/52/camera__record__security__cctv-128.png;fontSize=40;fontColor=#007FFF;labelPosition=center;align=center;fontStyle=1" parent="cs5eDjazcrXGXVDgT8lF-0" vertex="1">
          <mxGeometry x="3272" y="1870" width="128" height="128" as="geometry" />
        </mxCell>
        <mxCell id="UMbm4JfTCg6qUx0sTSbx-3" value="camera&lt;br&gt;&amp;nbsp;switch 16" style="aspect=fixed;perimeter=ellipsePerimeter;html=1;align=center;shadow=0;dashed=0;spacingTop=3;image;image=img/lib/active_directory/wiring_hub.svg;fontSize=33;fontColor=#FF0000;imageBackground=default;labelBackgroundColor=none;" parent="cs5eDjazcrXGXVDgT8lF-0" vertex="1">
          <mxGeometry x="-243.06" y="170" width="147.06" height="100" as="geometry" />
        </mxCell>
        <mxCell id="H8keu7d3DDu3pE4mZcWP-0" value="อื่นๆ" style="locked=1;" parent="f-TOPqAcIMhOfcNf-VaI-0" />
        <mxCell id="H8keu7d3DDu3pE4mZcWP-1" value="Bill Counter" style="shape=image;html=1;verticalAlign=top;verticalLabelPosition=bottom;labelBackgroundColor=none;imageAspect=0;aspect=fixed;image=https://cdn3.iconfinder.com/data/icons/summer-glyph-24-px/24/Attache_case_bag_briefcase_luggage_luggage_bag-128.png;fontColor=#4D4D4D;fillColor=#008282;imageBackground=none;imageBorder=none;opacity=70;fontSize=30;" parent="H8keu7d3DDu3pE4mZcWP-0" vertex="1">
          <mxGeometry x="790" y="560" width="128" height="128" as="geometry" />
        </mxCell>
        <mxCell id="H8keu7d3DDu3pE4mZcWP-2" value="" style="image;html=1;image=img/lib/clip_art/finance/Safe_128x128.png" parent="H8keu7d3DDu3pE4mZcWP-0" vertex="1">
          <mxGeometry x="750" y="870" width="210" height="210" as="geometry" />
        </mxCell>
        <mxCell id="H8keu7d3DDu3pE4mZcWP-6" value="" style="shape=image;html=1;verticalAlign=top;verticalLabelPosition=bottom;labelBackgroundColor=#ffffff;imageAspect=0;aspect=fixed;image=https://cdn2.iconfinder.com/data/icons/public-services-filledoutline/64/FIRE_EXTINGUISHER-fighting-safety-protection-emergency-security-128.png" parent="H8keu7d3DDu3pE4mZcWP-0" vertex="1">
          <mxGeometry x="3800" y="1460" width="108" height="108" as="geometry" />
        </mxCell>
        <mxCell id="H8keu7d3DDu3pE4mZcWP-7" value="" style="shape=image;html=1;verticalAlign=top;verticalLabelPosition=bottom;labelBackgroundColor=#ffffff;imageAspect=0;aspect=fixed;image=https://cdn2.iconfinder.com/data/icons/public-services-filledoutline/64/FIRE_EXTINGUISHER-fighting-safety-protection-emergency-security-128.png" parent="H8keu7d3DDu3pE4mZcWP-0" vertex="1">
          <mxGeometry x="3800" y="1590" width="108" height="108" as="geometry" />
        </mxCell>
        <mxCell id="H8keu7d3DDu3pE4mZcWP-8" value="" style="shape=image;html=1;verticalAlign=top;verticalLabelPosition=bottom;labelBackgroundColor=#ffffff;imageAspect=0;aspect=fixed;image=https://cdn2.iconfinder.com/data/icons/public-services-filledoutline/64/FIRE_EXTINGUISHER-fighting-safety-protection-emergency-security-128.png" parent="H8keu7d3DDu3pE4mZcWP-0" vertex="1">
          <mxGeometry x="3800" y="1830" width="108" height="108" as="geometry" />
        </mxCell>
        <mxCell id="H8keu7d3DDu3pE4mZcWP-9" value="" style="shape=image;html=1;verticalAlign=top;verticalLabelPosition=bottom;labelBackgroundColor=#ffffff;imageAspect=0;aspect=fixed;image=https://cdn2.iconfinder.com/data/icons/public-services-filledoutline/64/FIRE_EXTINGUISHER-fighting-safety-protection-emergency-security-128.png" parent="H8keu7d3DDu3pE4mZcWP-0" vertex="1">
          <mxGeometry x="3800" y="1710" width="108" height="108" as="geometry" />
        </mxCell>
        <mxCell id="M4cywnT3TZyjQohuFBCj-3" value="Printer" style="locked=1;" parent="f-TOPqAcIMhOfcNf-VaI-0" />
        <mxCell id="xurGcQcXW0GNTpY4zVYj-32" value="EPSON&lt;br&gt;LQ-2090&lt;br&gt;60.01" style="pointerEvents=1;shadow=0;dashed=0;html=1;strokeColor=none;fillColor=#000000;labelPosition=center;verticalLabelPosition=bottom;verticalAlign=top;outlineConnect=0;align=center;shape=mxgraph.office.devices.printer;fontSize=30;fontFamily=Tahoma;fontColor=#000000;" parent="M4cywnT3TZyjQohuFBCj-3" vertex="1">
          <mxGeometry x="600" y="300" width="100" height="90" as="geometry" />
        </mxCell>
        <mxCell id="xurGcQcXW0GNTpY4zVYj-33" value="HP x476dw" style="pointerEvents=1;shadow=0;dashed=0;html=1;strokeColor=none;fillColor=#CC0000;labelPosition=center;verticalLabelPosition=bottom;verticalAlign=top;outlineConnect=0;align=center;shape=mxgraph.office.devices.printer;fontSize=30;fontFamily=Tahoma;fontColor=#CC0000;" parent="M4cywnT3TZyjQohuFBCj-3" vertex="1">
          <mxGeometry x="2630" y="1810" width="100" height="90" as="geometry" />
        </mxCell>
        <mxCell id="xurGcQcXW0GNTpY4zVYj-35" value="Epson&lt;br style=&quot;font-size: 30px;&quot;&gt;LQ-590&lt;br&gt;54.02" style="pointerEvents=1;shadow=0;dashed=0;html=1;strokeColor=none;fillColor=#000000;labelPosition=center;verticalLabelPosition=bottom;verticalAlign=top;outlineConnect=0;align=center;shape=mxgraph.office.devices.printer;fontFamily=Tahoma;fontSize=30;fontStyle=0;fontColor=#000000;" parent="M4cywnT3TZyjQohuFBCj-3" vertex="1">
          <mxGeometry x="200" y="300" width="100" height="90" as="geometry" />
        </mxCell>
        <mxCell id="xurGcQcXW0GNTpY4zVYj-36" value="&lt;font&gt;EPSON&lt;br&gt;LQ-630&lt;br&gt;65.02&lt;/font&gt;" style="pointerEvents=1;shadow=0;dashed=0;html=1;strokeColor=none;fillColor=#000000;labelPosition=center;verticalLabelPosition=bottom;verticalAlign=top;outlineConnect=0;align=center;shape=mxgraph.office.devices.printer;fontSize=30;fontFamily=Tahoma;fontColor=#000000;" parent="M4cywnT3TZyjQohuFBCj-3" vertex="1">
          <mxGeometry x="-180" y="290" width="100" height="90" as="geometry" />
        </mxCell>
        <mxCell id="xurGcQcXW0GNTpY4zVYj-41" value="EPSON&lt;br&gt;LQ-2090&lt;br&gt;50.07" style="pointerEvents=1;shadow=0;dashed=0;html=1;strokeColor=none;fillColor=#000000;labelPosition=center;verticalLabelPosition=bottom;verticalAlign=top;outlineConnect=0;align=center;shape=mxgraph.office.devices.printer;fontSize=30;fontFamily=Tahoma;fontColor=#000000;" parent="M4cywnT3TZyjQohuFBCj-3" vertex="1">
          <mxGeometry x="1820" y="600" width="100" height="90" as="geometry" />
        </mxCell>
        <mxCell id="xurGcQcXW0GNTpY4zVYj-42" value="Samsung&lt;br&gt;&amp;nbsp;M4020ND" style="pointerEvents=1;shadow=0;dashed=0;html=1;strokeColor=none;fillColor=#504BD6;labelPosition=center;verticalLabelPosition=bottom;verticalAlign=top;outlineConnect=0;align=center;shape=mxgraph.office.devices.printer;fontSize=30;fontFamily=Tahoma;fontColor=#504BD6;" parent="M4cywnT3TZyjQohuFBCj-3" vertex="1">
          <mxGeometry x="2410" y="920" width="100" height="90" as="geometry" />
        </mxCell>
        <mxCell id="xurGcQcXW0GNTpY4zVYj-43" value="HP M254&lt;br&gt;62.03" style="pointerEvents=1;shadow=0;dashed=0;html=1;strokeColor=none;fillColor=#000000;labelPosition=center;verticalLabelPosition=bottom;verticalAlign=top;outlineConnect=0;align=center;shape=mxgraph.office.devices.printer;fontSize=30;fontFamily=Tahoma;fontColor=#000000;" parent="M4cywnT3TZyjQohuFBCj-3" vertex="1">
          <mxGeometry x="2220" y="610" width="100" height="90" as="geometry" />
        </mxCell>
        <mxCell id="xurGcQcXW0GNTpY4zVYj-46" value="Samsung&lt;br&gt;&amp;nbsp;M4020ND" style="pointerEvents=1;shadow=0;dashed=0;html=1;strokeColor=none;fillColor=#504BD6;labelPosition=center;verticalLabelPosition=bottom;verticalAlign=top;outlineConnect=0;align=center;shape=mxgraph.office.devices.printer;fontSize=30;fontFamily=Tahoma;fontColor=#504BD6;" parent="M4cywnT3TZyjQohuFBCj-3" vertex="1">
          <mxGeometry x="-170" y="1490" width="100" height="90" as="geometry" />
        </mxCell>
        <mxCell id="xurGcQcXW0GNTpY4zVYj-47" value="Fuji Xerox&amp;nbsp;&lt;br&gt;P285DW&lt;br&gt;63.16" style="pointerEvents=1;shadow=0;dashed=0;html=1;strokeColor=none;fillColor=#000000;labelPosition=center;verticalLabelPosition=bottom;verticalAlign=top;outlineConnect=0;align=center;shape=mxgraph.office.devices.printer;fontSize=30;fontFamily=Tahoma;fontColor=#000000;" parent="M4cywnT3TZyjQohuFBCj-3" vertex="1">
          <mxGeometry x="-180" y="590" width="100" height="90" as="geometry" />
        </mxCell>
        <mxCell id="xurGcQcXW0GNTpY4zVYj-52" value="Fuji Xerox&lt;br&gt;DocuCentre-IV&lt;br&gt;C2273&lt;br&gt;192.168.1.10" style="pointerEvents=1;shadow=0;dashed=0;html=1;strokeColor=none;fillColor=#504BD6;labelPosition=center;verticalLabelPosition=bottom;verticalAlign=top;outlineConnect=0;align=center;shape=mxgraph.office.devices.printer;fontSize=30;fontFamily=Tahoma;gradientColor=none;fontColor=#504BD6;" parent="M4cywnT3TZyjQohuFBCj-3" vertex="1">
          <mxGeometry x="3230" y="300" width="135" height="121.5" as="geometry" />
        </mxCell>
        <mxCell id="xurGcQcXW0GNTpY4zVYj-53" value="Panasonic&lt;br&gt;KX MB2085&lt;br&gt;&lt;b style=&quot;font-family: &amp;quot;helvetica&amp;quot; ; font-size: 24px&quot;&gt;02-982-8799&lt;/b&gt;" style="pointerEvents=1;shadow=0;dashed=0;html=1;strokeColor=none;fillColor=#CC0000;labelPosition=center;verticalLabelPosition=bottom;verticalAlign=top;outlineConnect=0;align=center;shape=mxgraph.office.devices.printer;fontSize=30;fontFamily=Tahoma;fontColor=#CC0000;" parent="M4cywnT3TZyjQohuFBCj-3" vertex="1">
          <mxGeometry x="3250" y="1180" width="100" height="90" as="geometry" />
        </mxCell>
        <mxCell id="vrnas719oJ4A_Dz5osSf-32" value="Fuji Xerox&lt;br&gt;M225" style="pointerEvents=1;shadow=0;dashed=0;html=1;strokeColor=none;fillColor=#000000;labelPosition=center;verticalLabelPosition=bottom;verticalAlign=top;outlineConnect=0;align=center;shape=mxgraph.office.devices.printer;fontSize=30;fontFamily=Tahoma;fontColor=#000000;" parent="M4cywnT3TZyjQohuFBCj-3" vertex="1">
          <mxGeometry x="1200" y="1800" width="100" height="90" as="geometry" />
        </mxCell>
        <mxCell id="vrnas719oJ4A_Dz5osSf-33" value="Fuji Xerox&lt;br&gt;P285DW&lt;br&gt;220.220.220.199" style="pointerEvents=1;shadow=0;dashed=0;html=1;strokeColor=none;fillColor=#000000;labelPosition=center;verticalLabelPosition=bottom;verticalAlign=top;outlineConnect=0;align=center;shape=mxgraph.office.devices.printer;fontSize=30;fontFamily=Tahoma;fontColor=#000000;" parent="M4cywnT3TZyjQohuFBCj-3" vertex="1">
          <mxGeometry x="390" y="1790" width="100" height="90" as="geometry" />
        </mxCell>
        <mxCell id="vrnas719oJ4A_Dz5osSf-34" value="Epson &lt;br&gt;LQ-310" style="pointerEvents=1;shadow=0;dashed=0;html=1;strokeColor=none;fillColor=#000000;labelPosition=center;verticalLabelPosition=bottom;verticalAlign=top;outlineConnect=0;align=center;shape=mxgraph.office.devices.printer;fontSize=30;fontFamily=Tahoma;fontColor=#000000;" parent="M4cywnT3TZyjQohuFBCj-3" vertex="1">
          <mxGeometry x="390" y="1390" width="100" height="90" as="geometry" />
        </mxCell>
        <mxCell id="vrnas719oJ4A_Dz5osSf-35" value="Fuji Xerox&lt;br&gt;&amp;nbsp;CM 315z&lt;br&gt;220.220.220.198" style="pointerEvents=1;shadow=0;dashed=0;html=1;strokeColor=none;fillColor=#504BD6;labelPosition=center;verticalLabelPosition=bottom;verticalAlign=top;outlineConnect=0;align=center;shape=mxgraph.office.devices.printer;fontSize=30;fontFamily=Tahoma;fontColor=#504BD6;" parent="M4cywnT3TZyjQohuFBCj-3" vertex="1">
          <mxGeometry x="390" y="1570" width="100" height="90" as="geometry" />
        </mxCell>
        <mxCell id="vrnas719oJ4A_Dz5osSf-39" value="Brother&lt;br&gt;9330" style="pointerEvents=1;shadow=0;dashed=0;html=1;strokeColor=none;fillColor=#000000;labelPosition=center;verticalLabelPosition=bottom;verticalAlign=top;outlineConnect=0;align=center;shape=mxgraph.office.devices.printer;fontSize=30;fontFamily=Tahoma;fontColor=#000000;" parent="M4cywnT3TZyjQohuFBCj-3" vertex="1">
          <mxGeometry x="220" y="900" width="100" height="90" as="geometry" />
        </mxCell>
        <mxCell id="vrnas719oJ4A_Dz5osSf-40" value="&amp;nbsp; Tally T5040 57.01" style="pointerEvents=1;shadow=0;dashed=0;html=1;strokeColor=none;fillColor=#000000;labelPosition=center;verticalLabelPosition=top;verticalAlign=bottom;outlineConnect=0;align=center;shape=mxgraph.office.devices.printer;fontSize=25;fontFamily=Tahoma;fontColor=#000000;" parent="M4cywnT3TZyjQohuFBCj-3" vertex="1">
          <mxGeometry x="410" y="230" width="80" height="69" as="geometry" />
        </mxCell>
        <mxCell id="vrnas719oJ4A_Dz5osSf-41" value="&amp;nbsp; Tally T5040 56.01" style="pointerEvents=1;shadow=0;dashed=0;html=1;strokeColor=none;fillColor=#000000;labelPosition=center;verticalLabelPosition=top;verticalAlign=bottom;outlineConnect=0;align=center;shape=mxgraph.office.devices.printer;fontSize=25;fontFamily=Tahoma;fontColor=#000000;" parent="M4cywnT3TZyjQohuFBCj-3" vertex="1">
          <mxGeometry x="10" y="230" width="80" height="69" as="geometry" />
        </mxCell>
        <mxCell id="vrnas719oJ4A_Dz5osSf-42" value="&amp;nbsp; Tally T5040 60.02" style="pointerEvents=1;shadow=0;dashed=0;html=1;strokeColor=none;fillColor=#000000;labelPosition=center;verticalLabelPosition=top;verticalAlign=bottom;outlineConnect=0;align=center;shape=mxgraph.office.devices.printer;fontSize=25;fontFamily=Tahoma;fontColor=#000000;" parent="M4cywnT3TZyjQohuFBCj-3" vertex="1">
          <mxGeometry x="810" y="230" width="80" height="69" as="geometry" />
        </mxCell>
        <mxCell id="vrnas719oJ4A_Dz5osSf-43" value="&amp;nbsp; Tally T5040 53.19" style="pointerEvents=1;shadow=0;dashed=0;html=1;strokeColor=none;fillColor=#000000;labelPosition=center;verticalLabelPosition=top;verticalAlign=bottom;outlineConnect=0;align=center;shape=mxgraph.office.devices.printer;fontSize=25;fontFamily=Tahoma;fontColor=#000000;" parent="M4cywnT3TZyjQohuFBCj-3" vertex="1">
          <mxGeometry x="10" y="530" width="80" height="69" as="geometry" />
        </mxCell>
        <mxCell id="vrnas719oJ4A_Dz5osSf-47" value="Samsung&lt;br&gt;&amp;nbsp;M4020ND" style="pointerEvents=1;shadow=0;dashed=0;html=1;strokeColor=none;fillColor=#504BD6;labelPosition=center;verticalLabelPosition=bottom;verticalAlign=top;outlineConnect=0;align=center;shape=mxgraph.office.devices.printer;fontSize=30;fontFamily=Tahoma;fontColor=#504BD6;" parent="M4cywnT3TZyjQohuFBCj-3" vertex="1">
          <mxGeometry x="1820" y="900" width="100" height="90" as="geometry" />
        </mxCell>
        <mxCell id="vrnas719oJ4A_Dz5osSf-49" value="&lt;span style=&quot;font-family: Helvetica; font-size: 30px;&quot;&gt;Scanner &lt;br&gt;Xerox&amp;nbsp;&lt;/span&gt;&lt;span style=&quot;font-family: Helvetica; font-size: 30px;&quot;&gt;6440&lt;br&gt;62.01&lt;br&gt;&lt;/span&gt;" style="pointerEvents=1;shadow=0;dashed=0;html=1;strokeColor=none;fillColor=#000000;labelPosition=center;verticalLabelPosition=bottom;verticalAlign=top;outlineConnect=0;align=center;shape=mxgraph.office.devices.printer;fontSize=30;fontFamily=Tahoma;fontColor=#000000;" parent="M4cywnT3TZyjQohuFBCj-3" vertex="1">
          <mxGeometry x="2410" y="1180" width="100" height="90" as="geometry" />
        </mxCell>
        <mxCell id="vrnas719oJ4A_Dz5osSf-50" value="&lt;span style=&quot;font-family: Helvetica; font-size: 30px;&quot;&gt;Scanner &lt;br&gt;Xerox&amp;nbsp;&lt;/span&gt;&lt;span style=&quot;font-family: Helvetica; font-size: 30px;&quot;&gt;6440&lt;br&gt;61.02&lt;br&gt;&lt;/span&gt;" style="pointerEvents=1;shadow=0;dashed=0;html=1;strokeColor=none;fillColor=#000000;labelPosition=center;verticalLabelPosition=bottom;verticalAlign=top;outlineConnect=0;align=center;shape=mxgraph.office.devices.printer;fontSize=30;fontFamily=Tahoma;fontColor=#000000;" parent="M4cywnT3TZyjQohuFBCj-3" vertex="1">
          <mxGeometry x="1803" y="300" width="100" height="90" as="geometry" />
        </mxCell>
        <mxCell id="vrnas719oJ4A_Dz5osSf-51" value="Fuji Xerox&lt;br&gt;M 285z" style="pointerEvents=1;shadow=0;dashed=0;html=1;strokeColor=none;fillColor=#504BD6;labelPosition=center;verticalLabelPosition=bottom;verticalAlign=top;outlineConnect=0;align=center;shape=mxgraph.office.devices.printer;fontSize=30;fontFamily=Tahoma;fontColor=#504BD6;" parent="M4cywnT3TZyjQohuFBCj-3" vertex="1">
          <mxGeometry x="2220" y="300" width="100" height="90" as="geometry" />
        </mxCell>
        <mxCell id="vrnas719oJ4A_Dz5osSf-52" value="Fuji Xerox&lt;br&gt;M 285z" style="pointerEvents=1;shadow=0;dashed=0;html=1;strokeColor=none;fillColor=#504BD6;labelPosition=center;verticalLabelPosition=bottom;verticalAlign=top;outlineConnect=0;align=center;shape=mxgraph.office.devices.printer;fontSize=30;fontFamily=Tahoma;fontColor=#504BD6;" parent="M4cywnT3TZyjQohuFBCj-3" vertex="1">
          <mxGeometry x="1420" y="300" width="100" height="90" as="geometry" />
        </mxCell>
        <mxCell id="vrnas719oJ4A_Dz5osSf-56" value="Fuji Xerox&lt;br&gt;M225&lt;br&gt;60.04" style="pointerEvents=1;shadow=0;dashed=0;html=1;strokeColor=none;fillColor=#000000;labelPosition=center;verticalLabelPosition=bottom;verticalAlign=top;outlineConnect=0;align=center;shape=mxgraph.office.devices.printer;fontSize=30;fontFamily=Tahoma;fontColor=#000000;" parent="M4cywnT3TZyjQohuFBCj-3" vertex="1">
          <mxGeometry x="2650" y="-150" width="100" height="90" as="geometry" />
        </mxCell>
        <mxCell id="Fcl9H4rcNKDT1mkGbeQJ-0" value="TV" style="locked=1;" parent="f-TOPqAcIMhOfcNf-VaI-0" />
        <mxCell id="Fcl9H4rcNKDT1mkGbeQJ-1" value="&lt;span style=&quot;font-size: 30px;&quot;&gt;Q Monitor&lt;/span&gt;" style="points=[];aspect=fixed;html=1;align=center;shadow=0;dashed=0;image;image=img/lib/allied_telesis/computer_and_terminals/IP_TV.svg;labelBackgroundColor=none;" parent="Fcl9H4rcNKDT1mkGbeQJ-0" vertex="1">
          <mxGeometry x="1956" y="580" width="169" height="173.12" as="geometry" />
        </mxCell>
        <mxCell id="Fcl9H4rcNKDT1mkGbeQJ-2" value="&lt;span style=&quot;font-size: 30px;&quot;&gt;TV&lt;/span&gt;" style="points=[];aspect=fixed;html=1;align=center;shadow=0;dashed=0;image;image=img/lib/allied_telesis/computer_and_terminals/IP_TV.svg;labelBackgroundColor=none;" parent="Fcl9H4rcNKDT1mkGbeQJ-0" vertex="1">
          <mxGeometry x="1170" y="580" width="169" height="173.12" as="geometry" />
        </mxCell>
        <mxCell id="Fcl9H4rcNKDT1mkGbeQJ-3" value="&lt;span style=&quot;font-size: 30px;&quot;&gt;TV&lt;/span&gt;" style="points=[];aspect=fixed;html=1;align=center;shadow=0;dashed=0;image;image=img/lib/allied_telesis/computer_and_terminals/IP_TV.svg;labelBackgroundColor=none;" parent="Fcl9H4rcNKDT1mkGbeQJ-0" vertex="1">
          <mxGeometry x="1650" y="1540" width="169" height="173.12" as="geometry" />
        </mxCell>
        <mxCell id="Fcl9H4rcNKDT1mkGbeQJ-4" value="&lt;span style=&quot;font-size: 30px;&quot;&gt;TV&lt;/span&gt;" style="points=[];aspect=fixed;html=1;align=center;shadow=0;dashed=0;image;image=img/lib/allied_telesis/computer_and_terminals/IP_TV.svg;labelBackgroundColor=none;" parent="Fcl9H4rcNKDT1mkGbeQJ-0" vertex="1">
          <mxGeometry x="3570" y="550" width="169" height="173.12" as="geometry" />
        </mxCell>
        <mxCell id="Fcl9H4rcNKDT1mkGbeQJ-5" value="&lt;span style=&quot;font-size: 30px;&quot;&gt;TV&lt;/span&gt;" style="points=[];aspect=fixed;html=1;align=center;shadow=0;dashed=0;image;image=img/lib/allied_telesis/computer_and_terminals/IP_TV.svg;labelBackgroundColor=none;" parent="Fcl9H4rcNKDT1mkGbeQJ-0" vertex="1">
          <mxGeometry x="3490" y="1160" width="169" height="173.12" as="geometry" />
        </mxCell>
      </root>
    </mxGraphModel>
  </diagram>
</mxfile>
